<?xml version="1.0" encoding="UTF-8"?>
<svg id="Layer_1" data-name="Layer 1" xmlns="http://www.w3.org/2000/svg" viewBox="0 0 469.37 250.49">
  <defs>
    <style>
      .cls-1 {
        fill: #c5110e;
      }

      .cls-2 {
        fill: #fefefe;
      }
    </style>
  </defs>
  <path class="cls-1" d="M184.83,153.8c.8,1.13,5.18,1.35,6.61,1.05,1.89-.4,6-3.79,7.17-5.36.71-.95.99-2.46,1.69-3.22.76-.83,2.08-.88,2.68-1.68,1.26-1.68,2.46-7.67,3.69-9.95s3.65-4.32,5.92-2.35c4.63,4.01-6.61,13.36-5.45,16.88.31.96,3.65,1.65,4.73,1.85,2.41.45,11.36,1.24,13.09.01.49-.35,2.49-6.6,3.19-7.99,2.58-5.1,9.29-13.35,15.43-9.03,3.46,2.44,2.46,6.2,1.01,9.66-2.26,5.39-7.74,7.37-12.31,10.32-.13,4.34-2.29,13.14,2.75,15.3,2.02.87,3.47.54,5.28-.44,6.56-3.57,8.86-13.47,12.48-19.69,10.61-18.26,9.63,3.12,10.73,3.1,1.01-.02,1.84-1.5,2.81-2.1,5.92-3.63,12.85-4.28,19.25-6.37,1.77-.58,5.42-3.61,6.83-.81,1.79,3.56-2.89,5.58-5.45,6.56-9.21,3.52-23.91,3.14-20.88,17.6.49,2.32,4.05,6.19.74,8.61-5.07,3.71-7.96-9.92-8.43-12.92-.23-1.47-.31-8.6-.61-8.93-.8-.88-.96.29-1.22.7-2.82,4.39-4.29,10.49-7.77,14.58-11.7,13.76-25.67,3.6-24.27-12-4.5.96-9.23.49-13.78-.13-1.32-.18-4.46-1.81-5.77-.89-1.06.74-3.22,13.41-4.56,15.89-1.15,2.14-4.26,3.87-5.58.93-1.64-3.64,3.5-12.58,4.06-16.63-1.6.15-2.81,1.69-4.22,2.32-4.42,1.96-5.6,1.23-9.79.26-2.81-.65-1.44.69-1.84,2.82-.59,3.13-1.59,6.23-2.06,9.4-1.37,9.28-2.36,36.44-8,42.72-2.77,3.09-8.72,1.16-10.19-2.3-2.27-5.34,2.59-21.02,4.34-27.02,2.3-7.94,5.24-15.71,7.79-23.57-.94-.24-1.09.38-1.64.81-6.06,4.72-12.03,12.57-18.25,16.65-3.45,2.26-9.24,1.17-10.75-2.89-.71-1.9-.53-5.11-.45-7.23.02-.57,1.36-5.5-.24-4.61-3.72,4.04-6.61,9.23-10.1,13.35-4.49,5.29-7.18,5.19-8.99,12.82-3.69,15.61-5.75,30.14-11.15,45.57-2.58,7.36-7.23,15.47-16.11,15.02-5.32-.27-5.93-4.65-5.71-9.04,1.03-20.2,14.03-36.4,25.73-51.71,2.45-4.63,2.07-10.03,2.34-15.11-4.56,6.21-10.89,10.94-19.05,9.78-6.87-.98-4.06-11.73-1.88-15.99s8.4-9.9,12.81-12.27c3.41-1.83,13.35-6.63,15.22-1.18,2.12,6.18-.78,14.93-.29,21.58.04.59-.3,1.82.81,1.35,1.84-.77,8.29-10.47,10.11-12.79,1.51-1.93,3.44-3.68,4.87-5.49,1.51-1.91,4.59-9.28,7.15-6.03,1.98,2.52-1.02,13.44-1.16,16.98-.12,3.18.97,4.97,4.37,3.78l15.56-14.43c4.12-4.51,10.66-9.28,11.56-15.7s.99-13.85,3.69-20.31c1.44-3.43,6.35-7.36,9.56-4.12.84.84,2.5,4.68,2.51,5.92.06,6.62-7.52,17.34-9.89,23.84-.36,1-1.33,3.44-.74,4.27ZM190.19,124.97c-2.56-1.76-4.44,7.24-4.74,8.61-.64,2.97-1.08,6.34-1.24,9.38.79-.28,1.39-2.11,1.73-2.9,1.42-3.35,4.2-9.53,4.58-12.9.05-.49-.15-2.07-.32-2.19ZM232.18,147.33c1.12,1.14,9.71-6.57,5.71-7.63-2.5-.66-6.06,7.28-5.71,7.63ZM120.22,164.59c2.11-3.35,2.65-7.22-2.55-6.1-4.77,1.03-12.3,8.12-14.08,12.63s.97,9.38,5.9,5.91c2.81-1.98,8.83-9.41,10.73-12.43ZM175.21,159.88v.55c.35-.18.35-.36,0-.55ZM177.11,170.25c-1.51-.26-.92.31-1.23,1.19-2.93,8.3-7.75,21.53-7.52,30.19.03.98.84,7.11,1.13,7.34.95.75.91-.19,1.13-.76,1.12-2.88,1.52-6,2.55-8.91l3.94-29.05ZM99.79,239.43c.58.36,4,.18,4.81-.19,2.81-1.27,5.5-9.17,6.4-12.15,2.78-9.28,4.27-19.1,6.69-28.48-2.77,2.42-5.28,6.17-7.31,9.32-4.59,7.11-11.55,19.68-11.73,28.12-.01.65.85,3.2,1.15,3.38Z"/>
  <path class="cls-1" d="M333.57,58.43c8.17-4.73,14.73-15.8,17.59-24.67.97-3.01,2.13-12.79,3.9-14.1,1.32-.98,2.78-.5,3.61.82,1.39,2.19-.9,10.07-1.12,13.13-.49,7.08.29,14.68.02,21.84-.14,3.66-1.84,6.46,3.26,1.63,2.04-1.93,6.66-9.64,10.21-6.15,2.82,2.77-3.75,6.63-5.33,8.31-1.45,1.53-6.17,8.16-6.44,9.96-.15,1.01,1.02,3.23,1.64,4.15,6.41,9.57,13.49.58,17.26-6,.78-1.36,1.16-3.07,1.99-4.55,1.22-2.19,4.21-8.42,5.48-9.79,1.71-1.83,9.68-4.1,8.99.77-.42,2.97-5.76,2.29-6,6.06s3,2.12,5.67,2.47c2.53.33,4.17,1.65,5.76,3.51,2.63,3.09,2.37,6.87,7.84,3.46,2.51-1.56,1.2-6.62,1.45-9.46.44-5.15,4.09-12.29,10.21-9.68,4.85,2.06,2.56,7.97.78,11.41-1.59,3.07-5.88,6.98-5.44,10.13.56,3.93,4.93,8.47,9.17,7.26,10.04-2.87,14.86-16.71,18.95-25.27-.97-12.13-5.85-28.07-1.67-39.82,1.29-3.62,3.47-5.25,7.5-4.47,2.6.5,4.73,6.77,5.05,9.13.62,4.62-.83,13.41-1.65,18.25-.78,4.59-4.44,15.4-3.98,18.98.66,5.19,4.99,16.62,7.82,21.12,1.28,2.03,6.25,7.82,8.56,7.81,1.4,0,3.38-1.53,4.39.51,1.45,2.91-2.06,5.16-4.77,4.81-8.51-1.09-17.08-19.46-18.41-27.17-1.24-.23-.87.09-1.22.7-.69,1.19-.9,2.66-1.6,3.84-2.1,3.57-6.55,10.22-9.7,12.65-9.06,6.99-17.53,6.03-23.03-4.28-.31-.58-.37-1.87-.47-1.96-.44-.39-5.71.86-5.9,1.09s.04,2.7-.3,3.8c-.23.75-2.93,4.65-3.58,5.14-1.87,1.4-6,1.83-8.19,1.13-.52-.16-3.78-2.16-3.97-2.6-.96-2.28.02-5.17,1.53-6.99,2.26-2.74,3.55-1.78,6.43-2.31.69-.13,1.69-.18,1.43-1.14-1.39-5.04-5.63-3.43-9.35-4.29-.87-.2-3.16-1.88-3.66-1.52-.16.12-.87,2.94-1.35,3.84-3.51,6.58-8.71,12.59-16.53,13.5-4.36.51-9.55-7.26-10.47-5.89-.11.17-.53,3.48-.57,4.07-.19,2.92.9,10.24-1.09,12s-3.82.21-4.62-1.87c-2.17-5.62.93-14.26,1.4-20.44.61-8.09,1.9-17.78,1.61-25.66-.02-.66.41-2.03-.54-1.9-3.16,7.32-8.22,14.62-14.76,19.32-1.41,1.02-3.45.94-3.65,2.87.21,3.79-.33,18.29,2.58,20.1,1.34.83,3.83-1.53,5.2,1.36,1.56,3.3-6.65,8.28-10.21,1.46-2.41-6.85-1.68-14.48-2.61-21.66-5.57.65-11.71.08-17.17.55-.6.05-3.19.47-3.44.65-.71.52-3.25,11.32-3.91,13.28-3.76,11.21-11.02,27.3-17.11,37.42-.83,1.38-6.33,8.68-7.98,7.01-1.45-1.47,3.74-7.25,4.57-8.79,18.16-33.52,24.47-71.55,34.41-107.93.56-2.04,2.87-9.01,4.91-9.31,3.75-.55,6.11,6.22,6.66,9.17,2.26,12.07,1.86,27.25,2.87,39.68.25,3.1,1.12,6.4,1.09,9.55ZM328.09,62.22c.35-.36.12-8.73.05-10.09-.52-9.59-1.37-19.3-2.2-28.89-.13-1.56-.03-12.8-1.91-12.8-2.75-.01-13.03,47.62-14.44,52.9,2.26.11,17.77-.36,18.51-1.11ZM447.5,15.34c-1.59-1.49-2.66,5.1-2.72,5.73-.62,6.98,1.07,14.01.54,20.99,1.37.48,1.48-1.66,1.57-2.51.72-6.33,1.6-14.41,1.18-20.69-.04-.58-.44-3.4-.57-3.52ZM417.51,54.61c-1.73-1.87-4.21,6.96-3.26,8.18l3.01-4.89c.24-.63.46-3.07.25-3.29ZM398.43,76.43c-1.62.79-4.5-.21-5.6.07-.93.24-2,2.03-1.48,2.65.21.25,4.32.73,5.09.47.58-.2,2.39-2.83,1.99-3.19Z"/>
  <path class="cls-1" d="M107.88,86.25l-1.48,3.7c-.99,4.99-2.35,18.66-10.47,12.9s-4.68-32.32-6.64-34c-.37-.31-3.55-.11-4.3.22-3.25,1.46-4.89,8.29-5.39,11.52-.67,4.33-1.04,8.76-1.64,13.08-.3,2.18-.03,8.17-2.08,8.83-2.35.75-2.69-.22-2.89-2.34-.54-5.69.95-13.22,1.12-19.07.07-2.41.36-7.2-.02-9.29-.1-.55-.27-1.18-.87-1.34-1.34-.36-7.99,3.58-9.73,4.37-1.05.48-3.11.26-3.5,1.4-.12,7.98-.07,15.97-.09,23.95,0,1.89,1.07,4.08-.48,6.02-1.34,1.67-5.13.36-5.34-1.74l.39-27.48c-2.09,1-14.02-2.71-14.71-2.18-.62.48-4.13,12.74-5.04,14.87-3.41,7.94-15.32,28.46-20.89,34.74-1.57,1.77-12.9,10.54-13.79,5.68-.38-2.04,3.02-2.91,4.24-3.79,11.46-8.27,16.84-24.84,24.68-36.4,4.26-14.3,10.1-28.78,14.22-43.05,1.44-5,2.03-10.51,3.65-15.44.97-2.94,6.09-14.85,10.08-10.05,3.74,4.5,3.14,16.21,3.57,22.07s1.68,10.81,1.08,16.91c-.17,1.73-2.5,8.08-1.63,9,.43.46,6.44-3.36,7.26-3.92,3.41-2.34,4.73-5.36,9.39-4.84,3.98.45,2.77,6.17,3.52,7.12.81,1.03,6.01-7.77,10.64-4.38,5.18,3.81,3.61,14.33,4.08,19.92.26,3.18.61,7.84,1.13,10.87.22,1.3,1.89,6.78,3.77,5.22.3-.25,1.08-6.42,1.36-7.64.49-2.12,1.37-4.39,1.77-6.41,1.25-6.34,1.4-14.7,3.01-20.44.45-1.58,1.45-3.59,3.33-3.55,2.83.06,2.79,7.02,3.08,9.14,3.5-4.68,10.92-15.96,16.9-7.91,2.85,3.84,1.01,6.14,1.07,9.79.05,3.3,2.21,15.41,3.47,18.4.82,1.95,1.42,2.77,3.82,1.99,1.87-.6,2.83-8.57,3.48-10.7,2.41-7.9,9.91-18.52,17.99-21.26,9.18-3.12,6.28,7.86,6.67,13.26.25,3.42,3.52,16.6,6.57,17.97,1.27.57,3.59,0,4.39,1.2,2.13,3.18-5.29,8.59-9.82,4.77-1.99-1.69-3.12-4.61-4.48-6.42-1.84-2.45-1.69.62-2.55,2.2-3.19,5.89-9.08,7.9-14.49,3.4l-2.5-3.76c-3.63,11-11.07,8.64-14.47-1.07-2.57-7.33-2.13-15.11-3.02-22.61-.57-4.83-2.61-4.38-5.4-1.12-6.2,7.26-4.78,12.76-5.47,21.26-.18,2.28-.67,9.59-1.37,11.18-1.11,2.53-5.17,2.67-5.17.83v-15.55ZM40.84,70.97c.12.12,2.67-.08,3.49.06,2.2.37,9.59,3.28,10.6.13.15-8.88.11-17.78.06-26.67-.02-4.2.53-8.89.06-13.09-.08-.7-.09-1.54-.85-1.88-1.42-.62-1.08.1-1.4.78-2.21,4.6-2.65,11.18-4.04,16.14-.85,3.05-8.83,23.63-7.91,24.54ZM158.42,66.69c-2.13.43-5.97,4.66-7.17,6.5-1,1.54-3.45,6.48-3.87,8.13-1.19,4.65-.08,14.89,6.04,8.77,5.15-5.15,5.06-15.47,6.81-22.12-.11-1.11-.73-1.5-1.81-1.28Z"/>
  <path class="cls-1" d="M383.72,163.7c-.45-.49-1.3.56-1.64.81-4.3,3.3-6.34,7.46-12.75,6.76-1.54-.17-4.52-1.7-5.38-1.49-3.11.76-7.27,5.28-11.62,5.86-5.33.72-9.95-2.41-10.55-7.92-.15-1.33.66-3.89.51-4.03-.9-.86-3.42,1.66-4.21,2.05-1.11.55-3.13.69-3.96,1.49s-1.26,3.63-2.07,5.02c-1.95,3.33-9.17,7.19-12.92,7.29-6.46.18-7.51-7.04-2.98-10.66,1.83-1.46,9.48-3.69,9.79-4.12.7-.97-2.55-2.87-3.19-3.62-5.29-6.25,0-10.37,5.2-13.72,2.49-1.6,11.52-7.27,13.75-4.15,1.02,1.42.66,3.09-.54,4.28-2.54,2.53-17.52,5.07-14.96,10.66.58,1.25,3.11,2.56,4.12,3.56.62.62.14,1.56,1.24,1.29s11.13-5.45,11.86-6.17c2.33-2.32,3.9-9.99,7.61-14.2,2.83-3.21,6.33-6.39,10.73-4.22,6.58,3.25-.04,11.97-3.65,15.12-2.07,1.81-8.91,5.57-9.75,7.15-.63,1.19-1.56,6.33-.91,7.32.7,1.06,4.74,1.22,6.03,1.08,6.58-.72,10.25-10.12,14.72-14.18,1.87-1.7,5.26-4.27,7.39-5.7,2.54-1.69,8.02-5.18,10.87-4.43,7.79,2.02,4.1,7.38,3.31,12.62-.23,1.54-.48,12.29-.05,12.76.49.54,11.22-6.53,12.71-7.19,2.06-.91,7.22-3.38,6.84.58-6.57,3.95-12.81,8.28-18.73,13.16-.3,5.32-.8,10.66-2.17,15.83-2.29,8.59-6.33,18.63-13.35,24.28-4.06,3.27-9.57,5.86-10.37-1.65-1-9.34,7.13-26.09,13.1-33.26,1.01-1.21,5.98-5.56,5.98-6.56v-11.73ZM359.19,143.52c-.58-.63-3.9,3.01-4.34,3.56-1.04,1.28-2.44,2.91-2.47,4.61,1.67-.54,8.33-6.51,6.82-8.17ZM383.17,151.7c-.53-.56-6.69,2.79-7.64,3.53-2.23,1.72-12.06,12.52-3.92,10.3,3.3-.9,13.7-11.55,11.56-13.83ZM383.17,185.52c-.63-.71-1.44.88-1.75,1.24-3.57,4.14-11.54,18.44-11.68,23.66-.06,2.07.73,3.5,2.55,1.56.67-.71,3.61-5.06,4.24-6.12,2.53-4.24,5-10.47,5.97-15.3.13-.66.84-4.86.67-5.05Z"/>
  <path class="cls-1" d="M240.8,71.96c.42-.25,3.16-4.74,3.92-5.62,1.61-1.87,8.91-8.38,11.19-5.22,1.62,2.24-3.43,3.71-4.39,4.38-2.35,1.65-7.24,7.73-6.84,10.63.25,1.78,4.7,3.21,6.21,4.19,3.05,1.98,9.09,5.79,11.48,8.15,2.54,2.5,3.08,4.44,1.1,7.53s-4.36,3.33-7.49,1.59c-2.93-1.64-8.06-6.28-10.99-8.64-.88-.71-2.64-2.99-3.29-3.26-.91-.38-.74.37-.93.69-2.99,5.06-2.66,7.9-8.78,10.86s-9.78,3.69-15.47,0c-7.54-4.88-5.61-12.33-4.4-19.89l7.92-17.68c-2.14-6.41-6.82-12.68-7.49-19.54-.28-2.87-.16-10.59,1.15-13.02.3-.56,4.77-4.82,5.36-5.01,3.47-1.1,8.68,1.96,10.28,5.04,2.27,4.37.96,12.88-.06,17.74-.58,2.76-3.92,11.35-3.55,13.13.49,2.39,6.03,6.84,7.8,8.58,1.32,1.29,4.86,6.78,7.27,5.35ZM220.51,26.31c-2.32.55-3.2,10.5-3.04,12.75.15,2.06,3.61,13.33,5.17,13.36,1.9.03,5.19-20.31,2.47-23.73-.59-.74-3.76-2.57-4.59-2.37ZM223.72,64.44c-2.7,6.07-12.97,23.94-4.24,28.23,3.89,1.91,8.1-2.17,12.12-2.89,1.66-1.03,5.34-6.31,5.47-8.2.18-2.59-5.32-6.6-7.07-8.7-.99-1.18-5.52-8.43-6.28-8.43Z"/>
  <path class="cls-1" d="M139.12,132.78c4.21-3.9,7.09,2.3,9.88,2.03,1.63-.15,6.67-5.76,8.75-1.1,1.86,4.18-5.17,12.33-8.46,14.42s-4.41.09-6.5-2.17c-2.91-3.13-7.81-9.35-3.66-13.18Z"/>
  <path class="cls-2" d="M175.21,159.88c.35.18.35.36,0,.55v-.55Z"/>
</svg>