<?xml version="1.0" encoding="UTF-8"?>
<svg xmlns="http://www.w3.org/2000/svg" viewBox="0 0 984.68 1068.63">
  <defs>
    <style>
      .cls-1 {
        fill: #b40000;
      }

      .cls-2 {
        fill: #fff;
      }
    </style>
  </defs>
  <g id="Layer_2">
    <g>
      <path class="cls-1" d="M892.34,318.34c-1.57,3-2.94,6.14-4.76,8.99-4.83,7.57-9.78,15.07-14.89,22.45-.7,1.01-2.99,1.98-3.93,1.57-6.48-2.82-12.92-5.8-19.11-9.2-2.85-1.57-1.71-4.21-.17-6.48,3.92-5.78,7.87-11.55,11.62-17.45,2.85-4.48,5.29-9.22,8.11-13.73,3.41-5.44,7.43-10.54,10.46-16.17,5.81-10.78,11.02-21.88,16.67-32.75,1.68-3.22,3.93-6.16,6.1-9.1.62-.83,1.82-1.54,2.86-1.71,6.49-1.07,16.63,5.95,16.82,12.54.38,13.26-.02,26.55-.27,39.83-.11,5.79-.62,11.57-.24,17.82,2.35-3.48,4.8-6.9,7.04-10.46,6-9.53,12.11-19.01,17.8-28.73,4.14-7.07,6.2-7.9,13.49-4,2.19,1.17,4.38,2.43,6.72,3.19,5.4,1.77,7.37,4.73,4.94,9.73-4.78,9.84-9.58,19.75-15.39,28.99-9.11,14.48-18.99,28.48-28.71,42.57-3.1,4.5-6.47,8.88-10.16,12.91-6.35,6.93-21.33,2.76-22.82-6.98-1.67-10.93-1.44-22.16-1.83-33.27-.12-3.4.45-6.83.7-10.24-.35-.11-.69-.22-1.04-.33ZM856.47,339.34c1.79.84,3.96,1.64,5.89,2.82,3.45,2.12,5.64,1.21,7.65-2.15,4.69-7.85,9.71-15.49,14.42-23.33,2.47-4.11,4.12-8.79,7.03-12.53,1.35-1.73,5.27-3.04,7.17-2.31,1.91.73,3.43,4.12,3.87,6.56.48,2.66-.61,5.57-.79,8.39-.87,13.37-4.61,26.63-1.37,40.16.91,3.81,2.22,7.07,6.47,7.84,3.91.71,6.04-1.84,8.03-4.72,12.85-18.6,25.96-37.02,38.55-55.79,4.47-6.65,7.75-14.1,11.68-21.39-4.22-2.06-7.42-3.62-9.99-4.87-5.92,8.71-11.45,16.92-17.06,25.08-6.02,8.77-11.99,17.59-18.29,26.16-1.12,1.53-4.2,3.07-5.62,2.54-1.57-.59-3.08-3.49-3.17-5.45-.18-3.95.76-7.93,1.01-11.91,1.1-17.73,2.17-35.46,3.12-53.2.29-5.4-2.64-8.27-7.56-8.77-17,28.93-33.91,57.69-51.05,86.85Z"/>
      <path class="cls-1" d="M57.32,321.46c10.89-6.93,10.71-7.09,2.98-16.93-4.79-6.1-10.13-11.76-15.28-17.57-1.62-1.83-1.82-8.24.2-9.99,4-3.45,8.24-6.64,12.42-9.88,3.63-2.82,6.59-1.87,9.43,1.49,10.73,12.7,21.46,25.4,32.41,37.9,9.62,10.98,19.47,21.76,29.34,32.51,4.72,5.14,6.52,11.76-.97,16.8-3.92,2.63-7.22,6.37-10.26,10.05-2.76,3.34-4.74,3.89-7.98.56-8.44-8.67-17.17-17.06-26.19-25.97-2.78,2.53-5.55,5.04-8.9,8.09,5.8,6.82,11.32,13.37,16.9,19.87,8.6,10.02,8.6,10.53-.9,19.58-2.88,2.74-5.57,5.75-8.8,7.99-1.23.85-4.41.66-5.52-.36-7.95-7.3-16.06-14.52-23.22-22.56-10.27-11.52-19.82-23.68-29.6-35.64-4.84-5.92-9.56-11.95-14.2-18.02-2.57-3.36-2.54-6.58.79-9.72,4.95-4.68,9.72-9.55,14.46-14.45,1.93-1.99,3.07-2.02,5.22.09,8.9,8.71,18.07,17.13,27.68,26.16ZM48.48,281.53c1.47,1.3,2.72,2.36,3.91,3.48,7.85,7.35,14.42,15.59,18.37,25.74,1.62,4.17.99,7.35-3,9.82-3.1,1.92-6.73,3.65-8.78,6.45-3.55,4.84-5.88,2.65-8.59-.35-7.79-8.6-15.57-17.22-22.99-25.43-4.92,4.67-9.93,9.42-15.13,14.37,1.91,2.14,3.55,4,5.2,5.84,11.22,12.48,22.51,24.91,33.66,37.46,8.14,9.17,16.02,18.58,24.23,27.69,1.11,1.23,4.25,2.39,5.12,1.76,3.69-2.67,6.87-6.04,10.24-9.15-5.86-6.75-11.38-12.75-16.48-19.08-7.25-9.01-6.74-13.31,1.73-20.97,1.84-1.67,3.43-3.62,5.24-5.33,1.98-1.88,3.96-2.26,5.93.21,2.9,3.63,5.74,7.34,8.94,10.69,5.44,5.7,11.15,11.14,16.72,16.66,5.18-4.79,9.64-8.93,13.74-12.72-21.69-25.64-43.25-51.14-64.9-76.74-4.55,3.32-8.65,6.31-13.16,9.59Z"/>
      <path class="cls-1" d="M410.02,221.89c-12,.89-11.91.89-12.25,12.29-.23,7.48-.77,14.95-1.18,22.43-.2,3.71-2.28,5.94-5.83,6.38-4.45.54-8.95.79-13.44.92-5.31.15-7.31-2.11-6.66-7.41,1.29-10.55,2.82-21.08,4-31.64,1.36-12.21,2.16-24.49,3.74-36.67,1.69-13.01,3.65-26.01,6.23-38.87,1.08-5.4,7.02-5.28,11.32-6.41,3.32-.87,6.22.64,6.99,4.03,3.57,15.64,14.85,27.39,20.83,41.84,5.01,12.12,11.24,23.74,16.65,35.7,3.27,7.24,6.04,14.72,8.95,22.12,1.17,2.98.53,5.1-2.46,7.11-6.26,4.21-13.24,5.13-20.4,5.61-4.89.32-6.68-3.22-7.79-7.01-2.51-8.61-4.76-17.29-7.15-25.93-.4-1.43-.95-2.82-1.53-4.5ZM441.71,249.1c-4.22-9.69-8.11-19.16-12.42-28.43-7.91-17.01-16.11-33.89-24.12-50.85-2.4-5.09-5.09-10.12-6.74-15.45-2.1-6.76-1.7-6.89-9.16-4.52-3.67,35.37-7.36,70.98-11.08,106.89,1.88,0,3.66-.12,5.43.02,5.07.41,6.83-1.59,6.82-6.89-.03-9.79.83-19.59,1.39-29.38.16-2.88.98-5.16,4.66-5.15,4.26.02,8.56-.04,12.78-.57,3.84-.48,6.06.78,7.1,4.45,2.14,7.5,4.42,14.95,6.49,22.46,3.2,11.61,4.89,12.52,16.51,8.5.46-.16.89-.41,2.35-1.09Z"/>
      <path class="cls-1" d="M477.51,196.59c4.32-8.75,8.51-17.56,12.98-26.22,3.95-7.65,8.1-15.21,12.45-22.64.77-1.31,2.88-2.21,4.53-2.55,3.24-.67,6.6-.79,9.9-1.17,6.13-.7,7.94.89,6.13,6.91-3.43,11.45-7.35,22.77-11.35,34.04-5.73,16.13-11.65,32.19-17.64,48.22-1.97,5.28-4.14,10.54-6.83,15.48-1.04,1.92-3.68,3.08-5.76,4.28-.92.53-2.28.33-3.44.37-11.6.4-13.02-.27-16.43-11.33-3.02-9.79-5.19-19.84-7.9-29.73-.92-3.35-2.57-6.51-3.47-9.87-3.43-12.8-6.76-25.63-9.98-38.49-1.52-6.09-2.68-12.27-4.05-18.4-.65-2.88.57-4.75,3.31-5.02,5.45-.54,10.94-1,16.4-.81,1.59.06,4.01,2.18,4.5,3.82,2.83,9.53,5.15,19.22,7.74,28.83,2.19,8.11,4.52,16.18,6.79,24.27l2.12.02ZM517.43,150.94c-.4-.54-.8-1.07-1.2-1.61-3.32,1.2-7.93,1.44-9.71,3.8-4.35,5.77-7.36,12.55-10.98,18.89-6.06,10.63-12.02,21.33-18.37,31.78-2.13,3.5-5.53,3.1-6.64-.52-2.96-9.66-5.91-19.34-8.27-29.16-1.86-7.74-2.68-15.73-4.36-23.52-.4-1.86-2.14-4.55-3.66-4.84-3.65-.71-7.52-.23-12.47-.23,1.14,4.48,1.94,8.13,3,11.7,5.38,18.14,10.86,36.24,16.25,54.38,3.12,10.49,6.01,21.06,9.35,31.48.49,1.54,2.73,3.16,4.43,3.56,4.43,1.04,8.03.09,9.26-5.3.73-3.2,2.68-6.12,3.46-9.32,4.2-17.22,11.83-33.13,18.34-49.48,4.15-10.42,7.72-21.07,11.56-31.62Z"/>
      <path class="cls-1" d="M669.17,231.51c-4.93,11-9.86,21.85-14.68,32.76-3.38,7.65-3.31,7.69-11.36,6.47-3.29-.5-6.62-.8-9.85-1.56-5.62-1.31-7.34-4.83-4.9-10.07,14.33-30.74,28.67-61.5,46.82-90.25,1.97-3.12,4.45-6.83,7.58-8.14,5.92-2.48,15.02,2.77,16.04,9.14,1.31,8.17,1.78,16.51,2.07,24.79.34,9.62-.07,19.26.13,28.89.35,16.62,1.08,33.24,1.3,49.87.08,5.79-2.14,7.37-7.85,6.92-3.81-.3-7.73-.34-11.34-1.39-1.89-.55-4.47-2.95-4.6-4.67-.86-11.09-1.36-22.22-1.5-33.35-.09-7.19.27-7.2-7.86-9.41ZM696.13,273.35c0-2.37.08-4.15-.01-5.92-.89-18.25-1.88-36.49-2.68-54.74-.24-5.47.22-10.98.06-16.46-.23-7.95-.46-15.92-1.32-23.82-.2-1.86-2.67-4.33-4.59-4.9-1.84-.55-4.79.4-6.39,1.74-2.08,1.73-3.64,4.33-4.84,6.83-10.03,20.81-19.92,41.69-29.87,62.54-3.77,7.9-7.58,15.79-11.61,24.18,2.05.4,3.81.65,5.53,1.08,5.15,1.31,7.97-.42,10.02-5.59,4.08-10.32,8.87-20.38,13.7-30.38.71-1.47,3.3-2.87,5.04-2.89,12.74-.12,15.19,2.83,14.82,15.49-.26,8.8.04,17.63.55,26.42.12,2.01,1.65,4.79,3.33,5.64,2.14,1.08,5.09.57,8.27.78Z"/>
      <path class="cls-1" d="M832.97,307.19c4.58,2.46,8.68,4.6,12.73,6.84,5.17,2.86,6.22,6.91,3.21,12.11-.92,1.58-1.94,3.11-2.76,4.74-2.8,5.58-6.28,6.29-11.46,2.96-6.79-4.37-13.71-8.59-20.84-12.38-6.91-3.67-8.13-5.83-4.75-12.97,6.89-14.55,14.18-28.91,20.97-43.51,5.62-12.05,10.7-24.35,16.15-36.48,3.26-7.27,4.48-7.54,11.77-4.33,8.05,3.54,16.14,6.99,24.3,10.25,3.83,1.53,5.19,3.88,3.87,7.78-1.12,3.31-2.12,6.67-3.37,9.93-2.02,5.32-5.74,7.11-11.03,5.17-4.17-1.53-8.22-3.4-12.76-5.3-1.22,3.64-2.3,6.89-3.51,10.51,2.64,1.31,5.27,2.6,7.89,3.9,3.46,1.72,3.89,4.16,1.9,7.35-1.75,2.82-3.5,5.66-4.96,8.63-1.66,3.41-3.82,3.68-6.84,1.84-9.44-5.74-9.67-5.47-13.13,5.04-2.01,6.09-4.88,11.91-7.39,17.93ZM844.56,320.93c-5.38-2.7-10.01-5.21-14.8-7.38-3.43-1.55-5.26-3.92-3.82-7.46,4.05-9.98,8.35-19.86,12.69-29.71,1.55-3.51,4.47-4.21,7.92-2.89,2.89,1.11,5.75,2.31,8.75,3.51,1.05-1.99,1.95-3.7,3.13-5.94-2.38-.78-4.36-1.51-6.38-2.08-4.97-1.41-5.84-3.33-3.87-8.04,1.34-3.19,2.49-6.48,3.53-9.78,2.38-7.58,4.3-8.57,11.6-5.5,4.06,1.7,8.05,3.56,12.48,5.53,1.1-3.63,2-6.57,2.83-9.28-8.95-4.42-17.37-8.57-25.93-12.79-11.98,28.43-21.67,57.73-37,84.27,8.53,4.69,16.46,9.05,24.76,13.61.92-1.35,2.2-3.24,4.13-6.06Z"/>
      <path class="cls-1" d="M732.95,192.97c-4.41,0-7.86-.08-11.3.02-3.47.1-5.88-1.41-5.28-4.9.95-5.52,2.41-10.99,4.23-16.28.37-1.07,3.42-1.98,5.04-1.72,17.3,2.78,34.01,7.62,49.92,15.05,4.41,2.06,5.31,5.94,3.13,12.54-1.95,5.91-3.43,6.88-8.95,5.88-2.46-.44-4.92-.85-7.38-1.27-6.15-1.05-7.54-.06-8.94,6.21-2.89,12.97-5.81,25.93-8.74,38.89-2.71,12-5.52,23.97-8.15,35.99-.94,4.28-3.3,5.85-7.54,5.06-3.27-.61-6.58-.96-9.87-1.5-5.33-.88-7.89-3.36-7.53-8.74.28-4.23,1.71-8.4,2.83-12.54,4.88-17.97,9.94-35.88,14.71-53.88,1.56-5.88,2.44-11.93,3.81-18.79ZM730.06,281.14c2.79-11.86,5.48-23.48,8.25-35.08,3.74-15.64,7.6-31.25,11.28-46.9.98-4.18,3.55-5.31,7.36-4.66,3.44.59,6.86,1.31,10.3,1.9,2.15.37,4.63,1.78,5.58-1.87.91-3.51-1.71-3.92-3.85-4.55-12.87-3.8-25.74-7.62-38.67-11.2-7.1-1.97-8.29-.73-7.53,7.17,3.86.4,7.83.56,11.7,1.29,3.58.67,5.95,2.51,5.26,6.94-4.05,25.69-11.14,50.62-18.61,75.45-3.3,10.96-3.42,11.08,8.94,11.52Z"/>
      <path class="cls-1" d="M642.07,204.08c-.7,16.38-5.4,31.27-16.34,43.84-12.57,14.45-28.81,18.8-47.18,17.15-4.57-.41-5.45-3.53-4.81-7.6,1.7-10.82,3.29-21.66,4.91-32.49,3.31-22.16,6.63-44.33,9.88-66.5,1.54-10.46,3.71-11.47,14.1-8.88,12.4,3.09,21.69,10.75,30.21,19.4,8.68,8.81,9.65,20.39,9.44,32.08-.02,1-.13,1.99-.21,2.99ZM595.79,155.99c-4.96,34.5-9.83,68.4-14.75,102.7,15.34.78,28.28-3.46,38.6-14.47,12.3-13.12,15.93-29.11,14.86-46.53-.26-4.28-.23-8.75-1.53-12.75-4.28-13.24-15.1-20.09-26.82-25.7-3.35-1.6-7.15-2.28-10.36-3.26Z"/>
      <path class="cls-1" d="M312.73,235.32c-.9,23.41-10.88,39.75-29.96,50.4-4.04,2.25-8.47,3.81-12.73,5.64-4.1,1.76-7.36.52-9.08-3.43-3.63-8.36-7.22-16.75-10.3-25.32-6.01-16.71-11.71-33.53-17.42-50.34-1.65-4.87-2.8-9.9-4.34-14.81-1.14-3.64-.02-5.46,3.71-6.51,9.96-2.8,19.91-1.34,29.67.36,9.45,1.65,18.82,4.18,27.95,7.2,10.8,3.57,16.14,12.88,20.1,22.62,1.95,4.79,1.82,10.42,2.41,14.2ZM234.9,197.62c1.48,4.56,2.21,7.09,3.12,9.55,6.34,17.13,12.68,34.26,19.08,51.36,2.68,7.15,5.67,14.2,8.2,21.4,1.69,4.8,4.37,4.81,8.35,2.88,6.79-3.28,12.75-7.42,18.22-12.76,13.65-13.33,16.51-29.46,11.66-46.75-2.27-8.1-8.08-15.52-17.1-18.05-9.09-2.55-18.39-4.56-27.73-6.01-7.4-1.15-14.99-1.08-23.82-1.63Z"/>
      <path class="cls-1" d="M825.21,234.05c-.99,5.85-1.46,10.48-2.6,14.94-3.99,15.71-10.1,30.59-18.04,44.71-5.5,9.77-13.96,14.43-22.71,12.44-11.16-2.54-20.41-12.34-20.73-22.78-.19-6.12.61-12.27,1.09-18.4.62-7.79,1.49-15.57,2.03-23.37.99-14.46,9.36-23.7,21.21-30.57,2.73-1.58,5.64-2.89,8.29-4.61,12.13-7.86,21.07-1.89,26.05,9.1,2.75,6.07,3.83,12.89,5.42,18.54ZM802.26,208.07c-5.89,4.19-12,8.46-18.02,12.84-7.11,5.18-11.12,12.13-11.82,20.98-.63,7.94-1.45,15.87-2.08,23.82-.42,5.29-1.05,10.61-.91,15.89.19,7.55,6.91,14.82,14.48,16.45,5.52,1.18,10.43-2.31,14.45-9.83,7.39-13.82,13.4-28.17,16.84-43.49.65-2.87.92-5.91.83-8.85-.35-10.91-3.84-20.43-13.76-27.81Z"/>
      <path class="cls-1" d="M186.42,209.52c2.39,2.36,4.85,3.86,5.95,6.04,4.26,8.46,8.1,17.13,12.06,25.74,4.16,9.05,8.34,18.09,12.39,27.19,1.36,3.05,3.31,3.74,6.32,2.57,3.87-1.5,7.82-2.81,11.73-4.22,4.42-1.59,7.58-.59,9.87,3.86,2.2,4.26,5.02,8.21,7.61,12.27,2.09,3.28,2.41,6.24-1.47,8.41-3.46,1.93-6.86,4.07-10.5,5.58-8.72,3.63-17.61,6.84-26.35,10.43-3.57,1.47-6.45.7-8.21-2.37-3.37-5.89-6.4-11.98-9.4-18.08-4.32-8.79-8.62-17.59-12.68-26.49-5.5-12.07-10.81-24.23-16.05-36.42-.41-.96-.08-3.08.63-3.53,5.64-3.64,11.45-7,18.09-10.98ZM173.95,222.51c5.19,11.67,10.07,23.09,15.33,34.33,6.38,13.67,13.08,27.19,19.63,40.78,1.08,2.24,2.22,3.19,5.04,2,8.7-3.67,17.58-6.93,26.37-10.41,2.07-.82,4.05-1.87,6.22-2.89-3.01-4.8-5.64-8.99-8.38-13.36-5.85,2.05-11.58,3.76-17.05,6.06-3.92,1.65-6.26.95-7.94-2.93-6.9-15.99-13.87-31.95-20.81-47.92-1.62-3.72-3.25-7.44-4.85-11.11-5.04,2.02-9.43,3.78-13.55,5.44Z"/>
      <path class="cls-1" d="M135.73,248.82c14.54,1.35,26.78,6.28,36.07,18.78,7.72,10.38,10.66,21.87,10.86,33.97.18,11.04-2.95,21.72-11.42,29.89-6.96,6.72-24.61,7.19-32.64.22-14.28-12.4-23.3-27.99-26.18-46.83-1.69-11.07,1.95-21.24,7.43-30.39,3.17-5.29,9.87-5.43,15.89-5.64ZM156.07,329.09c5.96.45,11.36-2.49,13.94-8.68,2.39-5.73,4.89-12.07,4.75-18.08-.4-18.55-6.31-34.52-24.95-42.8-7.41-3.29-14.98-4.7-22.67-1.71-2.24.87-4.8,3.27-5.43,5.48-2.04,7.15-3.56,14.45-1.84,22.08,3.36,14.84,10.46,27.49,21.28,38.12,3.87,3.8,8.52,5.62,14.9,5.59Z"/>
      <path class="cls-2" d="M856.47,339.34c17.14-29.17,34.05-57.93,51.05-86.85,4.93.5,7.85,3.37,7.56,8.77-.95,17.74-2.02,35.47-3.12,53.2-.25,3.98-1.19,7.96-1.01,11.91.09,1.96,1.6,4.86,3.17,5.45,1.41.52,4.49-1.02,5.62-2.54,6.31-8.57,12.27-17.38,18.29-26.16,5.6-8.16,11.14-16.37,17.06-25.08,2.57,1.25,5.77,2.81,9.99,4.87-3.93,7.29-7.21,14.74-11.68,21.39-12.6,18.77-25.7,37.19-38.55,55.79-1.99,2.89-4.12,5.43-8.03,4.72-4.25-.77-5.56-4.03-6.47-7.84-3.24-13.54.5-26.8,1.37-40.16.18-2.82,1.27-5.73.79-8.39-.44-2.45-1.97-5.83-3.87-6.56-1.9-.73-5.82.58-7.17,2.31-2.91,3.74-4.56,8.42-7.03,12.53-4.71,7.83-9.73,15.48-14.42,23.33-2.01,3.36-4.2,4.27-7.65,2.15-1.93-1.19-4.1-1.98-5.89-2.82Z"/>
      <path class="cls-2" d="M48.48,281.53c4.51-3.29,8.61-6.27,13.16-9.59,21.65,25.6,43.21,51.1,64.9,76.74-4.1,3.79-8.56,7.93-13.74,12.72-5.57-5.52-11.27-10.96-16.72-16.66-3.2-3.35-6.04-7.06-8.94-10.69-1.97-2.46-3.95-2.08-5.93-.21-1.81,1.71-3.4,3.66-5.24,5.33-8.47,7.66-8.98,11.96-1.73,20.97,5.1,6.33,10.62,12.33,16.48,19.08-3.36,3.11-6.55,6.47-10.24,9.15-.88.63-4.02-.53-5.12-1.76-8.21-9.11-16.09-18.52-24.23-27.69-11.15-12.55-22.43-24.98-33.66-37.46-1.66-1.84-3.3-3.7-5.2-5.84,5.21-4.94,10.21-9.7,15.13-14.37,7.42,8.21,15.2,16.83,22.99,25.43,2.71,3,5.04,5.19,8.59.35,2.05-2.8,5.68-4.53,8.78-6.45,3.99-2.47,4.62-5.66,3-9.82-3.95-10.15-10.52-18.39-18.37-25.74-1.19-1.12-2.44-2.18-3.91-3.48Z"/>
      <path class="cls-2" d="M441.71,249.1c-1.46.68-1.89.93-2.35,1.09-11.61,4.02-13.3,3.11-16.51-8.5-2.07-7.51-4.35-14.97-6.49-22.46-1.05-3.67-3.27-4.93-7.1-4.45-4.22.53-8.52.59-12.78.57-3.67-.02-4.49,2.26-4.66,5.15-.55,9.79-1.41,19.59-1.39,29.38.01,5.29-1.75,7.3-6.82,6.89-1.77-.14-3.55-.02-5.43-.02,3.72-35.91,7.41-71.52,11.08-106.89,7.46-2.36,7.06-2.24,9.16,4.52,1.66,5.34,4.34,10.37,6.74,15.45,8.01,16.96,16.2,33.84,24.12,50.85,4.31,9.27,8.21,18.74,12.42,28.43ZM391.94,190.95c.89,13.93,1.21,14.23,13.72,12.48,4.87-.68,6.68-2.51,5.01-7.41-2.65-7.79-6.27-15.26-9.76-22.73-.52-1.12-2.75-2.29-3.89-2.04-1.13.24-2.42,2.15-2.68,3.51-1.01,5.36-1.64,10.78-2.41,16.19Z"/>
      <path class="cls-2" d="M517.43,150.94c-3.83,10.55-7.41,21.2-11.56,31.62-6.51,16.35-14.14,32.26-18.34,49.48-.78,3.2-2.73,6.12-3.46,9.32-1.23,5.38-4.83,6.34-9.26,5.3-1.7-.4-3.94-2.02-4.43-3.56-3.34-10.42-6.23-20.99-9.35-31.48-5.39-18.13-10.87-36.24-16.25-54.38-1.06-3.57-1.86-7.22-3-11.7,4.95,0,8.83-.48,12.47.23,1.52.3,3.26,2.98,3.66,4.84,1.68,7.79,2.49,15.78,4.36,23.52,2.36,9.82,5.3,19.5,8.27,29.16,1.11,3.62,4.51,4.02,6.64.52,6.35-10.46,12.3-21.15,18.37-31.78,3.62-6.34,6.62-13.12,10.98-18.89,1.78-2.36,6.39-2.6,9.71-3.8.4.54.8,1.07,1.2,1.61Z"/>
      <path class="cls-2" d="M696.13,273.35c-3.18-.21-6.13.31-8.27-.78-1.68-.85-3.22-3.63-3.33-5.64-.51-8.79-.81-17.62-.55-26.42.37-12.66-2.08-15.61-14.82-15.49-1.73.02-4.32,1.41-5.04,2.89-4.84,10-9.62,20.06-13.7,30.38-2.05,5.17-4.87,6.9-10.02,5.59-1.71-.44-3.48-.69-5.53-1.08,4.03-8.39,7.84-16.27,11.61-24.18,9.95-20.85,19.84-41.73,29.87-62.54,1.21-2.5,2.76-5.1,4.84-6.83,1.6-1.33,4.55-2.29,6.39-1.74,1.91.57,4.38,3.04,4.59,4.9.86,7.89,1.09,15.87,1.32,23.82.16,5.48-.3,10.98-.06,16.46.79,18.25,1.79,36.49,2.68,54.74.09,1.78.01,3.56.01,5.92ZM687.27,210.46c-.31-.18.35-2.96.04-3.14-.69-6.09-.75-12.41-1.75-18.45-.23-1.4-1.91-3.22-3.26-3.58-1.09-.29-3.48,1-3.93,2.14-2.76,6.9-5.22,13.92-7.53,20.99-.38,1.18.16,3.77.85,4,4.26,1.43,8.68,3.08,13.04,3.05,1.34,0,1.22-2.26,2.54-5Z"/>
      <path class="cls-2" d="M844.56,320.93c-1.92,2.82-3.21,4.71-4.13,6.06-8.29-4.56-16.23-8.92-24.76-13.61,15.33-26.54,25.02-55.84,37-84.27,8.55,4.22,16.97,8.37,25.93,12.79-.83,2.71-1.72,5.66-2.83,9.28-4.43-1.97-8.42-3.83-12.48-5.53-7.3-3.06-9.22-2.08-11.6,5.5-1.04,3.31-2.19,6.59-3.53,9.78-1.97,4.72-1.1,6.64,3.87,8.04,2.02.57,4,1.3,6.38,2.08-1.18,2.24-2.08,3.95-3.13,5.94-3-1.21-5.86-2.4-8.75-3.51-3.45-1.33-6.38-.62-7.92,2.89-4.34,9.86-8.64,19.74-12.69,29.71-1.44,3.54.4,5.9,3.82,7.46,4.79,2.17,9.43,4.68,14.8,7.38Z"/>
      <path class="cls-2" d="M730.06,281.14c-12.36-.44-12.24-.56-8.94-11.52,7.48-24.83,14.57-49.76,18.61-75.45.7-4.43-1.68-6.27-5.26-6.94-3.87-.73-7.84-.89-11.7-1.29-.76-7.89.43-9.13,7.53-7.17,12.93,3.59,25.8,7.4,38.67,11.2,2.14.63,4.76,1.05,3.85,4.55-.95,3.65-3.42,2.24-5.58,1.87-3.44-.59-6.86-1.31-10.3-1.9-3.81-.65-6.38.48-7.36,4.66-3.68,15.65-7.54,31.26-11.28,46.9-2.77,11.6-5.47,23.22-8.25,35.08Z"/>
      <path class="cls-2" d="M595.79,155.99c3.21.98,7.01,1.66,10.36,3.26,11.72,5.6,22.54,12.46,26.82,25.7,1.29,4,1.26,8.47,1.53,12.75,1.07,17.41-2.56,33.41-14.86,46.53-10.32,11.01-23.26,15.24-38.6,14.47,4.93-34.3,9.8-68.2,14.75-102.7ZM623.64,205.7c.12-10.02-7.72-21.94-14.62-24.83-4.53-1.89-6.49-.59-6.82,4.04-.23,3.28-1.05,6.52-1.6,9.77-2,11.94-4.32,23.83-5.87,35.82-.93,7.24,2.86,9.58,9.37,6.24,13.63-6.99,17.88-19.58,19.53-31.05Z"/>
      <path class="cls-2" d="M234.9,197.62c8.83.55,16.42.49,23.82,1.63,9.33,1.44,18.63,3.45,27.73,6.01,9.01,2.53,14.83,9.96,17.1,18.05,4.84,17.29,1.99,33.41-11.66,46.75-5.47,5.34-11.44,9.48-18.22,12.76-3.98,1.92-6.66,1.92-8.35-2.88-2.54-7.2-5.52-14.25-8.2-21.4-6.4-17.1-12.75-34.23-19.08-51.36-.91-2.47-1.64-5-3.12-9.55ZM263.86,216.2c-2.09.95-4.79,1.38-6.14,2.96-2.46,2.87.92,4.08,2.47,5.83.7.79.85,2.12,1.13,3.23,2.31,9.29,4.39,18.65,7.06,27.84.5,1.72,3.41,3.98,5.12,3.91,7.91-.35,17.03-11.68,16.52-19.77-.92-14.38-10.22-22.75-26.15-24Z"/>
      <path class="cls-2" d="M802.26,208.07c9.92,7.38,13.42,16.91,13.76,27.81.09,2.94-.18,5.98-.83,8.85-3.45,15.32-9.45,29.67-16.84,43.49-4.02,7.52-8.93,11.02-14.45,9.83-7.58-1.62-14.29-8.9-14.48-16.45-.14-5.29.49-10.6.91-15.89.64-7.94,1.45-15.87,2.08-23.82.7-8.85,4.72-15.8,11.82-20.98,6.02-4.39,12.13-8.65,18.02-12.84ZM806.76,247.86c-1.27-3.83-1.95-8.02-3.97-11.42-2.58-4.34-5.29-4.31-9.49-1.35-14.75,10.4-14.77,22.81-12.64,35.59.43,2.55,4.35,5.28,7.26,6.46,3.31,1.35,7,.11,9.06-3.39,4.66-7.92,8.71-16.08,9.79-25.91Z"/>
      <path class="cls-2" d="M173.95,222.51c4.12-1.65,8.51-3.41,13.55-5.44,1.6,3.66,3.23,7.38,4.85,11.11,6.95,15.97,13.91,31.93,20.81,47.92,1.67,3.88,4.02,4.58,7.94,2.93,5.48-2.31,11.2-4.02,17.05-6.06,2.75,4.37,5.37,8.56,8.38,13.36-2.17,1.01-4.15,2.07-6.22,2.89-8.79,3.48-17.67,6.73-26.37,10.41-2.81,1.19-3.96.24-5.04-2-6.55-13.59-13.25-27.11-19.63-40.78-5.25-11.24-10.13-22.66-15.33-34.33Z"/>
      <path class="cls-2" d="M156.07,329.09c-6.38.03-11.03-1.79-14.9-5.59-10.82-10.63-17.92-23.28-21.28-38.12-1.73-7.63-.21-14.92,1.84-22.08.63-2.21,3.19-4.61,5.43-5.48,7.69-2.99,15.26-1.58,22.67,1.71,18.64,8.28,24.54,24.25,24.95,42.8.13,6.01-2.37,12.35-4.75,18.08-2.58,6.19-7.98,9.13-13.94,8.68ZM163.39,295.86c-.17-1-.24-2.88-.83-4.58-3.04-8.72-18.18-17.52-25.12-17.33-1.49.04-3.7,2.47-4.22,4.21-2.64,8.77.51,17.01,2.97,25.27,2.43,8.17,9.63,12.87,18.09,12,4.6-.48,7.43-2.74,8.02-7.36.48-3.78.69-7.6,1.1-12.22Z"/>
      <path class="cls-1" d="M391.94,190.95c.77-5.4,1.4-10.83,2.41-16.19.26-1.36,1.55-3.26,2.68-3.51,1.14-.25,3.37.92,3.89,2.04,3.49,7.47,7.1,14.94,9.76,22.73,1.67,4.9-.14,6.73-5.01,7.41-12.52,1.75-12.83,1.45-13.72-12.48ZM406.2,197.77c-2.6-5.91-4.83-10.98-7.06-16.06-.65.17-1.3.34-1.96.51.5,5.26,1,10.51,1.53,16.1,2.67-.2,4.55-.33,7.49-.55Z"/>
      <path class="cls-1" d="M687.1,211.91c-1.32,2.74-1.03,3.53-2.37,3.54-4.36.03-8.78-1.62-13.04-3.05-.69-.23-1.23-2.82-.85-4,2.31-7.07,4.77-14.09,7.53-20.99.45-1.13,2.84-2.43,3.93-2.14,1.35.36,3.03,2.18,3.26,3.58.99,6.04,1.3,12.25,1.99,18.34.2,1.22-.18,3.46-.46,4.71ZM676.57,208.91c1.99.26,3.53.46,5.47.72-.54-4.88-.99-8.87-1.43-12.86-.45-.03-.9-.05-1.35-.08-.85,3.88-1.71,7.77-2.69,12.22Z"/>
      <path class="cls-1" d="M623.64,205.7c-1.64,11.46-5.89,24.06-19.53,31.05-6.52,3.34-10.31,1-9.37-6.24,1.55-11.99,3.87-23.89,5.87-35.82.55-3.26,1.37-6.49,1.6-9.77.33-4.64,2.29-5.94,6.82-4.04,6.89,2.88,14.74,14.81,14.62,24.83ZM601.87,229.24c.46.19.92.38,1.38.58,7.75-5.86,11.25-14.33,12.88-23.74,1.36-7.87-4.11-12.21-9.73-17.72-1.59,14.37-3.06,27.63-4.53,40.88Z"/>
      <path class="cls-1" d="M263.86,216.2c15.94,1.25,25.24,9.61,26.15,24,.52,8.1-8.61,19.42-16.52,19.77-1.71.08-4.62-2.18-5.12-3.91-2.67-9.19-4.75-18.55-7.06-27.84-.28-1.11-.42-2.45-1.13-3.23-1.55-1.74-4.93-2.96-2.47-5.83,1.36-1.58,4.05-2.01,6.14-2.96ZM274.16,251.84c6.68-2.81,9.69-8.96,8.17-15.57-1.47-6.43-8.4-11.19-17.03-10.71,3.02,8.96,5.93,17.59,8.85,26.28Z"/>
      <path class="cls-1" d="M806.76,247.86c-1.07,9.83-5.12,17.99-9.79,25.91-2.05,3.49-5.75,4.74-9.06,3.39-2.91-1.18-6.83-3.91-7.26-6.46-2.13-12.78-2.12-25.19,12.64-35.59,4.2-2.96,6.91-2.99,9.49,1.35,2.02,3.39,2.7,7.58,3.97,11.42ZM786.2,260.35c.29,2.46.42,4.96.97,7.36.21.93,1.25,1.98,2.16,2.33.54.21,1.94-.62,2.32-1.32,4.09-7.63,7.84-15.42,6.41-24.47-.2-1.25-1.32-2.7-2.43-3.31-.51-.28-2.32,1.01-3.02,1.97-3.77,5.17-6.64,10.72-6.41,17.43Z"/>
      <path class="cls-1" d="M163.39,295.86c-.4,4.62-.61,8.43-1.1,12.22-.59,4.62-3.42,6.88-8.02,7.36-8.46.87-15.66-3.83-18.09-12-2.46-8.26-5.61-16.51-2.97-25.27.52-1.74,2.73-4.17,4.22-4.21,6.93-.19,22.07,8.61,25.12,17.33.59,1.69.66,3.57.83,4.58ZM137.04,280.04c.25,3.32.06,5.13.55,6.73,1.72,5.56,3.01,11.43,5.82,16.41,1.46,2.59,5.72,3.71,8.9,5.09.53.23,2.56-1.46,2.91-2.57,2.69-8.48.98-13.8-6.38-19.09-3.18-2.28-6.86-3.86-11.8-6.57Z"/>
    </g>
  </g>
  <g id="Layer_1">
    <g>
      <path class="cls-1" d="M526.7,704.92c9.68-9.32,21-11.66,32.09-14.65,4.79-1.29,9.35-3.42,14.14-4.67,2.06-.53,4.46.21,6.7.38-.65,2.36-.58,5.96-2.1,6.85-4.66,2.74-9.85,4.67-14.99,6.49-6.11,2.16-12.47,3.61-18.55,5.85-11.76,4.34-16.2,15.67-11.27,27.19,1.26,2.96,2.08,6.36,2.05,9.55-.04,3.67-3.81,5.35-6.37,2.76-2.7-2.72-5.4-6.22-6.26-9.82-2.16-9.03-3.29-18.32-4.81-27.5-.21-1.26-.34-2.53-1.56-4.17-2.34,4.82-4.87,9.55-6.97,14.47-3.8,8.88-8.72,16.73-16.8,22.49-12.15,8.66-28.18,3.8-32.69-10.54-1.47-4.67-1.62-9.75-2.35-14.64-.19-1.27-.29-2.55-.46-4-11.18,1.54-21.89,1.02-32.38-2.2-3.3-1.01-4.73.17-5.52,3.5-1.74,7.28-3.86,14.47-5.89,21.68-.49,1.76-.77,3.91-1.95,5.05-1.6,1.55-3.96,2.3-6,3.4-.99-2.05-3.11-4.31-2.77-6.1,1.05-5.52,3.03-10.87,4.67-16.27,1.14-3.75,2.34-7.49,3.15-11.63-8.93,6.91-18.2,10.3-29.62,4.37-1.73,9.79-3.62,18.99-4.95,28.28-2.92,20.4-5.42,40.86-8.41,61.24-.51,3.49-2.4,6.85-4.03,10.08-2.22,4.39-6.03,6.07-10.85,5.09-4.86-.99-8.73-3.86-8.91-8.82-.25-6.75-.4-13.89,1.46-20.25,7.01-23.91,14.86-47.58,22.38-71.35.13-.42.02-.93.02-1.94-6.45,5.77-12.57,11.23-18.66,16.71-6.43,5.79-12.79,11.67-19.26,17.41-4.14,3.68-9.03,3.13-13.68,1.53-4.6-1.58-6.71-5.46-6.6-10.19.15-6.12.72-12.23.31-19.06-3.57,4.22-7.13,8.45-10.71,12.67-6.55,7.72-12.76,15.76-19.76,23.04-5.47,5.69-5.96,12.79-7.52,19.66-3.58,15.86-6.54,31.87-10.6,47.61-3.19,12.36-7.15,24.59-11.77,36.49-2.23,5.74-6.34,10.94-10.4,15.71-4.17,4.89-10.57,5.61-16.56,5.31-5.57-.27-9.14-6.07-9.04-12.43.32-22.33,7.71-42.35,20.03-60.65,7.05-10.48,14.31-20.85,22.14-30.75,5.29-6.69,8.53-13.77,8.95-22.24.22-4.4.65-8.79,1.1-14.59-3,3.44-5.12,5.93-7.3,8.36-7.12,7.93-15.73,12.46-26.68,11.89-5.9-.31-9.49-3.63-9.76-9.63-.48-10.69,3.35-19.82,10.34-27.72,8.47-9.59,18.94-16.04,31.2-19.67,9.38-2.78,14.44.52,14.26,10.03-.2,9.96-1.09,19.9-1.58,29.85-.09,1.93.27,3.88.43,5.82.58.4,1.16.8,1.74,1.2,2.38-2.91,4.78-5.79,7.12-8.73,7.04-8.85,14.12-17.67,21.06-26.6,2.02-2.6,3.43-5.69,5.52-8.23,1.18-1.44,3.17-2.22,4.8-3.29.84,1.78,2.5,3.61,2.37,5.32-.6,7.95-1.73,15.86-2.6,23.8-.2,1.81-.37,3.67-.19,5.47.5,5.27,4.97,7.46,8.77,3.87,15.12-14.27,30.32-28.49,44.64-43.54,3.61-3.79,4.64-10.45,5.86-16.02,2.12-9.72,3.25-19.65,5.22-29.41,1.18-5.83,4.3-10.44,10.69-11.93,3.57-.83,6.23.24,8.08,3.33,3.53,5.87,3.85,12.04,1.07,18.2-4.32,9.55-8.88,19-13.35,28.48-.78,1.66-1.67,3.26-2.41,4.94-3.48,7.9-.32,12.4,8.41,11.24,8.17-1.08,13.47-6.65,18-13.1,1.17-1.66,2.85-2.96,4.24-4.48.96-1.05,2.15-2.05,2.67-3.31,1.98-4.76,3.67-9.65,5.58-14.44.67-1.68,1.29-3.76,2.62-4.71,1.83-1.32,4.68-2.84,6.39-2.24,1.51.53,3.22,4.11,2.8,5.85-.95,3.93-3.04,7.63-4.91,11.29-1.95,3.83-4.44,7.4-6.13,11.33-.44,1.02.88,3.86,2.02,4.32,9.37,3.79,19.21,3.47,28.99,2.28,1.51-.18,3.06-2.62,4.01-4.33,3.91-7.07,7.57-14.27,11.39-21.39.46-.85,1.28-1.53,1.99-2.23,5.73-5.57,12.96-7.02,18.11-3.65,4.66,3.05,5.29,8.53,1.98,16.72-2.58,6.41-7.47,10.88-13.45,13.49-8.49,3.71-11.24,9.79-10.17,18.45.31,2.47-.05,5.01.19,7.49.8,8.1,9.95,12.82,16.18,7.76,4.9-3.98,9.33-9,12.64-14.38,5.04-8.2,8.84-17.14,13.33-25.69,1.23-2.34,2.75-4.67,4.65-6.45,1.28-1.21,3.8-2.39,5.14-1.9,1.62.59,3.28,2.82,3.68,4.61,1.04,4.64,1.41,9.43,2.19,15.26ZM260.3,788.18c-.36-.1-.72-.2-1.08-.3-1.34,1.46-2.82,2.81-3.98,4.4-9.91,13.43-18.73,27.54-24.93,43.07-2.38,5.95-3.9,12.38-4.77,18.73-.37,2.7,1.12,7.13,3.19,8.36,3.58,2.11,7.97.8,10.39-3.12,2.25-3.65,4.59-7.45,5.78-11.51,3.69-12.58,6.91-25.3,10.19-37.99,1.86-7.18,3.48-14.41,5.2-21.62ZM261.69,713.42c.09-.02-.6-.01-1.21.21-12.39,4.66-21.63,13.04-26.89,25.02-1.21,2.75.46,8.26,2.74,10.69,3.19,3.4,7.23.53,9.89-2.37,5.03-5.49,9.95-11.11,14.5-17,2.57-3.32,4.79-7.1,6.32-11,1.41-3.6-.7-5.66-5.35-5.56ZM355.8,806.3c8.33-22.73,8.94-46.73,12.38-70.24-8.43,22.67-18.3,45.08-12.38,70.24ZM381.34,684.45c.56.17,1.12.34,1.68.51,2.66-6.49,5.43-12.94,7.92-19.5,1.11-2.92,1.82-6.03,2.42-9.1.18-.94-.58-2.06-.91-3.09-1.14.42-2.42.64-3.36,1.32-.74.53-1.3,1.59-1.51,2.52-2.13,9.1-4.17,18.23-6.24,27.34ZM469.82,692.94c.56.45,1.12.9,1.68,1.35,3.31-3.09,6.77-6.04,9.8-9.38.69-.76-.1-2.86-.2-4.35-1.58.32-3.92.11-4.61,1.07-2.52,3.56-4.5,7.51-6.67,11.31Z"/>
      <path class="cls-1" d="M655.55,531.22c6.95-3.08,11.72-7.61,15.7-12.91,8.15-10.85,14.79-22.57,18.64-35.66,1.44-4.91,2.02-10.07,3.05-15.11.26-1.3.37-2.86,1.15-3.78,1.33-1.58,3.14-2.75,4.75-4.09,1.04,1.85,2.97,3.72,2.94,5.55-.08,4.63-1.35,9.23-1.6,13.86-.5,9.47-.75,18.95-.9,28.43-.14,8.88-.03,17.77-.03,27.37,3.9-3.84,7.87-7.72,11.82-11.63,1.77-1.75,3.33-3.75,5.29-5.24,2.33-1.77,5.19-3.14,7.52-.17,2.28,2.9.4,5.2-1.78,7.33-3.92,3.82-7.94,7.58-11.55,11.68-2.17,2.47-3.85,5.43-5.42,8.35-3.83,7.13,1.13,19.58,9.12,21.04,3.58.65,8.87-.8,11.41-3.3,5.23-5.14,9.55-11.37,13.48-17.63,4.41-7.03,7.91-14.62,11.91-21.91,2.67-4.87,7.73-5.38,12.44-6.05,1.08-.15,3.55,1.83,3.47,2.62-.2,1.85-1.2,3.95-2.54,5.27-1.71,1.69-4.58,2.31-6.01,4.13-1.21,1.54-1.87,4.37-1.32,6.18.42,1.37,3.18,2.95,4.82,2.87,9.24-.49,15.12,4,19.07,11.81,1.35,2.68,3.09,4.33,6.32,2.8,3.4-1.61,8.06-1.46,8.22-7.14.17-5.98.79-11.95,1.47-17.9.22-1.92.94-3.92,1.92-5.6,3.45-5.91,9.79-8.34,14.77-5.89,4.6,2.26,6.21,7.2,3.19,13.98-2.55,5.71-6.18,10.99-9.77,16.15-4.03,5.8-3.68,10.15,2.29,17.92,3.34,4.34,8.85,5.47,14.3,3.55,8.13-2.86,14.03-8,17.99-15.62,4.59-8.83,9.65-17.43,13.99-26.39,1.35-2.78,1.86-6.57,1.25-9.59-3.4-16.87-5.45-33.87-5.05-51.05.14-5.87,1.57-11.83,3.24-17.5,1.25-4.24,4.75-6.71,9.52-6.73,4.47-.03,6.28,3.14,8.02,6.48,3.99,7.66,3.73,16.04,2.6,24.01-2.09,14.61-5.5,29.02-8.01,43.58-.74,4.3-1.13,8.98-.23,13.18,3.24,15.2,7.76,30,18.13,42.16,2.14,2.51,4.55,4.97,7.3,6.71,1.84,1.16,4.53.91,6.79,1.49,1.73.45,4.45.88,4.8,1.94.45,1.39-.55,3.87-1.74,5.05-2.89,2.87-7.94,2.35-12.44-.71-8.83-6.01-14.69-14.45-19.01-23.97-2.61-5.75-4.64-11.75-6.92-17.65-.81-2.09-1.56-4.21-2.47-6.68-4.74,7.66-9.3,14.53-13.35,21.69-5.65,9.97-14.64,15.57-25.08,18.49-7.68,2.15-14.98-.46-20.07-6.94-2.94-3.75-5.1-8.11-7.93-12.72-2.52.75-5.75,1.45-8.73,2.73-.98.42-1.69,2.26-1.9,3.55-1.77,10.8-8.58,16.16-19.18,14.92-5.45-.64-9.48-4.31-9.3-8.47.29-6.7,4.66-11.36,10.58-11.67,2.48-.13,4.92-.92,7.78-1.5-2.56-5.87-4.92-9.87-11.48-9.83-4.22.02-8.44-1.64-13.41-2.71-2.21,3.86-5.03,9.05-8.11,14.09-5.56,9.08-13.25,15.54-24.09,16.69-3.22.34-7.06-1.24-9.98-2.99-3.49-2.1-6.31-5.32-9.89-8.47-.64,3.3-1.72,6.91-1.98,10.58-.38,5.47.09,11.02-.4,16.47-.15,1.66-2.16,4.21-3.57,4.39-1.42.18-4.4-1.93-4.54-3.28-.67-6.2-1.07-12.52-.66-18.74.55-8.43,2.17-16.79,2.9-25.22,1.16-13.4,1.97-26.84,2.89-40.26.12-1.81.02-3.64.02-6.95-1.41,2.11-2.12,3.04-2.7,4.05-8,14.1-16.07,28.09-30.99,36.37-1.47.81-2.68,3.54-2.64,5.35.18,8.48.7,16.97,1.43,25.43.22,2.57,1.04,5.38,2.49,7.45,1.03,1.47,3.55,1.94,5.45,2.76,1.4.6,3.58.68,4.1,1.67.57,1.11.1,3.28-.69,4.48-2.97,4.53-8.93,5.07-12.96,1.37-4.79-4.41-5.73-10.32-6.13-16.39-.61-9.09-1.17-18.18-1.77-27.51-12.4.65-24,1.07-35.56,2.07-1.76.15-4.12,2.66-4.79,4.58-3.5,10.05-5.81,20.56-9.91,30.34-6.95,16.54-14.68,32.77-22.6,48.87-3.34,6.79-7.86,13.02-12.21,19.26-.99,1.42-3.46,1.81-5.25,2.67.42-1.85.46-3.91,1.32-5.52,3.5-6.57,7.56-12.86,10.87-19.53,11.46-23.13,22.2-46.54,28.43-71.8,4.14-16.79,9.6-33.25,13.95-50,5.48-21.08,10.27-42.34,15.7-63.43,1.39-5.4,3.72-10.65,6.3-15.63,2.15-4.16,4.94-4.07,8.27-.67,4.44,4.53,6.24,10.23,6.71,16.26,1.83,23.89,3.41,47.81,5.14,71.71.38,5.23,1.04,10.45,1.64,16.33ZM611.12,540.41c10.63-.69,19.89-1.45,29.16-1.84,4.46-.19,6.55-1.52,6.16-6.49-.92-11.61-1.32-23.26-2.02-34.88-.95-15.61-1.92-31.22-3.07-46.82-.19-2.58-1.33-5.09-2.04-7.63-.56.04-1.12.07-1.68.11-12.48,31.08-17.08,64.31-26.51,97.55ZM863.7,451.68c-6.61,15.92-1.7,32.11-1.62,48.18,2.17-16.02,6.81-31.94,1.62-48.18ZM774.36,563.23c-3.32,3.64-10.41-3.03-12.34,4.72,8.23,3.11,10.03,2.5,12.34-4.72ZM811.02,524.07c-6.14,2.41-7.36,5.89-5.43,13.67,1.94-4.88,3.46-8.72,5.43-13.67Z"/>
      <path class="cls-1" d="M154.37,552.31c6.11-4.1,12.23-8.19,18.31-12.33.81-.55,1.32-1.77,2.17-2.01,3.51-1.03,7.53-3.16,10.51-2.21,2.19.7,3.27,5.48,4.43,8.6.54,1.44.09,3.25.09,5.84,3.94-3.38,7.07-6.26,10.41-8.88,5.05-3.95,8.93-3.15,12.58,2.15,4.12,6,3.98,12.94,4.43,19.72.63,9.46.81,18.95,1.56,28.4.45,5.68,1.07,11.56,7.2,15.77.99-2.55,2.07-4.42,2.43-6.41,3.28-17.99,6.41-36.01,9.65-54,.44-2.42.91-4.97,2.05-7.09.72-1.36,3.07-3.12,4.03-2.79,1.5.51,3.1,2.49,3.48,4.13.97,4.14,1.28,8.42,1.9,13,4.63-5.64,8.44-11.08,13.06-15.7,5.89-5.89,11.03-6.1,16.27-1.67,4.02,3.4,3.71,8.14,4.21,12.82,1.36,12.67,3.08,25.31,4.82,37.93.24,1.74,1.15,3.51,2.15,5,2.4,3.55,6.95,3.21,8.61-.67,1.11-2.58,1.67-5.4,2.65-8.05,3.25-8.86,5.66-18.17,10.1-26.4,5.44-10.1,13.89-17.86,24.99-21.92,6.95-2.54,10.67,0,10.75,7.39.14,12.68.09,25.35,5.2,37.32,1.37,3.2,2.24,7.01,4.56,9.32,2.57,2.56,6.52,3.73,10.94,6.06.72,3.21-1.95,5.72-5.44,7.64-4.46,2.45-9.66,1.81-12.75-1.95-3.52-4.3-6.58-8.98-10.1-13.85-2.92,7.34-5.43,15.47-14.46,17.19-9.07,1.73-15.48-2.23-18.52-11.59-2.11,3.76-3.57,7.14-5.71,10.01-4,5.35-9.63,5.91-14.02.88-2.97-3.41-5.81-7.72-6.66-12.03-2.47-12.52-3.89-25.25-5.79-37.89-.53-3.51-1.3-6.99-2.06-11-9.27,3.35-12.38,10.62-15.56,17.63-4.76,10.5-3.3,21.9-4.25,32.95-.39,4.47-.48,9.07-1.69,13.33-.54,1.91-3.49,3.14-5.35,4.67-.87-1.9-2.43-3.78-2.48-5.7-.26-9.13-.12-18.28-.12-27.42-.44-.1-.89-.2-1.33-.3-1.82,7.1-3.65,14.19-5.43,21.29-.4,1.61-.46,3.31-.95,4.88-1.33,4.22-2.98,8.31-8.14,9.06-4.09.59-9.71-2.44-11.26-7.53-2.24-7.4-3.74-15.12-4.65-22.81-1.05-8.91-.87-17.97-1.75-26.91-.25-2.55-1.78-6.12-3.77-7.08-3.37-1.64-7.31.17-8.87,3.59-2.87,6.28-5.87,12.73-7.17,19.43-2.06,10.59-2.69,21.45-4.08,32.18-.36,2.77.15,7.06-4.16,6.61-4.08-.42-3.19-4.52-3.05-7.35.71-14.46,1.65-28.91,2.35-43.38.13-2.75-.47-5.54-.8-9.11-4.96,2.05-9.21,3.78-13.44,5.55-3.66,1.53-7.4,2.91-10.92,4.72-1.14.59-2.37,2.35-2.37,3.58.03,15.15.29,30.3.48,45.45.02,1.33.48,2.94-.11,3.92-1.03,1.72-2.72,4.3-4.12,4.29-2.81,0-5.15-1.6-5.09-5.4.23-15.95.24-31.89.31-47.84,0-.31-.16-.62-.18-.72-8.04-1.41-15.98-2.71-23.88-4.23-3.08-.59-4.66.43-5.45,3.4-8.23,31.22-26.65,57.12-43.81,83.66-4.77,7.37-12.04,11.9-19.78,15.54-1.61.76-4.08-.29-6.16-.51,1.08-1.64,1.8-3.88,3.31-4.8,7.91-4.85,14.84-10.39,19.55-18.75,8.99-15.94,19.48-31.11,27.56-47.48,6.28-12.73,9.98-26.76,14.58-40.3,3.21-9.46,6.14-19.01,8.95-28.6,3.41-11.64,6.14-23.5,9.97-34.99,2.6-7.81,6.04-15.47,10.13-22.61,3.08-5.39,7.52-4.68,9.9,1.1,1.7,4.13,3.43,8.5,3.8,12.87,1.32,15.74,2.33,31.52,2.87,47.3.19,5.54-1.34,11.15-2.07,16.72-.36,2.72-.68,5.45-1.02,8.17.48.4.96.8,1.44,1.21ZM118.73,552.89c6.66,1.35,12.62,2.78,18.65,3.72,5.1.79,7.49-1.04,7.56-5.17.29-17.49.56-34.97.77-52.46.07-5.99.03-12-.24-17.98-.06-1.22-1.37-2.38-2.11-3.57-.98.86-2.29,1.55-2.86,2.63-.91,1.74-1.53,3.7-1.93,5.64-3.63,17.83-8.97,35.13-15.38,52.15-1.85,4.91-3.01,10.09-4.46,15.04ZM313.8,580.16c0,.83.05,1.66,0,2.49-.32,4.18,1.31,8.75,4.84,9.22,2.69.36,7.06-2.93,8.74-5.75,3.06-5.16,5.09-11.04,6.76-16.86,1.68-5.85,2.5-11.97,3.46-18.01.28-1.73-.25-3.59-.41-5.4-1.83.46-4.03.42-5.43,1.45-11.01,8.14-16.65,19.33-17.94,32.84Z"/>
      <path class="cls-1" d="M672.31,722.51c-5.51,2.5-10.77,4.79-15.91,7.34-.77.38-1.09,1.95-1.33,3.03-1.42,6.27-4.96,11.05-10.78,13.55-5.12,2.2-10.49,4.5-15.93,5.07-6.79.72-10.55-6.17-7.6-12.47,2.39-5.1,6.87-7.48,11.83-9.32,3.56-1.32,7.11-2.7,11.39-4.33-2.42-2.29-4.32-4.06-6.19-5.87-6.36-6.17-6.81-13.68.18-18.91,7.53-5.64,15.94-10.17,24.25-14.66,2.72-1.47,6.9-2.54,8.54,1.87,1.58,4.23-1.52,6.45-4.91,7.96-5.92,2.64-12.01,4.91-17.78,7.83-2.36,1.19-4.6,3.34-5.9,5.63-.74,1.29.53,3.74.96,5.66.06.26.5.42.75.64q8.57,7.65,18.95,2.44c.45-.22.88-.5,1.36-.64,8.95-2.48,13.26-8.92,16.04-17.38,2.86-8.71,8.47-15.74,16.12-21.04,4.12-2.86,8.24-2.55,12.18-.16,3.96,2.41,3.49,6.28,2.75,10.27-1.25,6.7-5.53,11.36-10.39,15.42-4.32,3.6-9.14,6.64-13.89,9.67-4.61,2.94-8.2,12.76-6.03,17.58.35.79,1.29,1.7,2.09,1.84,5.99,1.11,12.25,1.99,17.07-2.68,4.74-4.59,8.96-9.74,13.12-14.87,9.54-11.76,21.52-20.26,35.24-26.26,5.27-2.31,13.12,3.84,12.72,9.56-.21,2.95-1.52,5.82-1.78,8.77-.81,9.41-1.36,18.85-2.12,29.83,4.45-2.73,7.39-4.73,10.5-6.4,6.88-3.68,13.79-7.31,20.83-10.67,1.38-.66,3.38,0,5.1.05-.82,1.4-1.31,3.24-2.51,4.11-8.45,6.17-16.99,12.23-25.63,18.12-3.96,2.7-6.12,5.7-6.21,10.93-.31,17.68-6.65,33.94-13.89,49.66-4.27,9.28-11.8,16.43-20.9,21.52-5,2.79-9.3,1.32-10.1-4.35-.75-5.31-.94-11.13.46-16.23,5.45-19.96,13.57-38.7,28.87-53.37,3.79-3.64,5.46-7.7,5.29-12.86-.18-5.58-.04-11.16-.04-17.5-4.57,3.97-8.58,7.11-12.19,10.66-6.17,6.06-13.3,6.62-20.78,3.65-2.92-1.16-4.89-.79-7.32.68-3.7,2.24-7.55,4.24-11.36,6.29-5.91,3.18-12.15,4.29-18.03.59-6.27-3.94-8.29-10.13-7.06-17.4.13-.78.02-1.6.02-2.86ZM746.92,763.15c-1.82,1.55-2.88,2.14-3.5,3.03-8.31,12.05-16.11,24.4-20.19,38.61-.8,2.78-.37,5.92-.51,8.89.62.13,1.25.26,1.87.39,13.14-13.91,20.26-30.59,22.33-50.93ZM747.2,701.39c-3.29,1.2-6.03,1.48-7.76,2.95-6.01,5.09-11.83,10.44-17.34,16.06-1.24,1.27-.91,4.07-1.31,6.17,2.17-.06,4.68.56,6.46-.31,8.7-4.25,14.34-11.64,19.04-19.82.6-1.05.48-2.51.9-5.06ZM690.14,699.79c.4.34.8.69,1.2,1.03,4.85-3.42,10.17-6.43,11.61-12.82-.58-.5-1.16-1.01-1.75-1.51-3.69,4.43-7.38,8.87-11.06,13.3Z"/>
      <path class="cls-1" d="M484.02,557.46c5.01-5.91,9.34-11.59,14.32-16.63,2.33-2.36,5.8-3.83,9.02-4.96,1.54-.54,3.69.63,5.57,1.03-1.1,1.45-1.89,3.57-3.34,4.22-7.59,3.41-12.43,9.25-15.76,16.62-2.66,5.88-2.35,6.36,3.14,9.86,8.8,5.62,17.51,11.38,26.1,17.31,5.77,3.98,6.88,7.62,4.53,12.6-3.14,6.66-8.78,8.18-14.62,3.59-7.69-6.05-15.16-12.39-22.74-18.58-1.15-.94-2.41-1.74-3.89-2.8-1.36,2.77-2.76,5.21-3.8,7.81-3.47,8.69-10.59,12.51-18.85,15.7-6.72,2.59-12.53,2.99-19.02-.46-10.34-5.51-14.11-13.86-12.56-26.1,1.48-11.71,5.98-22.19,11.75-32.07,5.11-8.74,4.34-16.23-.86-24.45-8-12.66-9.57-26.77-7.59-41.37.87-6.43,7.87-13.89,13.02-14.2,6.87-.42,15.87,5.18,16.81,12.33,1,7.59.54,15.58-.66,23.18-1.39,8.81-4.34,17.36-6.43,26.07-.39,1.62-.58,3.89.25,5.1,7.04,10.37,16.26,18.61,25.61,26.19ZM454.31,541.26c-2.4,5.19-4.88,9.71-6.63,14.51-2.72,7.46-5.36,15.01-7.25,22.71-1.28,5.21.15,10.54,4.57,14,4.25,3.33,9,2.78,13.45-.27.81-.55,1.79-1.01,2.75-1.15,8.58-1.29,12.89-7.29,16.61-14.33,1.83-3.47,1.7-5.93-.88-8.92-7.04-8.15-13.8-16.54-20.68-24.82-.41-.49-.96-.86-1.91-1.7ZM452.87,520.1c4.94-12.55,6.78-25.2,6.31-38.21-.06-1.58-.53-3.68-1.62-4.56-2.59-2.11-5.51-4.17-8.63-5.03-.78-.22-3.56,3.98-4.18,6.45-3.69,14.76-1.44,28.52,8.12,41.35Z"/>
      <path class="cls-1" d="M316.59,672.21c2.44-1.61,4.76-3.68,7.46-4.74,2.09-.82,5.48-1.34,6.85-.22,1.61,1.32,2.78,4.9,2.16,6.87-1.26,4-3.44,7.9-6.03,11.23-2.72,3.5-6.07,6.7-9.73,9.16-1.59,1.07-5.68.92-6.87-.34-4.5-4.79-8.6-10.06-12.23-15.56-2.6-3.94-1.36-8.15,2.03-11.26,3.37-3.08,6.91-2.41,10.29.43,1.89,1.59,3.99,2.92,6.07,4.42Z"/>
    </g>
    <g>
      <path class="cls-1" d="M459.71,947.66c1.21,16.63-5.56,29.77-13.29,42.61-2.99,4.97-5.96,9.97-8.97,14.93-.55.9-1.07,2.08-1.91,2.47-.98.45-2.69,1.1-3.46.22-.6-.69.07-1.93.49-2.68,5.91-10.54,12.07-20.94,17.81-31.57,4.02-7.43,5.74-15.53,5.45-24.04-.11-3.2.03-6.42.37-9.6.09-.86.94-2.47,1.99-2.39.96.08,1.4,1.61,1.46,2.46.19,2.84.07,5.7.07,7.59Z"/>
      <path class="cls-1" d="M406.65,940.29c-1.15-.79-3.03.73-4.05,1.12-1.53.59-3.02,1.36-4.61,1.68-.69.14-1.79-.46-2.27-1.06-.25-.31.27-1.83.76-2.02,3.47-1.37,6.94-2.85,10.56-3.64,2.31-.51,3.96,1.33,3.61,3.71-.62,4.22.25,3.93-4.41,12.53,0,0,2.6.39,3.37.42,4.39.14,6.36,2.24,4.93,6.32-2.35,6.68-7.16,11.64-12.92,15.59-.66.45-2.82.04-3.02-.46-.38-.97-.28-2.67.37-3.42,2.08-2.42,4.6-4.44,6.75-6.81,1.62-1.79,4.14-3.4,4.36-5.82.04-.48-.2-1.09-.63-1.3-2.63-1.28-5.27.7-8.59,1.79-1.35.44-3.64.81-4.36-.48s1.05-2.83,1.89-4.02c2.43-3.41,5.14-6.62,7.48-10.09.6-.89,1.62-3.46.77-4.04Z"/>
      <path class="cls-1" d="M639.13,952.77c.48-.05,1.57-2.3,2.54-3.28,3.78-3.84,8.48-2.83,10.23,2.33,1.53,4.51-.71,8.07-3.79,11.14-2.99,2.98-6.15,6.15-10.8,3.65-1.65-.89-3.56-2.82-3.81-4.51-1.35-9.14.1-17.81,6.35-25.04,1.2-1.39,3.1-2.68,5-2.9,1.08-.13,2.26.82,2.25,1.69,0,.65-1.84,2.47-2.39,2.89-3.36,2.56-6.76,7.37-6.48,12.76.04.71.19,1.34.9,1.27ZM648.35,954.32c-.13-.54-.63-1.75-1.47-2.31-.46-.31-1.9.36-2.57.96-1.94,1.72-3.86,3.51-5.48,5.52-.66.82-1.05,2.63-.58,3.36.52.81,2.24,1.36,3.3,1.19,2.69-.44,7.56-5.46,6.8-8.73Z"/>
      <path class="cls-1" d="M567.15,966.51c5.69-.72,14.59-7.14,15.14-4.56.93,4.34-10.45,9.41-17.69,9.62-3.1.09-4.14-1.74-2.45-4.38,4.16-6.47,8.6-12.76,12.85-19.18,1.77-2.66,3.41-5.43,2.41-9.16-3.33.08-5.54,1.66-7.17,4.38-.43.72-1.18,1.95-2.05,1.71-1.04-.28-1.25-2.11-1.07-3,.8-3.89,8.42-7.97,12.14-6.49.86.34,1.73,1.61,1.9,2.58.73,4.01-.12,7.78-2.43,11.18-2.99,4.41-6.01,8.8-9,13.21-.77,1.14-1.48,2.33-2.58,4.08Z"/>
      <path class="cls-1" d="M614.23,964.49c4.99-1.09,9.74-9.32,13.48-5.52.74.76-1.31,2.47-1.54,2.63-4.55,3.21-7.63,6.18-12.63,8.4-3.39,1.51-5.54-1.85-3.43-5.38,2.66-4.46,5.9-8.58,8.91-12.84,1.1-1.55,2.4-2.97,3.31-4.62.66-1.19,1.27-2.7,1.11-3.98-.18-1.5-.36-3.9-1.88-4.33-1.71-.49-2.93.97-4.47,2.69-.67.75-1.57,2.37-2.48,1.93-1.03-.49-.51-2.38-.19-3.38.34-1.05,1.21-2.38,2.15-2.7,2.33-.8,4.9-1.69,7.24-1.41,2.06.25,4.12,6.2,3.06,9.18-1.08,3.05-2.92,5.89-4.75,8.61-2.47,3.68-5.25,7.16-7.9,10.72Z"/>
      <path class="cls-1" d="M503.94,957.65c1.97-7.37,3.88-14.63,6.04-22.28.24-.84,1.55-1.46,2.3-.89.56.43.22,1.81.1,2.57-1.33,8.64-2.67,17.28-4.11,25.9-.15.92-.81,2.19-1.54,2.45-.69.25-2.12-.36-2.64-1.04-1.64-2.13-3.08-4.42-4.44-6.74-.82-1.39-1.35-2.95-2.91-4.44-.87,3.95-1.69,7.9-2.62,11.83-.19.81-.7,1.93-1.56,1.99-.95.07-1.22-1.28-1.16-2,.27-3.28.84-6.54,1.36-9.8.37-2.33.71-4.69,1.31-6.97.27-1.01.68-2.59,1.77-2.79.98-.18,1.9,1,2.36,1.79,2.09,3.53,3.99,7.18,5.76,10.39Z"/>
      <path class="cls-1" d="M587.85,954.9c.07-7.45,3.67-13.09,9.51-17.26,1.58-1.13,4.02-1.42,6.04-1.35.81.03,2.34,2.15,2.2,3.15-.97,7.31-3.08,14.3-7.22,20.51-1.41,2.11-3.02,4.11-6.06,3.11-3.06-1.01-4.67-3.07-4.48-6.39.03-.59,0-1.18,0-1.77ZM601.2,940.28c-6.08,2.93-10.22,10.35-9.45,16.29.11.82.77,1.57,1.18,2.36.74-.44,1.77-.71,2.18-1.36,3.22-5.13,5.09-10.76,6.08-17.29Z"/>
      <path class="cls-1" d="M378.92,947.08c-1.21,2.24-2.41,4.49-3.65,6.72-.75,1.34-1.41,2.78-2.41,3.92-.54.63-1.75,1.55-2.56,1.08-.75-.44-.64-1.94-.31-2.53,3.37-5.95,6.79-11.89,10.47-17.66.62-.97,2.64-2.25,3.9-1.59s1.09,2.8.92,4.11c-1.16,9.26-3.23,18.42-3.78,27.73-.04.68.03,1.42-.14,2.09-.29,1.1-1.47,2.48-2.62,2.3-1.03-.15-1.64-1.77-1.61-2.63.12-3.66.49-7.31.91-10.95.47-4.09,1.09-8.16,1.64-12.24l-.77-.34Z"/>
      <path class="cls-1" d="M475.18,963.29c1.96-6.26,3.91-12.52,5.89-18.77.39-1.24.74-2.55,1.46-3.6.42-.62,1.49-1.48,2.3-1.16s1.02,1.66.92,2.41c-.21,1.63-.78,3.22-1.27,4.81-1.58,5.1-3.1,10.22-4.83,15.26-.6,1.75-1.45,3.65-2.76,4.84-1.02.92-3.03,1.32-4.41,1.04-.72-.14-1.49-2.28-1.46-3.5.16-6.76.53-13.52.9-20.27.04-.81.57-3.14,1.57-2.35,2.54,2.01,1.45,14.07.77,21.16.31.04.61.08.92.11Z"/>
      <path class="cls-1" d="M526.51,946.98c-1.23,6.74-1.78,12.7-3.19,19.4-.19.92-1.39,2.64-2.52,2.35-1.03-.26-1.13-2.06-1-3,1.03-7.35,2.18-14.69,3.44-22.01.14-.81.84-2.22,1.79-2.19.87.02,1.24,1.32,1.52,2.1.26.74.06,1.64.06,2.47-.02.3-.05.6-.1.88Z"/>
    </g>
    <path class="cls-1" d="M420.56,968.73s-1.84,3.88,1.52,3.5.79-3.47-1.52-3.5Z"/>
  </g>
</svg>