<?xml version="1.0" encoding="UTF-8"?>
<svg id="Layer_1" xmlns="http://www.w3.org/2000/svg" version="1.1" viewBox="0 0 512 512">
  <!-- Generator: Adobe Illustrator 30.0.0, SVG Export Plug-In . SVG Version: 2.1.1 Build 123)  -->
  <defs>
    <style>
      .st0 {
        fill: #c5110d;
      }
    </style>
  </defs>
  <g>
    <path class="st0" d="M334.05,252.79c1.67-.23,1.12,3.56,1.03,4.53-.18,1.78.37,3.22-1.54,4.45-2.41-1.63-.71-1.9-.44-3.41.32-1.79,1.26-3.57.95-5.57Z"/>
    <path class="st0" d="M311.56,101.79c3.83-.83,1.62,4.89.5,6.51-3.42,4.94-9.31,6.05-13.99,1.99,1.96-2.82,6.83-1.7,8.97-3.01,1.1-.67,2.94-5.14,4.52-5.49Z"/>
    <path class="st0" d="M319.04,54.8c-.53,6.29-6.96,1.21-8.49,1.32-.61.04-4.5,3.69-5.5.16-.8-2.84,4.83-5.15,6.5-5.16,1.9,0,4.83,3.98,7.49,3.67Z"/>
  </g>
  <g>
    <path class="st0" d="M.12,339.79c1.54-12.78,13.23-29.18,25.96-32.54,8.4-2.22,11.27,2.21,6.83-10.76-1.23-3.58-4.21-5.68-2.8-10.71,6.63-.43,7.4-.79,8.77,5.74,1.16,5.54,1.94,16.14,3.99,21.01,1.19,2.85,14.46,16.88,17.29,18.7,6.62,4.26,16.09-3.59,19.79-9.11,5.98-8.92,4.55-18.1,6.39-27.61.83-4.29,4.05-12.94,5.92-17.08,5.58-12.41,15.01-16.3,22.83-26.16,7.51-9.47,10.49-36.26,3.86-46.82-1.74-2.77-4.96-4.66-6.84-7.16-4.08-5.44-5.24-14.83-4.99-21.5,4.6.35,3.53,6.9,4.45,10.04,3.14,10.73,8.02,10.4,12.09,17.91,2.01,3.71,2.8,8.06,3.95,12.04,2.27-2.03,6.05-4.36,9.06-4.94,3.87-.74,11.02-1.3,14.95-1.05,5.88.38,17.06,4.53,21.86,1.86,6.86-3.81,3.75-6.88,3.58-12.32-.22-7.16,1.72-14.03,1.09-21.09-.34-3.72-4.36-11.1.65-12.33,2.13-.52,9.39,2.96,12.08,3.6,13.44,3.17,22.34.17,34.72,1.28,10.54.94,22.42,4.26,32.99,5,7.46.52,15.38-.44,22.9.06.36-2.13,4.59-5.91,1.11-6.07-5.36-.24-10.78-.78-16.01-1-28.53-1.2-56.24,3.18-80.41-14.57-2.41-1.77-4.25-4.81-6.72-6.28-4.1-2.44-9.48-1.83-13.83-4.23-7.12.38-8.29,6.06-12.01,10.11-8.97,9.77-14.43-5.5-22.27-8.75-7.16-2.97-16.12.43-22.93,3.55-4.21,1.93-12.14,8.5-16.02,9.03-1.56.21-3.02-.79-4.71-.7-20.95,1.01-49.16,16.3-62.58,32.35-9.93,11.86-10.89,28.22,6.96,32.08,9.08,1.96,18.35-4.61,26.78.22,3.37,1.93,3.08,5.65,5.78,8.21,2.19-2.26,5.39-4.5,5.5-7.98-14.19-.18-43.26-12.49-31.45-30.96,2.66-4.16,7.14-4.8,10.76-7.23,2.98-2,5.75-4.78,8.55-6.44,5.04-2.98,25.66-7.23,31.63-7.19,2.9.02,11.31,2.41,13.45,4.37,1.64,1.5,3.27,5.74.53,6.45-1.41.37-9.86-5.04-13.97-5.03-5.34.02-22.07,2.97-27.04,4.99-1.74.71-15.24,9.6-16.97,11.03-1.39,1.15-2.88,2.94-3.28,4.72-3.39,14.98,21.15,17.46,30.31,21.28,7.77,3.24,3.42,4.1,4.61,8.29,1.34,4.74,9.56,8.89,10.79,18.3.98,7.49-.89,26.95-11.41,17.42-5.61-5.08-3.83-13.1-5.99-20.01-.67-2.15-4.04-6.12-1.01-6.98,4.36-1.23,6.3,10.66,7.04,13.94.41,1.82.79,13.5,4.93,9.04,3.59-3.87,1.12-15.07-1.64-19.32-.63-.98-6.35-7.96-6.82-8.22-2.78-1.53-5.19,4.2-6.53,5.55-5.53,5.53-8.2-9.64-12.17-10.8-7.51-2.2-14.93,3.52-24.12,1.13-21.9-5.69-21.4-26.22-8.71-41.33,5.84-6.95,14.25-14.51,22.29-18.71,3.39-1.77,28.09-13.28,29.72-13.28h15.5c.23-1.39-1.69-1.4-2.74-1.75-3.95-1.33-7.17-1.91-10.95-4.05-1.24-.7-7.09-4.96-7.26-5.79-.63-2.99,13.37-9.78,14.9-13.03.48-2.17-8.97-8.42-9.75-11.06-.63-2.15-.44-8.13.26-10.36,2.61-8.35,21.03-14.23,27.54-21.45,5.11-5.66,3.1-7.75,4.09-13.91,2.58-15.99,3.74-23.54,15.99-35.01,9.03-8.45,16.03-9.79,28.41-8.59,3.08.3,5.91,1.71,9,2,4.18.4,10.01-.8,13.77.23,2.28.62,4.75,3.84,7.02,4.98,7.27,3.66,13.56,3.79,21.62,9.37,5.13,3.55,11.3,8.85,10.06,15.88-.36,2.05-2.33,3.25-2.78,5.23-.75,3.24.12,7.21-.31,10.69-2.49,20.5-8.04,39.96-26.54,51.45-2.05,1.28-7.95,2.92-8.25,3.25-.36.41-.34,8.99.35,9.96.81,1.14,6.6,2.35,8.48,3.52,7.32,4.56,12.57,11.13,21.84,14.16,14.17,4.63,20.99,3.02,34.62,3.34,2.72.06,7.53,2.59,10.12-.05,1.09-1.11,1.79-4.28,3.04-5.96,5.55-7.49,14.55-5.02,22.13-7.86,6.4-2.4,11.42-8,16.95-11.05,4.25-2.35,6.05-1.32,2.89,2.89-2.72,3.63-15.91,12.86-20.24,13.76s-8.06-.03-12.99,2.01c-3.55,1.47-11.02,7.47-3.85,8.25,5.81.63,14.87.79,21,1,7.88.27,11.28-.96,18.11-1.98,3.23-.48,16.4-.89,17.45-1.54,4.45-2.75-1.22-5.19-1.83-7.21-1.64-5.5,1.26-9.49,2.8-14.31-2.95,1.48-9.53,27.05-13.53,15.04.81-4.76-7.39-20.72-3.46-23.55,3.35-2.41,3.01,5.02,3.45,6.56.94,3.29,2.04,6.66,3.07,9.94.3.97.15,2.29,1.47,2-.5-3.58,3.88-8.36,2.91-11.34-.54-1.65-10.73-6.14-8.9-11.65,7.83-.63,6.9,13.21,14.98,3.5,0-2.17-17.88-4.6-21.34-6.64-8.27-4.89-12.28-15.87-14.18-24.82-1.02-4.81-.97-13.58-2.7-17.3-1.26-2.71-4.17-2.85-5.64-5.36s-3.15-10.9-1.64-13.41,8.51-.42,6.57-8.33c-.28-1.14-5.04-1.45-5.9-4.34s1.21-5.18.88-7.74c-.2-1.53-3.16-5.54-4.06-8.02-2.13-5.87-3.17-10.03.6-15.48,5.82-8.41,9.31-4.49,16.47-6.52,6.13-1.74,12.38-10.37,19.46-10.37,2.73,0,11.01,3.72,13.44,5.39s4.52,5.74,5.24,6.25c1.19.84,5.81-.29,8.12.38,2.03.6,3.75,4.23,5.74,5.26,3.67,1.9,11.73,2.64,12.04,8.04.13,2.28-1.16,4.78-.68,6.54.13.46,4.29,7.88,4.68,8.37,2.44,3.11,12.37,1.44,3.88,7.12,1.38,3.2,3.91,5.78,2.62,9.52-.53,1.53-2.48,2.66-2.52,4.4-.13,5.73,4.69,13.39-1.11,18.02-1.58,1.26-3.77,1.3-5.49,2.51-6.04,4.26-1.83,11.5-3.95,15.05-1.29,2.15-5.29,1.43-6.33,2.17-.41.29-.93,2.65-1.74,3.75-4.43,6-10.99,14.83-16.41,19.61-.88.77-1.79,1.5-3.04,1.47,1.31,3.5,2.42.62,4.69.18,9.51-1.83,22.14-4.17,31.8-5.19,8.32-.88,9.54,1.82,17.41-3.58,15.78-10.83,12.25-22.06,20.63-35.36,5.01-7.95,24.95-30.39,32.51-35.48,4.6-3.09,37.34-21.64,40.37-21.65,1.66,0,3.35,1.06,5.07,1.13,8.36.33,18.65-1.86,27.95-1.06,4.14.36,12.04,1.59,14.5,5v5c-2.64,2.53-3.25,8.25-7.51,8.98-2.26.39-7.34.26-9.54-.43-2.72-.86-4.27-4.15-6.57-5.42-4.21-2.33-14.34.26-19.3.94l.93,9.93c-2.74.21-5.78-.36-8.46.04-6.2.94-27.73,19.95-32.52,25.47-14.24,16.42-21.89,29.28-31.47,48.52-5.69,11.43-16.65,13.58-27.21,19.78-2.48,1.46-12.6,7.04-13.14,8.86-1.72,5.85,2.05,14.51.82,20.82,5.06,38.62,18.56,75.52,23,113.99,2.18,18.88,6.82,35.4,9.89,54.11.74,4.54-1.22,9.09,3.6,12.38,8.77-9.69,14.91-24.83,23.99-33.99,1.92-1.93,5.74-4.12,7.99-6.01,2.73-2.3,6.51-7.82,10.06-7.98,2.25-.1,3.96,1.79,6.43.52s10.31-12.03,12.5-11.52c3.3,3.01,1.95,7.64,2.73,11.28.54,2.52,3.21,6.12,3.63,8.46.44,2.46-1.31,4.47-.73,6.56.17.62,8.03,7.57,9.38,8.7,2.69,2.26,5.44,2.51,7.94,6.06,1.54,2.19,5.59,15.81,5.51,18.33-.04,1.32-3.92,14.98-4.43,15.61-4.22,5.12-8.79-6.84-11.47-9.54s-6.17-3.4-8.48-6.52c-2.91-3.94-2.43-9.44-6.06-12.93-8.6,10.23-18.44,19.59-28.01,28.96-6.42,6.29-11.5,8.62-17.71,14.07-3.16,2.78-5.37,6.92-8.82,9.4-1.52,1.09-9.89,5.39-11.26,5.32s-4.3-1.52-5.72-2.22c-12.05-5.97-12.74-16.68-17.2-27.8-2.26-5.64-5.17-11.07-7.23-16.77-2.72-7.52-3.01-16.02-9.52-21.97.63,2.53-.83,5.94-.47,8.1s2.64,5.82,3.23,8.64c2.97,14.21,2.86,29.29,8.04,42.95l-21.63,31.98c-3.99,9.14-8.29,18.23-12.99,27.01-5.05,9.43-10.86,20.34-17.86,28.19-3.59-1.32-6.38.29-9.81.22-4.1-.08-9.51-1.88-13.49-3.09.68,4.33-3.8,11.13,3.47,10.03,2.58-.39,4.75-4.97,7.52-3.59s1.71,5.8,2.46,8.6c.46,1.7,4.19,8.64,5.58,9.42l25.96,4.53c.37-.3-.57-1.07-.98-1.51-1.82-1.93-16.35-13.15-18.65-14.35-2.06-1.07-6.1-1.34-7.13-2.37-3.39-3.36-1.61-8.24,3.7-6.22,7.35,2.79,22.08,14.89,28.54,20.48,2.54,2.2,12.16,10.19,7.85,13.07-1.54,1.02-11.25-2.27-14.08-2.83-7.56-1.51-15.13-2.27-22.67-3.33-11.63-1.63-10.2-12.87-15.04-16.03-2.17-1.41-3.35.36-5.78-.05-2.15-.37-6.72-2.57-7.33-4.82-.34-1.25,1.26-6.84,1.83-8.28s2.36-2.36,2.56-3.36-.8-2.62-.83-3.9c-.15-5.69,3.06-7.13,5.43-11.58,11.02-20.66,21.86-38.48,35.17-57.83,2.15-3.12,10.38-11.7,10.37-14.58,0-1.67-10.28-18.28-12.12-20.83-6.2-8.62-14.41-16.55-20.65-25.35-3.37-4.74-15.52-22.86-16.71-27.29-1.35-5.05-1.02-19.81-.36-25.43.85-7.2,3.78-14.78,3.41-22.14-.19-3.79-3.77-9.14-3.53-13.47-1.67.1-1.36,2.56-2.53,3.96-2.19,2.6-10.71,5.86-14.06,5.98-4.54.16-13.48-4.13-15.14-8.7-4.84-13.37-3.55-28.05-6.31-41.78l2.21-22.81,2.84-1.65c-.13,4.48.19,9.01,0,13.5-.42,10.34.01,20.57.99,31,.61,6.5,4.23,14.13,5.24,20.76,5,6,13.75,6.45,20.04,1.77,1.02-.76,7.07-11.47,7.91-13.34,2.6-5.82,4.12-16.86,8.1-21.4,4.43-5.06,18.6-10.92,24.61-15.87s-.54-5.75.08-12.42c-4.68,4.07-11.32,4.31-16.67,6.81-2.2,1.03-11.24,6.71-12.73,8.27-4.38,4.59-10.72,22.24-19.52,16.38-5.63-3.75-3.97-19.72-2.94-25.84.92-5.47,1.76-13.27,8.87-8.12-4.17,3.77,2.58,10.27,1.24,15.77l2.76,8.72c1.22-3.29,3.6-6.97,5.99-9.52,3.29-3.51,17.25-12.32,21.72-13.27s10.82,1.31,10.09-5.43c-.1-.92-1.63-6.46-1.92-6.65-3.78-2.64-16.93,5.15-21.43,5.83-20.89,3.18-46.17-4.34-66.94-5.95-14.43-1.12-29.24,2.49-42.48-6,.3,2.71,1.71,4.6,2,7.49,1.11,11.13-1.67,20.23,1.25,31.75,2.75,10.85,13.01,23.31,13.74,33.26,1.08,14.67-9.01,22.15-10,35.99-1.33,18.67,4.54,33.5,17.98,46.02,10.7,9.97,23.57,20.85,31.84,33.16,1.46,2.18,5.38,10.72,6.83,11.17,2.77.86,9.76-.58,4.71,5.01-10.57,5.39-19.44,13.02-31.14,15.85-6.95,1.68-15.62,3.59-21.72-.71-5.67-4-16.33-17.11-22.01-22.99-1.17-1.21-1.73-2.88-2.99-4.01-2.4-.47-1.57,1.96-1.38,3.38,1.15,8.42,5.12,22.93,7.37,31.63,5.05,19.53,14,38.11,19.98,57.01.3.95,5.63,11.43,6.05,11.95.3.37,7.75,4.66,8.21,4.79,3.44.95,8.07-.28,11.73.27,3.43.52,13.92,4.11,10.46,8.87-12.59.23-27.12-.15-39.14-4.19-5.5-1.85-12.8-11.87-17.3-11.76-2.93.07-9.19,16.74-13.01,9-.77-1.56,3.72-12.86,4.83-15.2.96-2.03,4.31-5.66,4.35-7.26.03-1-3.69-16.21-4.33-18.32-6.85-22.56-14.8-45.27-20.79-68.2-.97-3.7-1.98-7.07-1.51-10.99-1.38-.29-1.07,1.04-1.48,2-2.92,6.91-3.64,14.44-6.03,20.98-3.27,8.95-8.58,7.49-15.4,10.6-2.06.94-3.78,2.95-6.08,3.92-14.94,6.29-31.1-6.89-42.47-15.52-4.89-3.71-8.2-9.48-15.89-8.94-17.84,1.26-13.15,14.79-15.86,27.22-3.93,17.97-41.67,14.43-37.54-4.55,1.61-7.39,7.67-10.5,13.86-13.36l7.73-23.04,10.18-17.3c-2.79.15-4.2-4.07-6.49-4.06-2.09,0-3.67,3.36-5.57,4.48-2.66,1.56-7.4,2.09-10.41,1.55-1.49-.27-2.65-2.08-3.52-1.55-6.24,3.8.76,13.14.03,18.05s-11.37,1.38-12.03-3.48c.27-3.21-.38-6.87,0-10ZM337.04,64.79c.33-1.92-1.44-2.98-1.8-4.69-.41-1.92.28-5.09-.62-6.38-.78-1.12-5.03-1.27-6.85-2.15-9.6-4.63-6.47-19.44-17.14-23.85-6.38-2.63-14.01,5.22-19.55,8.56,3.22,4.45,5.31-2.36,8.47-1.5,3.84,1.05.46,9.43-7.94,7.98-4.26-.73-4.99-6.37-10.85-2.03-2.26,1.68-1.76,9.08-.51,10.85,1.61,2.28,7.3-.93,7.81,1.72.69,3.59-5.86,3.96-7.99,2.49v3.99c9.97-1.84,6.68,3.41,8,5,2.95,3.58,2.02-7.9,5.49-8.01,1.09-.03,1.78,5.73,1.51,7.01,5.49-.27,23.88-4.21,27.59-1.08.9.76,1.09,2.91,2.06,3.13,2.82.65,8.74-2.23,12.33-1.06ZM505.97,31.83c-7.39-2.33-14.66-4.39-22.52-4.08-3.04.12-9.69.83-12.51,1.48-1.53.35-4,1.01-3.94,3.05,6.49.69,13.8-1.76,20.3-.29,5.74,1.29,15.65,15.7,18.67-.16ZM160.08,33.8c-5.81.39-13.77-3.33-19.26-2.81-11.13,1.05-25,15.72-28.01,26.02-2.56,8.78-1.26,20.46-5.28,27.72-6.16,11.12-24.2,15.11-28.63,23.36-5.59,10.42,9.22,10.93,9.26,20.21.03,6.49-7.64,7.76-11.07,12-.89,1.1-1.47.79,0,2,1.83,1.49,17.64,5.8,18.99,4.5-2.85-7.9-3.73-16.07-2.99-24.49,1.42-16.24,15.66-23.91,25.4-34.59,5.24-5.74,1.54-5.94-.62-10.2s-3.86-7.94-2-12.44c.56-1.37,6.53-10.08,7.67-11.32,2.76-3.02,21.71-16.22,25.54-17.46l11-2.48ZM462.01,31.79c-.63-.68-7.61,2.76-9.01,3.48-23.78,12.09-42,26.49-57.41,48.58-4.25,6.09-5.5,15.74-9.39,22.61-3.77,6.68-14.22,16.92-21.92,18.07-8.99,1.34-20.48,1.4-29.75,2.24-.87.08-4.17.76-4.4,1.1-2.16,3.12,7.99,16.85,5.92,18.92-6.34.19-12.12-3.05-17.99-4.99-1.88,4.26,2.05,6.17,2.57,9.96.37,2.65-1.6,5.57.34,8.41,1.43,2.09,10.89.64,15.59,4.62,6.2,5.24,12.07,29.42,2.53,32.6-5.59,1.87-7.17-4.23-10.32-3.46-1.4.34-9.97,6.84-8.72,7.86,1.08-.17,3.28.4,3.88-.12.66-.58.19-6.72,5.66-2.9,2.52,10.9,5.08,21.81,7.19,32.8.76,3.94,1.47,16.64,3.76,19.26,1.48,1.69-.17,8.64-1.35,10.61-2.36,3.96-.75,10.15-6.69,6.41-9.88-6.23-7.52-25.67-8.44-35.55-.61-6.49-1.15-13.47-2.11-19.89-.47-3.17-1.31-6.59-2.39-9.6-6.91,6.18-16.25,9.63-23.42,15.58-7.54,6.26-6.66,16.98-11.66,24.89,1.65,3.29,3.3,21.09,4.8,22.31.88.71,5.52,1.17,7.48,2.01,10.76,4.64,16.77,12.71,30.7,11.1,7.35-.84,29.02-11.19,35.09-15.9,1.11-.86,6.59-6.18,7.02-7.02,1.08-2.1-2.23-13.76-3.01-16.99-5.95-24.42-11.17-49.43-14.58-74.47l.22-17.38c8.86-3.8,16.83-9.51,25.17-14.32,7.3-4.21,10.15-2.86,14.85-11.15,2.81-4.96,4.45-10.46,7.4-15.59,9.71-16.87,30-40.82,45.52-52.47,2.41-1.81,10.99-7.95,13.17-8.83,1.97-.79,3.64-.96,5.73-.78-.27-4.15-2.84-7.68-2.01-11.99ZM164.23,32.26l.03.14c.2.84.9,1.47,1.75,1.6l6.88,1.03h0c.12-.8-.43-1.54-1.23-1.66l-7.44-1.11ZM174.08,48.79c-.27.25,1.17,3.75,1.01,5.4-.21,2.22-3.08,7-5.06,8.04-.88.47-7.84,2.7-8.41,2.55-3.71-1,1.59-6.57,2.08-8.97,1.04-5.16-2.42-8.69-7.61-8.03,1.07,9.22-4.48,15.07-10.48,21.03-2.22,2.21-6.15,3.69-7.13,6.95-.75,2.5,1.11,4.54.58,6.46-.66,2.41-3.65-.1-5.96,1.03-3.57,1.74-3.97,6.52-1,9.01,1.57,1.31,4.01,1.07,5.47,2.53,2.18,2.19,4.72,9.33,6.68,12.32,3.39,5.17,14.31,18.1,20.42,18.67,2.47.23,7.5-.64,10.37-.52,8.66-6.25,17.27-13.38,21.54-23.47,2.98-7.05,7.12-26.2,5.26-33.26-.27-1.03-1.64-1.88-1.78-3.28-.19-1.92,1.55-4.27,1.01-6.46-3.01-.51-5.81,6.12-8.03,5.59-6.73-1.59,2.98-7.36-2.96-10.59.8,2.65-1.93,9.23-4.02,10.49-1.75,1.05-10.8,2.78-9.98-.97.39-1.75,7.32-4.81,5.86-9.81-.6-2.07-6.15-6.31-7.86-4.7ZM133.08,51.79c-4.59,1.4-14.12,13.37-13.94,17.38.29,6.47,5.71,12.64,9.02,4.18,1.38-3.54.52-6.49,1.16-9.84.39-2.02,4.3-11.11,3.77-11.73ZM283.06,64.79c-3.62-.11-7.41-.51-10,2.51,3,1,5.12-.61,4.03,3.85-.32,1.29-5.05,1.31-2.01,4.12,1.71,1.59,6.72,2.02,7.85.39.85-1.22-.34-8.63.13-10.87ZM319.05,66.79c-1.96.36-11.42-.49-12,0-2.93,2.54,2.66,1.26,2.96,1.42,3.88,2.11,1.03,6.83-2.97,6.58,2.32,11.49,15.16.11,12-8.01ZM295.05,68.79c-.4.6,0,12.23,0,14.5,0,.88,1.77,2.32-.48,4.52s-7.6-.77-7.51,3.97c1.72.11,3.37.09,5.05-.45s10.06-7.62,6.18.18c-2.94,5.9-10.01,6.87-15.22,3.27l1,8,3.5-4,.99,4.99c1.07-.68,1.19-2.47,2.17-3.07,3.5-2.13,7.82-1.68,10.67-2.2.95-.17,1.74-1.6,3.14-1.69,2.35-.16,3.66,1.57,4.5,3.47-4.96,2.95-7.54,5.89-13.61,6.43-1.26.11-3.09-.99-3.28-.86-.42.28-1.22,5.5-4.6,1.93-1.15-1.21-.74-3.97-2.49-4,2.17,10.72,9.89,16.73,20.58,17.9,6.06.66,8.73.49,12.93-3.88,9.48-9.86,14.54-18.87,19.59-31.4.63-1.55,2.48-3.24,2.72-4.34.34-1.54-1.21-2.97-.36-4.29,1.39-2.06,3.33-.16,5.14-.04,4.57.3,7.29-4.47,4.94-8.01-2.1-3.16-21.11,1.57-25.52,1.1.7,10.4-17.1,21.63-22.43,9.87-1.68-3.72-1.08-10.41-2.05-11.94-1.04-1.64-5.38-.21-5.54.04ZM291.05,68.78c-.1-.11-2.89-.11-2.99,0-.87,1.02,2.17,7.91-3.64,11.89-1.99,1.37-4,.12-3.39,3.6.79,4.45,2.41,1.02,4.3.29,1.52-.59,4.58-.71,5.29-1.7.55-.76.88-13.53.43-14.07ZM118.09,94.79c-1.71-.42-2,.65-3,1.49-6.2,5.17-15.98,15.49-17.54,23.45-.94,4.84.35,20.27,2.48,24.61,2.7,5.5,7.18-.35,7-4.96-.37-9.08-1.4-16.17,3.32-24.85.7-1.29,8.06-10.3,7.73-5.25-.05.7-6,9.12-6.76,12.22-1.2,4.88-.83,11.23-2.21,16.28,4.3-3.49,9.27-8.59,12.23-13.26,6.48-10.24-1.56-12.3-2.98-21.5-.43-2.75-.26-5.48-.26-8.24ZM152.39,141.52c-5.08-5.48,8.51-17.45-4.3-19.73-1.49,5.38-2.59,12.61-4.95,17.55-.94,1.97-4.25,4.68-4,5.82.24,1.07,7.19,7.47,8.46,7.4,1.41-.91,7.46-8.68,7.47-9.28.01-.68-2.18-1.23-2.68-1.77ZM324.92,130.91c-2.42-1.69-9.23,1.12-8.88,4.87l12.99,5c-1.51-1.35-3.68-9.56-4.12-9.87ZM315.55,151.79v1c.65-.33.65-.67,0-1ZM253.56,156.79v1c.65-.33.65-.67,0-1ZM230.57,163.79v1c.65-.33.65-.67,0-1ZM241.56,164.79v1c.65-.33.65-.67,0-1ZM259.56,164.79v1c.65-.33.65-.67,0-1ZM262.56,165.79v1c.65-.33.65-.67,0-1ZM287.06,177.78c.89.88,19.48-7.52,23.8-7.78,3.86-.23,7.37,1.82,10.71,1.81,2.79-.01,5.27-2.24,7.77-1.86,4.36.66,7.3,9.28,6.69,13.28-.54,3.55-4.96,7.41,1.51,9.55,4.09-.94.87-12.26.04-15.01-.88-2.92-2.51-8.2-5.12-9.88-4.46-2.87-21.11-2.52-26.93-2.15-8.47.54-17.93,1.74-18.45,12.04ZM195.57,171.8c-.17,0-.48.48-.48.48,0,0,.96,1.49,1.49,1.49.17,0,.48-.48.48-.48,0,0-.96-1.49-1.49-1.49ZM217.57,172.79v1c.65-.33.65-.67,0-1ZM228.06,173.8c-1.41-.72-2.67.64-1.99.98,1.41.72,2.67-.64,1.99-.98ZM317.05,175.79c-.59.6,3.25,15.63,4.54,15.98,3.92,1.08,11.6-7.28,9.99-13.02-2.63-9.35-5.86-2.32-9.49-1.39-1.29.33-3.03-2.36-5.04-1.58ZM260.06,177.8c-1.41-.72-2.67.64-1.99.98,1.41.72,2.67-.64,1.99-.98ZM267.06,196.79v16.5c0,.31,2.06,3.39,2.51,3.5,5.35,1.27.02-11.4-.3-12.71-.6-2.46.85-6.18-2.21-7.29ZM327.54,203.79v1c.65-.33.65-.67,0-1ZM160.58,212.79v1c.65-.33.65-.67,0-1ZM276.56,212.79v1c.65-.33.65-.67,0-1ZM238.96,373.69c.63-.88,0-2.81-.44-3.86-6.71-16.46-24.1-30.45-36.93-42.06-15.73-14.24-20.51-32.49-18.51-53.48.96-10.11,9.05-17.91,9.48-26.98.58-12.1-8.55-21.21-12.62-31.88l-1.36-1.62c-5.82,5.36-9.15,3.06-15.26,2.24-9.57-1.29-18.64-3.37-28.27-.79-1.59.42-5.82,3.08-6.46,4.54-2.58,11.06-1.7,24.92-8.99,34.01-8.51,10.62-18.09,15.02-24.02,28.98-5.26,12.37-3.8,26.54-8.73,38.27-4.97,11.84-14.87,17.28-27.37,18.63-5.26.57-13.25-.74-17.94,2.06-3.1,1.85-8.11,11.77-9.63,15.37-2.1,5.01-4.93,18.25-7.37,21.63-1.85,2.56-7.69,3.79-9.2,5.3-.33.32-4.03,7.81-4,8.27.21,3.44,10.16,7.23,13.38,7.44,4.26.29,13.13-3.88,14.17-8.66,2.12-9.79-1.75-21.12,9.49-27.51,16.32-9.28,24.81,2.8,36.38,11.03,9.44,6.71,22.6,16.56,33.81,8.18,14.96-11.18.85-37.81,21.98-40.01,19.25-2.01,34.42,14.56,46.53,27.49,7.24,7.72,8.86,16.3,21.47,15.52,11.51-.71,18.02-5.06,27.17-10.85.89-.56,3.08-1.07,3.21-1.25ZM170.08,214.8h-2.99v.98h2.99v-.98ZM332.04,231.79c.03-2.77-.74-5.48-1.33-8.16-.3-1.36-.11-4.84-1.66-4.83-.13,3.52.59,7,1.03,10.47.24,1.88-1.02,2.96,1.95,2.52ZM186.58,220.79v1c.65-.33.65-.67,0-1ZM191.58,230.79v1c.65-.33.65-.67,0-1ZM367.53,232.79v1c.65-.33.65-.67,0-1ZM196.07,240.79c.43-1.36-2.25-6.9-2.98-6-.36,2.67.36,4.99,2.98,6ZM251.05,243.09s-.04-.22-.1-.2c-.57.14-.88.79-.88,1.38v3.52s.58.5.98,0M196.07,247.79c.26-1.87,0-3.47-1.98-4-.26,1.87,0,3.47,1.98,4ZM282.55,243.79v1c.65-.33.65-.67,0-1ZM121.08,248.79c.72-1.41-.64-2.67-.98-1.99-.72,1.41.64,2.67.98,1.99ZM196.07,248.8c-2.63-.44-1.78.41-2.27,2.17-.6,2.15-1.05,4.59-1.24,6.8,2.86-2.24,2.07-6.03,3.51-8.98ZM330.04,252.79c.71-.71,0-3.99,0-3.99,0,0-.71.61-.8.84-.87,2.45-.19,3.15-.19,3.15,0,0,.81.17.98,0ZM255.06,253.78c-.72-1.63-2.2-3.31-4-2.98.72,1.63,2.2,3.31,4,2.98ZM192.07,259.79c-1.31-1.52-2.6,1.67-2.96,2.53-1.23,2.89-3.04,6.38-3.02,9.46l2.37-3.11c-.33-2.01,4.17-8.23,3.62-8.88ZM398.76,355.51c-5,2.27-6.92,2.93-10.17-1.78-3.16-4.58-1.91-9.03-2.68-14.33-2.08-14.25-7.47-31.15-8.77-44.22-.6-6.02.65-12.83-.34-18.66-.32-1.9-5.27-13.5-6.28-13.73-2.96,1.58-5.24,3.95-8.17,5.81-9.79,6.2-32.31,17.24-43.58,14.97-2.38-.48-9.54-3.68-12.08-4.92-6.4-3.13-11.23-9.27-18.57-6.79.13,4.26-1.61,8.28-2.06,12.44-.82,7.45-1.43,20.42.46,27.54.92,3.47,9.53,16.22,12.11,19.88,10.92,15.48,22.61,26.53,32.59,43.4,1.89,3.19,5.08,4.78,4.91,9.16s-10.8,16.64-13.9,21.2c-10.8,15.92-20.15,29.95-28.78,47.21-1.2,2.4-9.2,14.61-7.36,16.08,4.35.82,16.33,4.08,19.46,1.02,4.1-6.77,8.83-13.41,12.68-20.31,5.51-9.87,9.63-21.37,14.99-31.01,2.84-5.11,7.22-9.16,10.28-13.72,1.41-2.1,8.75-13.62,9.15-14.93.9-2.95-1.79-9.38-2.34-12.77-1.6-9.83-2.5-20.95-4.48-30.52-.7-3.35-3.26-6.34-3.72-9.27-2-12.62,6.58-21.9,14.78-8.79,3.13,5.01,4.09,14.71,6.12,20.88,2.14,6.51,12.1,33.8,15.49,37.51,11.87,13.01,20.7-3.51,29.03-10.05s11.08-8.02,18.98-16.01c6.96-7.04,14.07-13.93,21.02-20.99,1.29-2.48.08-4.89-.73-7.26-1.51-4.43-5.7-13.91-7.89-18.1-.68-1.29-1.16-2.7-2.39-3.63-16.79,11.05-26.74,28.46-37.74,44.73ZM107.09,263.8c-1.41-.72-2.67.64-1.99.98,1.41.72,2.67-.64,1.99-.98ZM186.07,275.79c.72-1.41-.64-2.67-.98-1.99-.72,1.41.64,2.67.98,1.99ZM185.09,281.79c2.19-.85,2.38-1.65.49-3l-.49,3ZM187.58,297.79v1c.65-.33.65-.67,0-1ZM187.58,300.79v1c.65-.33.65-.67,0-1ZM476,357.79c2.26-4.84-1.24-18.42-5.02-21.47-1.23-.99-3.1-1.34-4.47-2.53-1.78-1.54-11.77-11.01-12.09-11.97-.98-2.97,1.07-5.97.57-9.48-.36-2.56-2.68-6.81-3.47-9.56-1.36,2.63-8.47,5.95-8.33,8.3.35,5.79,8.29,15.55,8.99,22.03.93,2.83,3.29.85,4.94,1.18M189.08,306.79c-.33,1.47.42,2.08,1.5,2.98l.48-.48c-1.52-.98-.32-2.87-1.98-2.5ZM55.1,333.79c.47-1.93-.7-1.93-1.68-2.81-4.86-4.41-8.78-9.24-13.31-13.69-8.97-8.82-15.63,4.54-22.05,9.95-3.13,6.51,1.72,5.89,6.01,3.02,2-1.34,5.41-6.52,7.37-6.34,4.21.57,9.79,8.93,12.36,9.68,3.13.92,7.92-.25,11.3.19ZM17.11,320.79c-.29-.31-6.55,4.05-5.5,5.98,1.67-2.08,5.68-2.71,5.5-5.98ZM144.09,347.8c-14.26.74-10.23,12.96-12.26,23.23-.63,3.2-1.96,5.72-2.73,8.76,9.95-7.06,6.87-22.67,14.99-31.99ZM198.07,463.78c-4.99-4.16-4.56-10.06-6.49-15-6.21-15.95-14.32-30.89-19-48-3.64-13.3-5.26-32.52-11.32-44.67-2.36-4.73-10.21-10.35-14.18-5.33.89.11,2.72-.59,3.05.63.67,2.5.76,5.38,1.67,8.16,7.52,22.98,14.27,46.01,22.33,68.67,2.68,7.54,2.8,17.17,6.74,24.26,1.28,2.31,10.52,10.02,13.17,10.82,1.34.41,2.64.61,4.03.46ZM200.07,469.8c-2.28.46-4.99,0-4.99,0v.98s3.84.74,4.77,0c.2-.16.47-1.03.22-.98Z"/>
    <path class="st0" d="M188.84,96.02c2.11,2.04,1.5,5.55-.79,7.24-7.79,5.77-16.23-3.86-3.97-3.48-.03-1.75-2.64-1.21-3.52-2.97-1.36-2.72-2.99-18.82,1.02-19.01,2.6-.12.47,13.57,3.48,16.51.94.92,2.95.9,3.78,1.7Z"/>
    <path class="st0" d="M164.59,103.79c2.06-.45,3.4,4.49,5.49,5.49,2.37,1.14,9.35-.81,7.99,3.99-.82,2.89-9.64,1.02-11.55-.43-1.66-1.26-5.23-8.34-1.93-9.06Z"/>
    <path class="st0" d="M167.67,82.87c6.78-2.01,4.11,8.22,1.88,8.89-4.61,1.4-4.54-8.1-1.88-8.89Z"/>
    <path class="st0" d="M195.3,84.03c2.68-3.24,5.72-.48,4.1,4.59-2.53,7.89-6.65-1.5-4.1-4.59Z"/>
    <path class="st0" d="M194.13,75.72c-2.82-4.14,6.31-4.25,6.95-1.42.76,3.41-6.22,2.49-6.95,1.42Z"/>
    <path class="st0" d="M170.08,73.79c1.03,3.41-8.13,4.8-7.98,2.5.11-1.68,6.26-3.09,7.98-2.5Z"/>
  </g>
</svg>