<svg width="162" height="95" viewBox="0 0 162 95" fill="none" xmlns="http://www.w3.org/2000/svg">
<path d="M30.5 34.4707C30.5 34.4707 28.2881 51.5628 28.2566 52.921C14.1823 52.6375 4.52014 52.0257 4.52014 52.0257L21 63.9707L0 72.9707L30.5 77.3321L21 94.9707L44 78.9707L60.5 86.4707L68.5 68.9707L87 72.9707L94.5 56.4707L113.138 61.4707L120.5 43.4707L141 52.0257L137.796 32.4707L161.91 18.2841L138.5 15.9707L137.796 0L113.138 12.4294L98.1198 1.75367L90.6561 19.3367L85 17.4707C81.787 16.4303 76.4433 13.9516 76.4433 13.9516L73 27.4707L56 20.4711C56 20.4711 52.6687 36.8714 52 36.4707C50.5673 35.6122 30.5 34.4707 30.5 34.4707Z" fill="#C5110D"/>
<path d="M41.9801 65.0782L37.362 62.7153L38.4724 57.9961L40.1289 57.2616L38.5733 62.4276L38.4058 61.7536L43.9547 64.2026L41.9801 65.0782ZM37.8115 66.9265L34.611 59.7082L35.9603 59.11L39.1608 66.3282L37.8115 66.9265Z" fill="#F9EDD4"/>
<path d="M47.7195 62.704C47.0101 63.0186 46.3114 63.1402 45.6235 63.0689C44.9323 62.9903 44.3063 62.7429 43.7453 62.3265C43.1812 61.9028 42.7418 61.3362 42.4273 60.6269C42.1679 60.0418 42.0368 59.4698 42.034 58.911C42.0313 58.3521 42.1361 57.8287 42.3485 57.3407C42.5683 56.8495 42.8696 56.414 43.2525 56.0341C43.6395 55.6438 44.0926 55.3335 44.6119 55.1033C45.314 54.792 46.0069 54.6772 46.6908 54.7591C47.3787 54.8303 47.9995 55.0758 48.5531 55.4954C49.114 55.9118 49.5534 56.4783 49.8712 57.195C50.1306 57.7801 50.2617 58.3521 50.2644 58.9109C50.2672 59.4697 50.164 59.9968 49.9548 60.4921C49.7497 60.9769 49.4556 61.4092 49.0727 61.789C48.6898 62.1688 48.2387 62.4738 47.7195 62.704ZM47.5243 61.5829C47.9558 61.3916 48.2817 61.1202 48.5022 60.7687C48.7226 60.4171 48.831 60.0103 48.8274 59.5481C48.8237 59.0859 48.7068 58.5952 48.4765 58.0759C48.2074 57.4689 47.8675 56.9983 47.4567 56.6641C47.0533 56.3267 46.6169 56.122 46.1475 56.0501C45.6854 55.975 45.2312 56.0363 44.7851 56.2341C44.3756 56.4157 44.0606 56.6822 43.8401 57.0338C43.6238 57.3747 43.5138 57.7779 43.5101 58.2434C43.5138 58.7056 43.6323 59.1999 43.8658 59.7265C44.1317 60.3262 44.468 60.7984 44.8746 61.1432C45.2853 61.4774 45.7218 61.6821 46.1839 61.7572C46.646 61.8323 47.0928 61.7742 47.5243 61.5829Z" fill="#F9EDD4"/>
<path d="M59.8671 57.1472L56.7658 50.6857L57.2829 50.0757L57.2337 57.6323L56.4219 57.9922L51.2927 53.4406L50.8853 52.4923L51.8507 52.0643L56.5745 56.2049L56.1906 56.3752L56.1948 50.1381L57.6429 49.4961L61.2603 56.5295L59.8671 57.1472ZM52.9779 60.2018L50.282 52.7598L51.2693 52.3221L54.2395 59.6425L52.9779 60.2018Z" fill="#F9EDD4"/>
<path d="M69.9586 52.6727L66.8574 46.2112L67.3745 45.6012L67.3252 53.1578L66.5134 53.5177L61.3842 48.9661L60.9769 48.0178L61.9423 47.5897L66.6661 51.7304L66.2821 51.9007L66.2864 45.6636L67.7344 45.0215L71.3518 52.055L69.9586 52.6727ZM63.0695 55.7273L60.3736 48.2853L61.3609 47.8475L64.331 55.1679L63.0695 55.7273Z" fill="#F9EDD4"/>
<path d="M78.0427 49.0883L73.2927 51.1944L70.0921 43.9762L74.4692 42.0354L74.9556 43.1324L71.9169 44.4797L74.1446 49.504L77.5563 47.9913L78.0427 49.0883ZM72.3342 47.8783L71.8624 46.8142L75.3948 45.248L75.8666 46.3121L72.3342 47.8783Z" fill="#F9EDD4"/>
<path d="M79.6454 48.3777L76.4449 41.1594L78.595 40.206C79.1435 39.9628 79.6529 39.8289 80.1233 39.8041C80.5936 39.7793 81.0017 39.8609 81.3475 40.0488C81.6902 40.2295 81.9474 40.5136 82.1193 40.9012C82.262 41.223 82.325 41.5626 82.3085 41.92C82.2919 42.2773 82.2059 42.6261 82.0504 42.9664C81.9023 43.3033 81.6965 43.609 81.4331 43.8833C81.1697 44.1576 80.8625 44.3726 80.5114 44.5282L78.855 45.2627L78.4464 44.3412L80.2784 43.5289C80.4832 43.4381 80.6437 43.2969 80.76 43.1053C80.8764 42.9137 80.9436 42.7002 80.9616 42.4646C80.9765 42.2218 80.9336 41.987 80.8331 41.7603C80.6839 41.4239 80.4396 41.2084 80.1002 41.1139C79.768 41.0161 79.3753 41.0677 78.9218 41.2688L78.2307 41.5752L80.9838 47.7842L79.6454 48.3777ZM85.1181 46.0955C84.811 46.2317 84.5225 46.3115 84.2528 46.3348C83.9872 46.3475 83.7188 46.3047 83.4476 46.2061C83.1763 46.1076 82.8703 45.9502 82.5293 45.7338L80.2655 44.2697L81.1813 43.4042L83.6365 44.6784C83.9061 44.8127 84.1363 44.9075 84.3271 44.9629C84.5147 45.011 84.6751 45.0274 84.8084 45.0121C84.9489 44.9935 85.0704 44.9615 85.1728 44.9161C85.2166 44.8967 85.2772 44.8655 85.3544 44.8225C85.4389 44.7762 85.5112 44.7223 85.5714 44.6606L86.2129 45.3082C86.0211 45.507 85.8345 45.6685 85.6533 45.7926C85.4793 45.9135 85.3009 46.0144 85.1181 46.0955Z" fill="#F9EDD4"/>
<path d="M91.9752 40.7842C91.8876 40.5868 91.7529 40.4408 91.5711 40.3464C91.3892 40.2521 91.1736 40.1901 90.9242 40.1607C90.6822 40.128 90.4235 40.107 90.1482 40.0979C89.8728 40.0887 89.5906 40.0738 89.3014 40.0532C89.0196 40.0294 88.7442 39.9809 88.4754 39.9075C88.214 39.8309 87.9761 39.7089 87.7618 39.5414C87.5475 39.3739 87.3739 39.1402 87.2409 38.8403C87.0334 38.3723 86.968 37.9287 87.0447 37.5096C87.1255 37.08 87.3098 36.6964 87.5976 36.3587C87.8928 36.0178 88.2634 35.7485 88.7096 35.5507C88.9875 35.4275 89.3092 35.3242 89.6748 35.2408C90.0404 35.1575 90.384 35.1233 90.7057 35.1382L90.7775 36.6028C90.4632 36.5058 90.1335 36.4726 89.7882 36.5032C89.4397 36.5265 89.1448 36.5916 88.9035 36.6986C88.6768 36.7991 88.5171 36.9224 88.4243 37.0686C88.3316 37.2147 88.2852 37.3666 88.285 37.5241C88.289 37.6712 88.3169 37.8032 88.3688 37.9202C88.4466 38.0957 88.5732 38.2234 88.7486 38.3031C88.924 38.3829 89.1327 38.4391 89.3747 38.4718C89.6208 38.494 89.8852 38.508 90.1678 38.5139C90.4505 38.5199 90.7344 38.5384 91.0195 38.5695C91.3119 38.5974 91.592 38.6569 91.86 38.7481C92.132 38.8288 92.3768 38.9565 92.5944 39.1314C92.8087 39.2989 92.9839 39.5362 93.1201 39.8434C93.3406 40.3407 93.4064 40.8147 93.3175 41.2654C93.2253 41.7089 93.0206 42.1059 92.7035 42.4565C92.3905 42.7966 92.0036 43.0688 91.5429 43.2731C91.0675 43.4838 90.5979 43.6089 90.1341 43.6483C89.6702 43.6877 89.2698 43.6727 88.9328 43.6034L89.0912 42.1548C89.4623 42.2616 89.8538 42.3155 90.2656 42.3167C90.6742 42.3106 91.043 42.2345 91.3721 42.0886C91.6574 41.9621 91.8573 41.7816 91.9721 41.5469C92.0941 41.309 92.0952 41.0548 91.9752 40.7842Z" fill="#F9EDD4"/>
<path d="M95.6076 41.3001L92.4071 34.0819L93.4931 33.6003L96.8802 40.7359L95.6076 41.3001ZM101.433 38.7173L100.884 38.9605L93.2545 34.8088L92.8679 33.8776L93.7674 33.4787L100.753 37.2729L101.433 38.7173ZM98.8136 31.2413L102.014 38.4595L100.928 38.9411L97.5411 31.8055L98.8136 31.2413Z" fill="#F9EDD4"/>
<path d="M108.699 35.4953L103.549 30.0079L104.087 29.7696L104.739 37.2512L103.346 37.869L103.053 29.3617L104.237 28.8364L110.191 34.8338L108.699 35.4953ZM103.725 35.2595L103.638 33.9983L106.754 32.6169L107.817 33.4452L103.725 35.2595Z" fill="#F9EDD4"/>
<path d="M111.516 34.2463L108.316 27.0281L110.466 26.0747C111.014 25.8315 111.524 25.6975 111.994 25.6728C112.464 25.648 112.873 25.7296 113.218 25.9175C113.561 26.0982 113.818 26.3823 113.99 26.7699C114.133 27.0917 114.196 27.4313 114.179 27.7886C114.163 28.146 114.077 28.4948 113.921 28.835C113.773 29.172 113.567 29.4776 113.304 29.752C113.041 30.0263 112.733 30.2413 112.382 30.3969L110.726 31.1314L110.317 30.2099L112.149 29.3976C112.354 29.3068 112.515 29.1656 112.631 28.974C112.747 28.7824 112.814 28.5689 112.833 28.3333C112.847 28.0905 112.805 27.8557 112.704 27.629C112.555 27.2925 112.311 27.0771 111.971 26.9825C111.639 26.8848 111.246 26.9364 110.793 27.1375L110.102 27.4439L112.855 33.6529L111.516 34.2463ZM116.989 31.9642C116.682 32.1004 116.393 32.1801 116.124 32.2035C115.858 32.2162 115.59 32.1733 115.318 32.0748C115.047 31.9763 114.741 31.8188 114.4 31.6025L112.136 30.1384L113.052 29.2729L115.507 30.5471C115.777 30.6813 116.007 30.7762 116.198 30.8316C116.386 30.8797 116.546 30.8961 116.679 30.8807C116.82 30.8622 116.941 30.8302 117.044 30.7848C117.088 30.7654 117.148 30.7341 117.225 30.6911C117.31 30.6449 117.382 30.591 117.442 30.5293L118.084 31.1768C117.892 31.3757 117.705 31.5372 117.524 31.6613C117.35 31.7821 117.172 31.8831 116.989 31.9642Z" fill="#F9EDD4"/>
<path d="M120.018 30.477L116.817 23.2587L118.243 22.6264L121.444 29.8446L120.018 30.477ZM114.94 25.3905L114.458 24.3044L120.613 21.5757L121.094 22.6618L114.94 25.3905Z" fill="#F9EDD4"/>
<path d="M124.157 25.5963L121.799 21.0495L123.324 20.3734L125.133 25.1634L124.157 25.5963ZM125.813 27.9992C125.55 28.116 125.304 28.1332 125.075 28.051C124.853 27.9655 124.687 27.7984 124.577 27.5498C124.463 27.2938 124.449 27.055 124.535 26.8333C124.627 26.6084 124.805 26.4375 125.069 26.3208C125.325 26.2073 125.564 26.1933 125.785 26.2788C126.007 26.3643 126.174 26.535 126.288 26.791C126.398 27.0396 126.411 27.2748 126.325 27.4965C126.24 27.7181 126.069 27.8857 125.813 27.9992Z" fill="#F9EDD4"/>
</svg>
