<?xml version="1.0" encoding="UTF-8"?>
<svg id="Layer_1" data-name="Layer 1" xmlns="http://www.w3.org/2000/svg" viewBox="0 0 287.73 302.05">
  <defs>
    <style>
      .cls-1 {
        fill: #c5110d;
      }
    </style>
  </defs>
  <path class="cls-1" d="M95.37,23.99c1.04,4.68,2.73,12.55,2.73,12.55,1.4,9.64,3.06,19.42,4.36,29.17,1.16,8.66,1.76,17.41,2.78,26.11.33,2.84,1.4,6.18,1.58,9.19.67,1.21,15.1,4.55,17.45,4.22.13.95-1.24.51-1.9.54-4.85.2-10.36-1.29-14.99-2.72l1.64,9.81c6.12.47,13.88,1.24,15.48,8.29.27,1.2-.21,2.44-.15,2.56s1.16.36,1.59.84c4,4.39,3.41,2.23,7.92,4.09,3.92,1.62,9.12,8.67,8.41,13.12.88.22.87-.16,1.31-.59,2.56-2.53,6.25-6.61,9.64-7.81,1.25-.44,8.32-2.3,8.67-.58.31,1.5-6.57,3.29-8,3.98-5.82,2.82-11.46,8.48-13.33,14.75l-2.11.07c-.19-2.79,1.53-5.02,2.73-7.34-3.15-1.83-2.22-6.41-4.14-9.51-2.58-4.16-12.55-5.93-13.23-8.63-.22-.86.5-2.04.25-2.36-.32-.4-1.39-.44-1.9-.87-2.11-1.81-4.24-6.2-6.9-6.7-1.02-.19-4.96-.62-5.95-.6-9.1.24-8.92,15.21,1.08,15.34,2.96.04,6.44-1.93,9,.76,2.71,2.86,1.23,8.67,1.84,12.46,2.3,14.2,14.79,22.16,28.91,19.96,2.2-.34,4.04-2.68,6.57-2.15.86,3.67-5.41,4.15-8.02,4.96-.43.13-.39.86-.85.99-11.77,3.54-28.35-11.59-29.5-23.19-.39-3.97.7-8.23-1.12-11.96-2.09-.66-4.04.39-6.31.34-4.24-.09-7.97-2.05-10.35-5.48l-53.14,75.78c3.05-6.93,7.58-13.26,11.76-19.58,5.15-7.79,11.12-17.3,17.16-23.87,1.54-1.67,2.61-5.68,3.74-7.54,3.28-5.39,7.14-9.62,10.97-13.7,1.51-1.61,4.55-9.06,6.81-11.13.5-.45,1.17.03,1.26-.09.13-.16.02-.83.28-1.3.13-.24.81-.27.89-.61.25-1.14-.51-2.22-.44-3.16.18-2.42.77-4.76,2.07-6.81l-60.51-20.18-.55,4.36c2.55,1.03,5.27.25,7.86.6,4.31.58,10.37,6.77,14.31,9.13l20.77,10.3.67,1.79c-6.18-2.75-13.06-5.82-18.91-9.16-4.94-2.83-12.24-9.85-17.34-10.46-1.62-.2-6.18-.63-7.64-.59-2.37.07-2.23,4.25-3.13,6.73-1.11,3.05-3.2,5.63-4.49,8.59-7.19,16.42-6.29,34.51.17,51.07,3.54,9.07,6.98,16.21,8.66,26.23,1.95,11.7,1.29,13.43-3.12,23.82-1.61,3.78-1.43,9.41-7.26,8.39-.93-.38-.98-.77-.8-1.7.26-1.26,2.68-4.68,3.42-6.42,1.6-3.8,2.52-7.83,4.3-11.55l.12-1.54c-1.74-7.07-3.09-14.22-6.38-20.9-3.61-7.33-9.4-14.22-13.58-20.91-5.06-8.11-5.95-17.12-5.85-26.59.12-12.53,3.87-22.2,12.18-31.86,1.52-1.77,4.21-2.89,5.14-5.49-4.22-.93-9.09-3-10.24-7.49-.87-3.39,1.23-4.02-3.67-5.6-1.47-.47.35,2.83.18,3.97-.51,3.48-5.67,4.38-8.48,2.16-1.23-.97-7.41-9.6-7.66-10.9-.95-4.87,6.1-4.66,9.31-5.17,2.71-.43,7.8-2.28,10.23-.16,1.96,1.71,1.74,3.3.54,5.34-.49.83-2.56.78-.82,2.04,5.57-3.06,10.78-.99,16.62-.54.65-9.24-4.9-16.56-6.42-25.48-2.15-12.67-1.42-31.87,10.61-39.29,15.66-9.66,34.76,2.66,48.1-12.84.44-.51,1.27-.12,1.67-.73,1.08-1.67.1-4.33,3.26-4.53.33,1.2-.51,2.57-.47,3.58.17,4.33-.4,9.66.5,14.12.24,1.19,1.36,1.89,1.52,2.86.18,1.14.63,3.43.63,3.43ZM91.25,13.44c-.24-.55-1.36-3.73-1.6-3.63-3.16,1.36-6.88,6.18-9.54,7.36s-6.18.88-9.16,1.74c-2.02.58-4.05,1.95-6.12,2.61-3.19,1.01-7.16,1.17-10.18,2.9-4.28,2.45-12.95,12.75-14.77,17.4-4.32,11.05,4.88,27.74,4.24,39.68-.08,1.43-.65,2.99-.93,4.4.12.65,3.2,1.6,3.97,1.84,9.63,2.95,21.82,5.82,31.73,8.06,8.32,1.88,16.82,2.94,25.2,4.51.5-.58-1.89-10.21-2.13-11.76-1.35-8.48-1.42-17.83-2.79-26.1-.44-2.64-.72-2.74-1.01-6.02-1.13-12.47-5.53-26.67-6.65-39.8-.17-2.04.52-1.4-.26-3.18ZM35.94,85.62c-4.27-1.28-7.61-1.03-11.97-.56,2.98,2.51,7.76,3.51,11.44,4.91l.53-4.35ZM104.63,101.98c-13.43-.62-26.26-4.79-39.21-7.95-7.39-1.8-15.01-2.94-22.11-5.68l-1.35,4.88c10.76,2.28,20.81,7.01,31.17,10.54,6.77,2.31,25.49,9.62,31.38,10.06,1.01.07,1.88-.42,2.86-.42l-2.75-11.42ZM34.32,92.7c-3.01.13-14.18-7.38-12.86-1.07,1.24,5.9,11.93,9.15,12.86,1.07Z"/>
  <path class="cls-1" d="M158.07,203.64c.81,8.24,8.02,22.12,12.85,28.58,6.34,8.49,20.43,9.24,29.8,11.09,5.78,1.14,11.54,2.58,17.32,3.68.81.73-.04,1-.81,1.09-7.36.86-13.74.1-20.99-1.09l.34,1.67c3.34,2.07,6.98,3.79,10.19,6.06s7.56,7.65,10.43,8.65c3.64,1.26,8.88.48,12.02,3.79l1.33-2.46c-3.96-2.42-8.06-4.37-11.46-7.61-1.78-1.69-4.36-4.54-3.79-7.09,0-.51,1.02-.39,1.37-.3.81.19,4.77,5.85,6.53,7.1,6.76,4.81,12.7,5.31,20.02,7.78,7.07,2.39,13.18,6.74,15.31,14.13,1.3,4.51.68,7.34,3.73,11.53.41.57,4.02,2.82,1.2,3.56-.19.05-3.8-.1-3.98-.19-.68-.3-3.01-2.97-3.34-3.8-1.01-2.55-.47-6.7-1.44-10.01-1.16-3.95-5.15-9.72-9.28-10.89-.97-.27-2.1,0-3-.27-3.51-1.05-6.92-2.07-10.22-3.68v10.09c0,.8-5.88,12.68-6.8,14.46-1.47,2.85-4.29,8.54-6.02,10.89-1.37,1.86-3.24,1.74-5.3,1.51-8.6-1-1.85-8.55-1.65-13.36s-3.34-10.87-7.32-13.66c-3.55-2.49-15.27-6.59-19.56-7.18-2.37-.32-5.24.91-7.63,1.07-14.43.95-24.42-.45-34.85-11.44-9.63-10.15-13.26-17.68-15.95-31.48-.41-2.1.06-5.03-.56-7.07-.79-2.59-3.23-7.09-5-9.17,3.7-3.94,9.27,3.86,10.47,6.97,1.51,3.93.49,9.92,1.03,14.24,1.55,12.37,12.22,25.81,23.17,31.35,1.48.75,6.15,2.89,7.61,3.29,4.83,1.34,10.97-.98,15.78-.94,7.4.06,19.71,2.07,25.78,6.29,6.82,4.76,11.62,14.1,9.13,22.51-.47,1.58-3.28,4.64-1.38,6.26,1.61.9,3.45.67,4.61-.86l12.16-23.27c1.76-9.72-8.89-7.84-14.08-10.2-3.21-1.46-5.66-5.07-8.18-7.08-3.63-2.91-10.59-5.67-13.32-8.48-.89-.92-1.2-2.49-1.92-2.98-1.19-.82-8.18-1.44-10.45-2.08-19.34-5.47-26.52-25.06-24.98-43.76l1.11-5.7c.19,2.73-.27,5.76,0,8.45Z"/>
  <path class="cls-1" d="M182.6,115.59c1.13,3.42,1.98,7.28,2.15,8.48,1.97,13.59-1.87,27.68-3.5,41.12-.48,3.94,1.21,9.67,3.34,13.02s6.38,5.39,6.73,9.34c-2.28.64-2.51-1.28-3.88-2.36-19.12-15.09-5.35-37.91-6.45-57.36-.38-6.76-2.13-18.37-8.9-21.63-1.64-.79-4.54-.2-4.75-3.15,3.41.83,7.82,1.64,10.35,4.24"/>
  <path class="cls-1" d="M236.24,233.71c3.61,4,12.55,13.59,17.03,15.38,6.26,2.49,10.7-1.18,16.14-.33,12.35,1.92,12.31,13.55,7.97,22.97-1.94,4.2-5.85,8.12-6.89,12.74-.38,1.67-.17,7.77-.4,8.31-.27.63-3.93,4.18-3.49,1.99,1.92-3.92.47-8.42,1.16-12.48.4-2.34,2.1-3.8,2.86-5.87,1.98-5.37,4.31-13.07,3.51-18.75-.59-4.14-2.79-5.91-6.83-6.3-3.48-.34-8.8,1.48-12.49,1.09-7.31-.79-13.79-10.29-18.78-15.01-1.13-1.07-6.5-4.14-5.46-5.71,4.62-1.64,3.72-.18,5.67,1.98Z"/>
  <path class="cls-1" d="M111.73,137.4c-2.67,6.25,3.19,12.5,3.83,17.7,1.26,10.19-2.95,16.84.13,28.22,3.59,13.23,11.68,14.16,22.4,19.58,3.86,1.95,10.66,4.51,7.68,9.73-6.26-2.03-13.84-4.18-19.29-7.93-9.64-6.64-15.32-22.37-14.75-33.77.25-4.85,2.27-9.8,1.64-14.74-.4-3.21-3.49-7.71-4.13-11.14-.46-2.47-1.25-8.77,2.48-7.66Z"/>
  <path class="cls-1" d="M216.04,212.45c2.32,2.72,3.35,2.81,4.88,6.32,1.2,2.76.9,5.6,4.08,6.8,6.97.78,13.16,4.15,19.74,6.42-.95,1.34-.98.4-1.8.18-4.43-1.2-11.23-5.4-15.61-3.96-2.03.67-4.36,3.78-5.77,4.05-2.51.48-7.63-.76-8.32-3.65-.89-3.72-.96-9.12-2-12.72-1.78-6.17-7.27-15.32-11.28-20.36-.4-.5-.9-.73-1.45-1l-.09-4.25c2.57-1.43,6.62,6.91,7.95,8.67,3.06,4.03,6.83,10.15,9.68,13.49Z"/>
  <path class="cls-1" d="M120.4,75.85c.23,2.21-.15,4.47.12,6.69.64,5.27,2.02,9.95,7.07,12.55s12.32,2.47,17.69.9c4.11-1.2,7.43-4.47,11.69-4.38-.03,3.78-3.26,4.29-5.39,5.78-6.17,4.33-7.85,5.48-16.08,4.52-2.8-.33-12.53-3.88-14.2-5.97-1.07-1.33-4.02-10-4.07-11.74-.04-1.36.72-8.05,1.57-8.71l1.6.37Z"/>
  <path class="cls-1" d="M278.38,103.44c6.73,14.1,7.04,30.09,8.54,45.7.73,7.57,1.53,9.18-.37,17.09-.73,3.03-2,7.04-3.46,9.66-2.91,1.49-11.36-5.71-13.38-7.92-1.1-1.19-1.3-3.92-3.78-3.34-6.12,3.38-2.1,5.34-1.96,9.64.03,1.04-1.08,7.15-1.58,7.58-2.94,2.53-11.69.52-13.23-3.13-.42-1-.19-2.13-.45-2.72s.08-2.92-1.6-3.14c-1.3-.17-2.97,2.47-3.12,3.13-.88,3.83,1.78,6.8-3.96,7.55-1.99.26-6.45-.62-8.14-1.73s-3.9-5.45-5.23-5.7c-3.62-.68-5.3,5.12-9.72,4.9-7.49-.38-9.2-9.84-14.99-13.41-3.52-2.16-8.82-2.44-12.59-4.59.43-5.17,4.79-1.49,7.49-.67,3.68,1.11,5.71,1.1,9.31,3.22,3.07,1.81,2.32,1.83,3.44,3.08.4.44,4.01,10.15,8.07,8.3.85-.39,2.04-2.27,3.01-2.98,1.88-1.38,6.5-2.78,8.57-1.63.17.1,2.72,2.6,2.84,2.75,1.59,2.15,1.33,5.86,6.04,5.74,2.33-.06,1.58-2.04,1.91-3.22.17-.61-.08-1.69-.03-2.25.23-2.46,1.3-4.03,3.7-5.08,3.48-1.52,4.13-.78,7.12.55s.76,7.58,4.86,8.48c2.36.51,4.14-1.94,3.98-3.94-.12-1.56-2.33-3.1-2.18-5.42.25-3.92,4.87-8.61,8.59-9.47,8.4-1.94,6.44,6.88,13.2,9.12,1.52-3.52,3.49-8.34,3.32-12.26-.11-2.65-1.33-4.98-1.64-7.13-2.3-15.57-1.26-35.91-10.04-49.94-1.53-2.45-10.81-14.29-12.86-14.95s-7.95-.68-10.01-.23c-.38.08-12.29,4.87-15.41,8.67-.88,1.07-.88,2.36-1.62,3.28-5.75,7.19-10.34,15.93-14.14,24.57-1.29,2.94-4.66,14.73-6.97,16.2-.89.57-7.11,1.79-8.33,1.8-2.71.02-11.83-1.98-13.9-3.54-.9-.67,4.19-4.97,5.47-4.12,2.94,1.94,8.52,3.18,11.4.24.97-.99,1.06-2.06,1.69-3.1,2.04-3.35,3.66-7.8,5.37-11.64,4.24-9.48,8.54-19.52,15.86-27.21,9.24-9.7,29.52-17.29,39.82-5.45,3.52,4.04,8.73,13.71,11.08,18.64Z"/>
  <path class="cls-1" d="M227.49,70.9h0c.78,2.25.91,4.33-.87,5.93-6.04.02-6.55-7.61-12.18-8.42-3.64-.52-7.73,4.27-8.25,4.89-1.49,1.77-2.6,13.63-3.38,16.8-1.1,4.47-6.95,20.57-10.22,23.04-1.39,1.05-3.07,1.35-3.82,1.16-.57-.14-5.17-3.74-4.51-4.03,4.41-1.97,11.06-20.71,12.97-27.38l.83-9.26c0-.62-.08-1.26.03-1.88.44-2.59,5.79-7.94,8.12-8.78,7.55-2.73,16.76,1.81,21.28,7.93Z"/>
  <path class="cls-1" d="M267.26,147.54c.93,1.04,2.46.47,3.28,1.59-.99,4.06-3.16,4.45-6.66,2.45-1.55-.88-3.51-5.49-4.38-5.37-2.11-.01-3.39,3.41-3.77,3.62-.57.32-1.7,0-2.59.4-.81.36-1.4,1.79-2.71,2.2-2.15.67-6.21-3.42-8.33-2.74-1.03.33-1.5,4.07-1.5,4.07l-10.37,7.1c.31-1.19-.68-2.75-.28-3.8.27-.7,4.78-5.22,5.78-6.24,1.32-1.35,1.55-1.51,2.64-2.77,4.36-5.09,7.32,1.41,10.4.97.21-.03,1.43-2.05,3.96-2.11,1.73-.04-.48-4.12,1.73-5.17,4.08-1.94,4.62-.44,7.93.87.83.33,4.3,4.27,4.88,4.92Z"/>
  <path class="cls-1" d="M262.38,116.16c-5.7-.92-1.9-11.09-8.39-10.86-2.44.09-11.81,4.98-13.79,6.67-7.57,6.43-8.2,18.34-14.34,25.75-.64.77-4.81,3.02-5.45,2.43-1.3-1.19,4.84-5.02,5.45-5.72,2.1-2.43,5.34-9.04,5.92-12.14.24-1.31,0-3.43.25-4.87.66-3.77,9.01-9.73,12.55-11.71,3.12-1.74,9.23-5.24,12.58-3.12.24.15,3.89,3.9,4.01,4.17.25.55,2.06,5.54,2.08,5.85.06,1.07-.8,2.43-.86,3.56Z"/>
  <path class="cls-1" d="M128.63,39.26c2.31-.84,10.34-.37,10.26,2.91-.04,1.62-1.33,1.4-2.24,1.99-.4.26-.35,1.11-.7,1.11-.66,0-1.48-.64-2.64-.56-1.41.1-3.8,1.61-5.7,1.16-.49,2.25,0,4.93-2.25,6.47l1.35-6.58c-1.56-1.6-6.53-3.19-5.68-6.17.19-.65,1.3-.72,1.62-1.26,1.24-2.06,1.57-5.08,3.55-7.22,1.21-1.31,2.9-1.26,2.98-2.76,3.24,1.48-2.04,9.42-.55,10.9Z"/>
  <path class="cls-1" d="M125.9,53.43c.14.14-.07,3.58-.15,3.94-.99,4.4-5.56,9.9-8.56,13.23.02,1.34,9.23,3.19,10.87,4.38,1.27.92-.97,1.88-1.88,1.93-2.48.14-13.9-5.06-13.91-7.4,1.94-1.44,6.43-2.78,8.02-4.26,2.42-2.26,3.56-8.56,3.98-11.83h1.63Z"/>
  <path class="cls-1" d="M160.59,16.04c2.29,1.83,4.22,8.05-.14,8.43-1.03.21-.66.04-.75-.74-.18-1.65.67-4.59-1.1-5.48-.35-.17-4.3-.19-4.92-.05-1.89.42-3.49,2.62-5.16,3.05-1.35.35-.52-1.15-.97-2.03-.08-.17-2.15-.61-.38-2.6.65-.74,5.9-2.66,7.09-2.77,2.21-.21,4.64.83,6.34,2.18Z"/>
  <path class="cls-1" d="M134.63,15.26c-2.54,0-3.33,2.12-4.55,3.14-.65.54-2-.67-1.45,2.33l-1.63-1.63-.31,2.17,1.94,1.38-1.09,1.08,4.36,2.73c.66,1.34-3.25,1.58-4.35,1.07-.49-.22-2.44-2.29-2.62-2.83-.27-.86-.61-9.04-.36-9.43,1.22-1.89,7.17-3.73,8.98-2.47l1.07,2.47Z"/>
  <path class="cls-1" d="M182.6,65.43l-2.11,7.86c.59,2.4,6.41-.66,7.54-1.62.3-.26,3.42-3.82,3.54-4.06,1.44-2.81-.2-3.77-1.89-5.45,5.33.1,6.32,1.76,3.93,6.38-2.12,4.1-8.38,9.12-13.17,7.49-3.29-1.12-1.63-2.63-1.62-4.88.01-3.13-1.34-6.08,3.77-5.72Z"/>
  <path class="cls-1" d="M194.16,44.63c.15.23,1.04.28,1.28.62,1.2,1.71-4.21,7.33-4.66,9.28,2.45-.08,5.45-1.67,7.09,1.09-1.86.13-3.84-.2-5.68.05-3.03.41-5.56,3.59-7.94.77,2.64-1.48,4.21-4.24,6.15-6.1.68-.65,2.31-.71,2.84-1.8,1.84-3.8-.59-6.66-4.36-7.09s-7.52-.11-11.17.55l1.63,1.62-2.91.03-.88-1.39c.06-1.99,16.46-4.39,18.79.85.27.61-.29,1.35-.18,1.52Z"/>
  <path class="cls-1" d="M172.06,68.87c3.22,3.87-.82,11.67-5.04,12.34-1.94.31-6.6-.15-4.29-2.68s1.74-.74,3.63-1.19c3.89-.92,6.09-7.11,2.21-8.01-.63-.15-7.38,2.53-6.7-.35.37-1.55,7.83-2.93,10.18-.11Z"/>
  <path class="cls-1" d="M166.95,62.04c.07.13.69.12.75.24,1.52,2.87-6.91,3.75-6.3-.27.42-2.74,2.26-1.88,3.17-2.33,3.21-1.58,4.14-5.69,3.86-8.98l1.63,1.63.27-2.18c3.95,2.35-4.38,9.88-3.38,11.88Z"/>
  <path class="cls-1" d="M149.89,37.08c1.03,1.15-1.12,2.43-1.15,2.98-.3,5.32,8.64,2.5,11.78,2.47,1.52,2.33-4.31,3.29-6,3.32s-3.77-.59-5.12-1.46c-4.94-3.17-.75-8.69.49-7.31Z"/>
  <path class="cls-1" d="M180.28,24.66c.51.58.39,1.51.72,2.18.19.38.82.43.87.54.11.26-.27.85-.07,1.45.27.81,1.09,1.4,1.1,2.52.02,1.92-3.14,6.58-5.21,3.82.57-.88,1.46-.32,2.19-1.02,2.07-2,1.25-6.7-.56-8.8-4.8-.77-9.52-.22-14.18.82.17-.64.88-1.31,1.49-1.51,2.91-.94,7.74-1.6,10.74-1.18.58.08,2.59.83,2.9,1.19Z"/>
  <path class="cls-1" d="M134.63,58.34h1.63c.65,6.97,8.09,5.88,11.45,1.31.71-.97.38-3.92,2.18-4.59.36,5.49-6.03,13.32-11.72,9.27-.95-.68-4.54-5.01-3.54-6Z"/>
</svg>