<?xml version="1.0" encoding="UTF-8"?>
<svg id="Layer_1" xmlns="http://www.w3.org/2000/svg" viewBox="0 0 82 95.5">
  <defs>
    <style>
      .cls-1 {
        fill: #9d0000;
      }
    </style>
  </defs>
  <path class="cls-1" d="M41.17,20.05c1.37-1.16,2.47-1.87,3.3-2.82,6.66-7.64,15.11-7.61,23.85-5.28,4.84,1.29,7.38,4.85,7.31,10.06-.2,15.71-6.53,29.39-14.09,42.65-4.2,7.37-8.37,14.77-12.91,21.94-3.65,5.77-6.49,5.42-10.31-.12-6.98-10.13-13.72-20.5-21.54-29.96C6.41,43.96,4.2,30.17,7.92,14.9c1.31-5.36,4.17-9.43,10.03-10.56,6.24-1.2,11.58.21,15.57,5.43,2.5,3.28,4.92,6.61,7.65,10.28Z"/>
</svg>