<?xml version="1.0" encoding="UTF-8"?>
<svg id="Layer_1" xmlns="http://www.w3.org/2000/svg" viewBox="0 0 82 95.5">
  <defs>
    <style>
      .cls-1 {
        fill: #9d0000;
      }
    </style>
  </defs>
  <path class="cls-1" d="M44.31,17.42c3.29-3.86,6.16-7.53,9.35-10.89,3.53-3.73,7.7-6.28,13.18-6.06,5.41.21,9.35,2.71,11.37,7.57,4.28,10.28,4.63,20.62,2.15,31.72-3.32,14.88-11.42,27.18-18.42,40.17-1.81,3.36-3.23,6.93-4.85,10.4-1.66,3.58-4.34,4-7.65,1.88C27.81,78.34,14.22,57.85,3.19,35.47-.89,27.18-1.62,17.78,3.41,9.57,9.43-.24,26.62-.94,35.1,7.63c3.03,3.07,5.91,6.28,9.21,9.79Z"/>
</svg>