<?xml version="1.0" encoding="UTF-8"?>
<svg id="Layer_1" data-name="Layer 1" xmlns="http://www.w3.org/2000/svg" viewBox="0 0 527.25 478.51">
  <defs>
    <style>
      .cls-1 {
        fill: #c5110e;
      }

      .cls-2 {
        fill: #fefefe;
      }
    </style>
  </defs>
  <path class="cls-1" d="M200.8,300.34c.8,1.13,5.18,1.35,6.61,1.05,1.89-.4,6-3.79,7.17-5.36.71-.95.99-2.46,1.69-3.22.76-.83,2.08-.88,2.68-1.68,1.26-1.68,2.46-7.67,3.69-9.95s3.65-4.32,5.92-2.35c4.63,4.01-6.61,13.36-5.45,16.88.31.96,3.65,1.65,4.73,1.85,2.41.45,11.36,1.24,13.09.01.49-.35,2.49-6.6,3.19-7.99,2.58-5.1,9.29-13.35,15.43-9.03,3.46,2.44,2.46,6.2,1.01,9.66-2.26,5.39-7.74,7.37-12.31,10.32-.13,4.34-2.29,13.14,2.75,15.3,2.02.87,3.47.54,5.28-.44,6.56-3.57,8.86-13.47,12.48-19.69,10.61-18.26,9.63,3.12,10.73,3.1,1.01-.02,1.84-1.5,2.81-2.1,5.92-3.63,12.85-4.28,19.25-6.37,1.77-.58,5.42-3.61,6.83-.81,1.79,3.56-2.89,5.58-5.45,6.56-9.21,3.52-23.91,3.14-20.88,17.6.49,2.32,4.05,6.19.74,8.61-5.07,3.71-7.96-9.92-8.43-12.92-.23-1.47-.31-8.6-.61-8.93-.8-.88-.96.29-1.22.7-2.82,4.39-4.29,10.49-7.77,14.58-11.7,13.76-25.67,3.6-24.27-12-4.5.96-9.23.49-13.78-.13-1.32-.18-4.46-1.81-5.77-.89-1.06.74-3.22,13.41-4.56,15.89-1.15,2.14-4.26,3.87-5.58.93-1.64-3.64,3.5-12.58,4.06-16.63-1.6.15-2.81,1.69-4.22,2.32-4.42,1.96-5.6,1.23-9.79.26-2.81-.65-1.44.69-1.84,2.82-.59,3.13-1.59,6.23-2.06,9.4-1.37,9.28-2.36,36.44-8,42.72-2.77,3.09-8.72,1.16-10.19-2.3-2.27-5.34,2.59-21.02,4.34-27.02,2.3-7.94,5.24-15.71,7.79-23.57-.94-.24-1.09.38-1.64.81-6.06,4.72-12.03,12.57-18.25,16.65-3.45,2.26-9.24,1.17-10.75-2.89-.71-1.9-.53-5.11-.45-7.23.02-.57,1.36-5.5-.24-4.61-3.72,4.04-6.61,9.23-10.1,13.35-4.49,5.29-7.18,5.19-8.99,12.82-3.69,15.61-5.75,30.14-11.15,45.57-2.58,7.36-7.23,15.47-16.11,15.02-5.32-.27-5.93-4.65-5.71-9.04,1.03-20.2,14.03-36.4,25.73-51.71,2.45-4.63,2.07-10.03,2.34-15.11-4.56,6.21-10.89,10.94-19.05,9.78-6.87-.98-4.06-11.73-1.88-15.99s8.4-9.9,12.81-12.27c3.41-1.83,13.35-6.63,15.22-1.18,2.12,6.18-.78,14.93-.29,21.58.04.59-.3,1.82.81,1.35,1.84-.77,8.29-10.47,10.11-12.79,1.51-1.93,3.44-3.68,4.87-5.49,1.51-1.91,4.59-9.28,7.15-6.03,1.98,2.52-1.02,13.44-1.16,16.98-.12,3.18.97,4.97,4.37,3.78l15.56-14.43c4.12-4.51,10.66-9.28,11.56-15.7s.99-13.85,3.69-20.31c1.44-3.43,6.35-7.36,9.56-4.12.84.84,2.5,4.68,2.51,5.92.06,6.62-7.52,17.34-9.89,23.84-.36,1-1.33,3.44-.74,4.27ZM206.16,271.51c-2.56-1.76-4.44,7.24-4.74,8.61-.64,2.97-1.08,6.34-1.24,9.38.79-.28,1.39-2.11,1.73-2.9,1.42-3.35,4.2-9.53,4.58-12.9.05-.49-.15-2.07-.32-2.19ZM248.15,293.87c1.12,1.14,9.71-6.57,5.71-7.63-2.5-.66-6.06,7.28-5.71,7.63ZM136.19,311.13c2.11-3.35,2.65-7.22-2.55-6.1-4.77,1.03-12.3,8.12-14.08,12.63s.97,9.38,5.9,5.91c2.81-1.98,8.83-9.41,10.73-12.43ZM191.18,306.42v.55c.35-.18.35-.36,0-.55ZM193.08,316.78c-1.51-.26-.92.31-1.23,1.19-2.93,8.3-7.75,21.53-7.52,30.19.03.98.84,7.11,1.13,7.34.95.75.91-.19,1.13-.76,1.12-2.88,1.52-6,2.55-8.91l3.94-29.05ZM115.77,385.96c.58.36,4,.18,4.81-.19,2.81-1.27,5.5-9.17,6.4-12.15,2.78-9.28,4.27-19.1,6.69-28.48-2.77,2.42-5.28,6.17-7.31,9.32-4.59,7.11-11.55,19.68-11.73,28.12-.01.65.85,3.2,1.15,3.38Z"/>
  <path class="cls-1" d="M349.54,204.96c8.17-4.73,14.73-15.8,17.59-24.67.97-3.01,2.13-12.79,3.9-14.1,1.32-.98,2.78-.5,3.61.82,1.39,2.19-.9,10.07-1.12,13.13-.49,7.08.29,14.68.02,21.84-.14,3.66-1.84,6.46,3.26,1.63,2.04-1.93,6.66-9.64,10.21-6.15,2.82,2.77-3.75,6.63-5.33,8.31-1.45,1.53-6.17,8.16-6.44,9.96-.15,1.01,1.02,3.23,1.64,4.15,6.41,9.57,13.49.58,17.26-6,.78-1.36,1.16-3.07,1.99-4.55,1.22-2.19,4.21-8.42,5.48-9.79,1.71-1.83,9.68-4.1,8.99.77-.42,2.97-5.76,2.29-6,6.06s3,2.12,5.67,2.47c2.53.33,4.17,1.65,5.76,3.51,2.63,3.09,2.37,6.87,7.84,3.46,2.51-1.56,1.2-6.62,1.45-9.46.44-5.15,4.09-12.29,10.21-9.68,4.85,2.06,2.56,7.97.78,11.41-1.59,3.07-5.88,6.98-5.44,10.13.56,3.93,4.93,8.47,9.17,7.26,10.04-2.87,14.86-16.71,18.95-25.27-.97-12.13-5.85-28.07-1.67-39.82,1.29-3.62,3.47-5.25,7.5-4.47,2.6.5,4.73,6.77,5.05,9.13.62,4.62-.83,13.41-1.65,18.25-.78,4.59-4.44,15.4-3.98,18.98.66,5.19,4.99,16.62,7.82,21.12,1.28,2.03,6.25,7.82,8.56,7.81,1.4,0,3.38-1.53,4.39.51,1.45,2.91-2.06,5.16-4.77,4.81-8.51-1.09-17.08-19.46-18.41-27.17-1.24-.23-.87.09-1.22.7-.69,1.19-.9,2.66-1.6,3.84-2.1,3.57-6.55,10.22-9.7,12.65-9.06,6.99-17.53,6.03-23.03-4.28-.31-.58-.37-1.87-.47-1.96-.44-.39-5.71.86-5.9,1.09s.04,2.7-.3,3.8c-.23.75-2.93,4.65-3.58,5.14-1.87,1.4-6,1.83-8.19,1.13-.52-.16-3.78-2.16-3.97-2.6-.96-2.28.02-5.17,1.53-6.99,2.26-2.74,3.55-1.78,6.43-2.31.69-.13,1.69-.18,1.43-1.14-1.39-5.04-5.63-3.43-9.35-4.29-.87-.2-3.16-1.88-3.66-1.52-.16.12-.87,2.94-1.35,3.84-3.51,6.58-8.71,12.59-16.53,13.5-4.36.51-9.55-7.26-10.47-5.89-.11.17-.53,3.48-.57,4.07-.19,2.92.9,10.24-1.09,12s-3.82.21-4.62-1.87c-2.17-5.62.93-14.26,1.4-20.44.61-8.09,1.9-17.78,1.61-25.66-.02-.66.41-2.03-.54-1.9-3.16,7.32-8.22,14.62-14.76,19.32-1.41,1.02-3.45.94-3.65,2.87.21,3.79-.33,18.29,2.58,20.1,1.34.83,3.83-1.53,5.2,1.36,1.56,3.3-6.65,8.28-10.21,1.46-2.41-6.85-1.68-14.48-2.61-21.66-5.57.65-11.71.08-17.17.55-.6.05-3.19.47-3.44.65-.71.52-3.25,11.32-3.91,13.28-3.76,11.21-11.02,27.3-17.11,37.42-.83,1.38-6.33,8.68-7.98,7.01-1.45-1.47,3.74-7.25,4.57-8.79,18.16-33.52,24.47-71.55,34.41-107.93.56-2.04,2.87-9.01,4.91-9.31,3.75-.55,6.11,6.22,6.66,9.17,2.26,12.07,1.86,27.25,2.87,39.68.25,3.1,1.12,6.4,1.09,9.55ZM344.06,208.76c.35-.36.12-8.73.05-10.09-.52-9.59-1.37-19.3-2.2-28.89-.13-1.56-.03-12.8-1.91-12.8-2.75-.01-13.03,47.62-14.44,52.9,2.26.11,17.77-.36,18.51-1.11ZM463.47,161.87c-1.59-1.49-2.66,5.1-2.72,5.73-.62,6.98,1.07,14.01.54,20.99,1.37.48,1.48-1.66,1.57-2.51.72-6.33,1.6-14.41,1.18-20.69-.04-.58-.44-3.4-.57-3.52ZM433.48,201.15c-1.73-1.87-4.21,6.96-3.26,8.18l3.01-4.89c.24-.63.46-3.07.25-3.29ZM414.41,222.97c-1.62.79-4.5-.21-5.6.07-.93.24-2,2.03-1.48,2.65.21.25,4.32.73,5.09.47.58-.2,2.39-2.83,1.99-3.19Z"/>
  <path class="cls-1" d="M123.85,232.78l-1.48,3.7c-.99,4.99-2.35,18.66-10.47,12.9s-4.68-32.32-6.64-34c-.37-.31-3.55-.11-4.3.22-3.25,1.46-4.89,8.29-5.39,11.52-.67,4.33-1.04,8.76-1.64,13.08-.3,2.18-.03,8.17-2.08,8.83-2.35.75-2.69-.22-2.89-2.34-.54-5.69.95-13.22,1.12-19.07.07-2.41.36-7.2-.02-9.29-.1-.55-.27-1.18-.87-1.34-1.34-.36-7.99,3.58-9.73,4.37-1.05.48-3.11.26-3.5,1.4-.12,7.98-.07,15.97-.09,23.95,0,1.89,1.07,4.08-.48,6.02-1.34,1.67-5.13.36-5.34-1.74l.39-27.48c-2.09,1-14.02-2.71-14.71-2.18-.62.48-4.13,12.74-5.04,14.87-3.41,7.94-15.32,28.46-20.89,34.74-1.57,1.77-12.9,10.54-13.79,5.68-.38-2.04,3.02-2.91,4.24-3.79,11.46-8.27,16.84-24.84,24.68-36.4,4.26-14.3,10.1-28.78,14.22-43.05,1.44-5,2.03-10.51,3.65-15.44.97-2.94,6.09-14.85,10.08-10.05,3.74,4.5,3.14,16.21,3.57,22.07s1.68,10.81,1.08,16.91c-.17,1.73-2.5,8.08-1.63,9,.43.46,6.44-3.36,7.26-3.92,3.41-2.34,4.73-5.36,9.39-4.84,3.98.45,2.77,6.17,3.52,7.12.81,1.03,6.01-7.77,10.64-4.38,5.18,3.81,3.61,14.33,4.08,19.92.26,3.18.61,7.84,1.13,10.87.22,1.3,1.89,6.78,3.77,5.22.3-.25,1.08-6.42,1.36-7.64.49-2.12,1.37-4.39,1.77-6.41,1.25-6.34,1.4-14.7,3.01-20.44.45-1.58,1.45-3.59,3.33-3.55,2.83.06,2.79,7.02,3.08,9.14,3.5-4.68,10.92-15.96,16.9-7.91,2.85,3.84,1.01,6.14,1.07,9.79.05,3.3,2.21,15.41,3.47,18.4.82,1.95,1.42,2.77,3.82,1.99,1.87-.6,2.83-8.57,3.48-10.7,2.41-7.9,9.91-18.52,17.99-21.26,9.18-3.12,6.28,7.86,6.67,13.26.25,3.42,3.52,16.6,6.57,17.97,1.27.57,3.59,0,4.39,1.2,2.13,3.18-5.29,8.59-9.82,4.77-1.99-1.69-3.12-4.61-4.48-6.42-1.84-2.45-1.69.62-2.55,2.2-3.19,5.89-9.08,7.9-14.49,3.4l-2.5-3.76c-3.63,11-11.07,8.64-14.47-1.07-2.57-7.33-2.13-15.11-3.02-22.61-.57-4.83-2.61-4.38-5.4-1.12-6.2,7.26-4.78,12.76-5.47,21.26-.18,2.28-.67,9.59-1.37,11.18-1.11,2.53-5.17,2.67-5.17.83v-15.55ZM56.81,217.51c.12.12,2.67-.08,3.49.06,2.2.37,9.59,3.28,10.6.13.15-8.88.11-17.78.06-26.67-.02-4.2.53-8.89.06-13.09-.08-.7-.09-1.54-.85-1.88-1.42-.62-1.08.1-1.4.78-2.21,4.6-2.65,11.18-4.04,16.14-.85,3.05-8.83,23.63-7.91,24.54ZM174.39,213.22c-2.13.43-5.97,4.66-7.17,6.5-1,1.54-3.45,6.48-3.87,8.13-1.19,4.65-.08,14.89,6.04,8.77,5.15-5.15,5.06-15.47,6.81-22.12-.11-1.11-.73-1.5-1.81-1.28Z"/>
  <path class="cls-1" d="M399.69,310.24c-.45-.49-1.3.56-1.64.81-4.3,3.3-6.34,7.46-12.75,6.76-1.54-.17-4.52-1.7-5.38-1.49-3.11.76-7.27,5.28-11.62,5.86-5.33.72-9.95-2.41-10.55-7.92-.15-1.33.66-3.89.51-4.03-.9-.86-3.42,1.66-4.21,2.05-1.11.55-3.13.69-3.96,1.49s-1.26,3.63-2.07,5.02c-1.95,3.33-9.17,7.19-12.92,7.29-6.46.18-7.51-7.04-2.98-10.66,1.83-1.46,9.48-3.69,9.79-4.12.7-.97-2.55-2.87-3.19-3.62-5.29-6.25,0-10.37,5.2-13.72,2.49-1.6,11.52-7.27,13.75-4.15,1.02,1.42.66,3.09-.54,4.28-2.54,2.53-17.52,5.07-14.96,10.66.58,1.25,3.11,2.56,4.12,3.56.62.62.14,1.56,1.24,1.29s11.13-5.45,11.86-6.17c2.33-2.32,3.9-9.99,7.61-14.2,2.83-3.21,6.33-6.39,10.73-4.22,6.58,3.25-.04,11.97-3.65,15.12-2.07,1.81-8.91,5.57-9.75,7.15-.63,1.19-1.56,6.33-.91,7.32.7,1.06,4.74,1.22,6.03,1.08,6.58-.72,10.25-10.12,14.72-14.18,1.87-1.7,5.26-4.27,7.39-5.7,2.54-1.69,8.02-5.18,10.87-4.43,7.79,2.02,4.1,7.38,3.31,12.62-.23,1.54-.48,12.29-.05,12.76.49.54,11.22-6.53,12.71-7.19,2.06-.91,7.22-3.38,6.84.58-6.57,3.95-12.81,8.28-18.73,13.16-.3,5.32-.8,10.66-2.17,15.83-2.29,8.59-6.33,18.63-13.35,24.28-4.06,3.27-9.57,5.86-10.37-1.65-1-9.34,7.13-26.09,13.1-33.26,1.01-1.21,5.98-5.56,5.98-6.56v-11.73ZM375.16,290.06c-.58-.63-3.9,3.01-4.34,3.56-1.04,1.28-2.44,2.91-2.47,4.61,1.67-.54,8.33-6.51,6.82-8.17ZM399.14,298.24c-.53-.56-6.69,2.79-7.64,3.53-2.23,1.72-12.06,12.52-3.92,10.3,3.3-.9,13.7-11.55,11.56-13.83ZM399.14,332.06c-.63-.71-1.44.88-1.75,1.24-3.57,4.14-11.54,18.44-11.68,23.66-.06,2.07.73,3.5,2.55,1.56.67-.71,3.61-5.06,4.24-6.12,2.53-4.24,5-10.47,5.97-15.3.13-.66.84-4.86.67-5.05Z"/>
  <path class="cls-1" d="M499.45,94.23c1.26.31.89-.24,1.24-.69,2.23-2.88,5.42-7.5,7.38-10.58,1.72-2.7,4.99-10.84,7.35-11.79.7-.28,1.17-.39,1.88-.04,3.23,2.26,10.44,2.69,9.91,7.49-.27,2.47-4.12,10.06-5.53,12.5-2.58,4.46-6.16,8.11-8.96,12.31-4.78,7.18-9.14,16.12-15.25,22.38-3.06,3.13-5.45,3.25-9.43,1.36-4.52-2.14-4.7-7.5-4.99-11.92-.34-5.16.02-10.43.02-15.57l-10.89,16.64c-2.24,2.01-13.38-4.39-13.66-5.56-.21-.87.12-1.92.45-2.75,1.33-3.29,6.1-8.63,8.19-11.98,6.67-10.67,12.22-21.52,17.99-32.73,3-5.82,5.35-7.41,11.38-3.55,4.21,2.69,4.13,7.79,4.01,12.4-.03,1.29-.55,2.48-.59,3.77-.18,6.1-.25,12.2-.52,18.29ZM494.98,63.79c-.18-.29-2.84-1.27-3.42-1.22-2.34.2-3.56,6.13-4.56,8.03-4.32,8.23-9.5,16.14-14.17,24.01-1.58,2.65-8.77,12.66-8.87,14.63-.06,1.23,5.07,2.88,5.95,2.36.59-.35,6.55-9.99,7.4-11.42,2.21-3.77,4.46-13.56,10.01-10.99,3.37,1.56.95,6.95.68,9.69-.49,4.93-1.51,12.13-1.03,16.84.12,1.17,1.03,5.73,1.53,6.52,1.15,1.82,4.59,1.53,6.06-.03,2.09-2.22,6.56-9.48,8.6-12.51,4.4-6.52,9.49-13.27,13.63-19.64,1.17-1.8,5.52-9.67,5.56-11.32,0-.27-4.48-2.39-4.74-2.42-1.37-.15-3.81,6.31-4.96,7.96-3.57,5.13-10.46,16.11-14.3,20.05-1.03,1.05-2.09,2.3-3.66,1.53-3.59-1.75-.5-9.97-.21-13.04.67-6.91,1.49-17.73,1.17-24.51-.03-.67-.52-4.27-.67-4.51Z"/>
  <path class="cls-1" d="M256.77,218.5c.42-.25,3.16-4.74,3.92-5.62,1.61-1.87,8.91-8.38,11.19-5.22,1.62,2.24-3.43,3.71-4.39,4.38-2.35,1.65-7.24,7.73-6.84,10.63.25,1.78,4.7,3.21,6.21,4.19,3.05,1.98,9.09,5.79,11.48,8.15,2.54,2.5,3.08,4.44,1.1,7.53s-4.36,3.33-7.49,1.59c-2.93-1.64-8.06-6.28-10.99-8.64-.88-.71-2.64-2.99-3.29-3.26-.91-.38-.74.37-.93.69-2.99,5.06-2.66,7.9-8.78,10.86s-9.78,3.69-15.47,0c-7.54-4.88-5.61-12.33-4.4-19.89l7.92-17.68c-2.14-6.41-6.82-12.68-7.49-19.54-.28-2.87-.16-10.59,1.15-13.02.3-.56,4.77-4.82,5.36-5.01,3.47-1.1,8.68,1.96,10.28,5.04,2.27,4.37.96,12.88-.06,17.74-.58,2.76-3.92,11.35-3.55,13.13.49,2.39,6.03,6.84,7.8,8.58,1.32,1.29,4.86,6.78,7.27,5.35ZM236.48,172.85c-2.32.55-3.2,10.5-3.04,12.75.15,2.06,3.61,13.33,5.17,13.36,1.9.03,5.19-20.31,2.47-23.73-.59-.74-3.76-2.57-4.59-2.37ZM239.69,210.97c-2.7,6.07-12.97,23.94-4.24,28.23,3.89,1.91,8.1-2.17,12.12-2.89,1.66-1.03,5.34-6.31,5.47-8.2.18-2.59-5.32-6.6-7.07-8.7-.99-1.18-5.52-8.43-6.28-8.43Z"/>
  <path class="cls-1" d="M.24,94.35l9.68-9.66,2.35-.3,14,15.04c1.37,1.06,5.11-2.4,5.37-3.41.39-1.54-5.16-9.22-6.47-10.79-1.02-1.22-4.96-4.21-5.19-4.66-.08-.16-.26-3.31-.24-3.52.22-1.89,3.47-3.33,4.84-4.43.54-.44.83-1.26,1.5-1.77,4.1-3.11,4.48-2.56,7.84.72,9.54,9.33,17.74,21.26,26.42,31.39,2.19,2.56,8.28,6.85,8.9,9.66,1.07,4.84-3.99,7.07-6.93,9.75-1.44,1.32-2.02,3.9-4.66,3.51s-12.49-13.36-15.84-14.77c-4.81,2.61-3.69,4.21-.82,7.93,1.96,2.54,9.58,9.54,9.29,12.52-.17,1.74-6.39,6.46-7.95,7.9-1.14,1.05-.73,2.61-3.12,2.12-2.02-.41-12.23-10.59-14.01-12.74-3.02-3.66-5.55-8.21-8.75-11.98-4.42-5.21-9.84-9.85-13.84-15.6-1.5-2.16-3.26-4.07-2.37-6.93ZM20.08,98.8c-1.34-1.44-8.21-9.84-8.86-9.98-.69-.15-2.4,1.83-2.94,2.4-.57.61-3.96,4.39-4.09,4.67-.32.7-.26.94-.04,1.64.24.75,6.03,6.98,7.14,8.17,6.85,7.37,11.68,13.84,17.99,21.27,1.03,1.22,9.22,9.6,9.9,9.73,1.2.23,6.2-4.61,6.12-5.55-.11-1.26-8.39-9.11-9.84-11.99-3.17-6.3-.6-6.9,3.6-10.79,1.09-1.01,1.17-2.73,3.32-2.73s1.87,1.75,3,3.06c2.78,3.24,5.65,5.85,8.75,8.7,1.15,1.06,1.76,3.24,3.64,3.5s5.61-5.28,7.74-6.26l-35.19-41.1-1.3.23c-.44,1.48-5.85,3.29-5.44,4.36.31.79,3.94,3.78,4.88,4.94,2.5,3.06,8.23,10.66,7,14.61-.39,1.25-5.45,4.21-6.74,5.28-.5.42-.69,1.4-.9,1.52-2.54,1.52-6.23-4.07-7.74-5.69Z"/>
  <path class="cls-1" d="M241.45,63c-.14.13-3.03,1.47-3.51,1.66-2.87,1.11-8.55,2.69-11.27,1.15-3.18-1.81-5.4-15.26-6.6-19.04-.64-.75-6.05-.77-6.28-.54-.65.65.06,15.91-.53,18.29-.05,1.89-1.31,3.46-3.13,3.96-2.76-.36-9.99,1.83-11.64-.79-1.4-2.21.81-7.51,1.12-10.28,1.4-12.34,1.53-24.59,3.4-36.96,2.15-4.31,1.32-11,2.72-15.28.49-1.51,5.62-3.18,7.25-3.17,4.41.02,4.35,5.75,5.78,8.98s4.31,6.55,6.03,9.79c4.43,8.34,8.27,16.98,11.97,25.66,1.5,3.52,4.97,9.42,5.35,13.23.09.93.02,2.71-.67,3.34ZM212.7,5.32l-3.81.55-6,58.9,6-.54c.03-3.92.79-7.84,1.08-11.73.2-2.6-.35-5.67.04-8.14.62-3.99,3.02-1.85,5.69-1.9,2.26-.04,4.67-2.04,6.59-.63,2.09,1.53,4.81,16.45,6.48,19.69.65,1.25,7.64-.27,7.9-.58.75-.88-1.06-3.41-1.35-4.34-3.38-10.94-10.41-25.1-15.6-35.66-1.6-3.25-4.08-6.21-5.49-9.78-.42-1.06-1.3-5.65-1.54-5.84Z"/>
  <path class="cls-1" d="M256.33,31.5l6.09-11.08c.97-2.43,1.68-5.16,2.87-7.49.87-1.7,5.51-9.1,6.81-9.55,2.3-.8,9.83-1.98,10.38,1.14.42,2.41-2.66,11.45-3.65,14.32-2.72,7.9-6.37,15.58-9.3,23.42-1.72,4.61-2.47,9.18-4.64,13.91-2.68,5.86-3.31,7.59-10.5,6.99-4.88-.4-5.15-2.86-6.63-6.99-1.17-3.27-3.13-8.74-3.85-11.97-2.63-11.82-7.19-24.19-9.24-36.02-.23-1.3-.77-5.65-.2-6.42.36-.49,1.46-1.09,2.07-1.22,1.8-.39,7.71-.81,9.34-.29.64.2,1.31.44,1.76.97l8.7,30.3ZM278.12,6.42c-1.45.02-4.04.13-5.16,1.1-.6.52-3.77,5.93-4.39,7.07-3,5.59-5.63,12.93-9.07,18.19-.78,1.19-3.24,4.23-4.54,4.24-2.79,0-2.15-3.02-2.83-4.86-.85-2.28-1.93-4.24-2.62-6.66-1.85-6.59-2.36-14.03-3.8-20.75-.43-.69-7.63-.79-7.93-.52-.74.67,5.08,16.75,5.75,19.07,2.17,7.53,3.67,15.51,5.85,23.05,1.09,3.76,2.96,7.58,3.75,11.52l.8.84h5.59s18.59-52.29,18.59-52.29Z"/>
  <path class="cls-1" d="M365.29,52.29c-.13-.15-3.2-.79-3.67-.51-1.98,1.17-7.75,19.61-9.9,20.92-1.27.77-9.73-.47-11.3-1.25s-2.53-2.39-2.34-4.16c5.63-11.95,10.99-24.02,17.35-35.6,2.31-4.21,9.05-16.95,12.12-19.51,2.71-2.26,9.04.71,10.36,4.3.93,2.54,1.61,8.68,1.64,11.48.15,11.8.28,23.63.53,35.44.06,3.11,1.05,13.85-2.49,14.46-1.93.34-10.1-.35-11.11-1.95-.59-.93-1.08-5.11-1.17-6.47-.16-2.47.52-16.5-.03-17.15ZM376.25,73.51c.39-.35-.57-3.68-.6-4.64-.27-8.47-.78-17.11-1.06-25.61-.18-5.17.98-22.78-1.12-26.15-.75-1.2-2.7-1.68-4.03-1.44s-2.66,2.98-3.66,4.01c-6.71,15.93-15.47,31.02-22.49,46.76-.16.35-.52,1.46-.3,1.61.45.31,6.09,1.04,6.82,0,2.65-5.73,5.03-11.54,8.01-17.08.83-1.54.4-4.03,3.32-4.04,1.25,0,7.37,1.49,7.98,2.34,2.07,2.89-.87,18.84,1.11,23.33.28.64,5.68,1.21,6.02.91Z"/>
  <path class="cls-1" d="M465.11,62.6l-1.64,5.45c1.79.15,5.76,1.7,6.02,3.58.14,1.04-4.07,8.68-4.74,8.9-2.66.89-5.88-3.91-7.75-2.59-.64.45-5.09,12.83-5.52,14.65,3.55,1.13,9.84,3.27,9.25,7.87-.15,1.18-3.8,7.66-4.72,7.88-3.17.77-5.38-2.74-7.3-3.97-2.66-1.7-11.16-4.55-12.22-6.87-1.33-2.9,4.67-11.27,6.19-14.52,3.76-8.03,6.7-16.5,10.34-24.56,1.92-4.27,4.29-8.33,6.23-12.58.99-.99,3.03-.25,4.21.15,3.27,1.13,6.78,3.35,9.99,4.73,4.07,1.74,7.84.47,6.67,6.47-2.09,10.76-6.63,9.56-15.01,5.43ZM475.42,56.1l-14.12-6.59c-2.32,6.06-4.36,12.56-6.83,18.54-2.2,5.33-4.86,11.49-7.25,16.74-.82,1.79-5.72,9.99-5.5,10.73s7.53,3.85,8.97,4.7c3.02,1.79,4.39,5.33,5.67-1.03-2.37-1.71-9.57-3.32-9.76-6.35-.12-1.87,7.07-18.75,8.52-19.24,2.81-.96,7.16,2.29,8.31,1.5.26-.17.83-2.92.58-3.21-.15-.18-3.6-.47-4.58-1.15-2.74-1.92,1.78-7.08,1.6-9.76,2.1-7.85,9.71.73,13.01.03.52-.11,1.8-4.31,1.38-4.9Z"/>
  <path class="cls-1" d="M409.03,34.85c-4.35,14.99-7.05,30.39-10.86,45.6-.96,2.42-3.56,1.9-5.77,1.72-4.69-.37-9.15-1.51-8.48-7.24.46-3.92,3.28-11.96,4.47-16.27.39-1.4,1.35-2.66,1.77-4.22.72-2.66,6.13-23.25,5.17-24.01-1.14-.9-7.16,1.07-8.45-1.63-1.01-2.1.99-8.96,2.21-10.89.69-1.1,1.45-1.16,2.69-1.16,1.37,0,6.93,1.02,8.49,1.38,2.83.65,8.07,2.33,10.85,3.33,1.7.61,8.87,3.5,9.81,4.37,2.58,2.39,1.01,10.69-3.45,10.57-1.55-.04-7.66-2.1-8.45-1.54ZM394.75,77.84c1.2-7.13,3.2-14.08,4.8-21.11,1.47-6.5,2.32-13.36,4.22-19.78.72-2.45,1.58-6.34,4.37-6.58,2.06-.18,11,3.54,10.05-.71-.38-1.69-11.18-4.27-13.16-4.85-4.47-1.29-8.83-3.16-13.73-3.16l-.87,4.4c2.33-.24,9.52-.14,9.82,3.01.13,1.41-1.5,8.61-1.9,10.64-1.13,5.74-2.63,12.03-4.13,17.69-.67,2.55-6.47,19.05-5.42,19.94l5.97.51Z"/>
  <path class="cls-1" d="M318.59,5.45c1.81-1.8,9.83,1.1,12.07,2.12,5.83,2.66,14.92,11.24,16.02,17.79,2.67,15.88-2.57,33.8-17.49,41.7-4.07,2.16-12.99,3.31-17.51,2.6-5.08-.8-1.83-6.59-2.48-10.05,2.34-12.73,4.26-25.52,6.47-38.25.52-3.01,1.27-14.26,2.92-15.9ZM313.6,65.28c.76.27,1.5.58,2.34.55,19.95-.67,28.81-19.88,26.46-37.82-.79-6.06-6.73-11.98-11.77-14.95-1.34-.79-8.69-3.7-9.46-3.12-.9.67-.86,10.12-1.08,12.03-.85,7.34-2.23,15.47-3.33,22.85-1.02,6.85-2.96,13.51-3.16,20.47Z"/>
  <path class="cls-1" d="M128.11,27.3c6.35-.36,27.41,3.27,31.72,7.75,15.11,15.74,6.37,39.62-12.41,47.58-8.07,3.42-8.78.93-11.84-6.41-2.85-6.82-4.93-15.01-7.34-22.11-2.46-7.23-6.23-14.85-7.54-22.47-.16-.95-.41-1.9.43-2.6,1.09-.9,5.46-1.66,6.98-1.75ZM124.94,33.15l16.95,45.49c1.3,1.88,7.15-1.33,8.85-2.49,9.19-6.26,14.27-17.38,11.66-28.4-.69-2.91-4.27-7.92-6.66-9.7-3.96-2.95-22.7-5.89-27.8-5.45-.5.04-2.9.43-3,.55Z"/>
  <path class="cls-1" d="M433.34,34.91c7.57-1.28,12.41,8,13.17,14.38.85,7.13-2.04,16.39-4.58,23.12-1.11,2.93-6.38,13.74-8.2,15.79-5.72,6.41-15.45,4.35-20.1-2.18-2.97-4.17-2.76-8.37-2.48-13.33.29-5.19.93-12.19,1.8-17.29,1.07-6.31,2.73-9.48,7.75-13.52,2.18-1.76,10.15-6.55,12.65-6.97ZM433.35,38.69c-1.6.41-10.78,7.57-12.14,9.17-2.35,2.78-2.79,5.11-3.38,8.62-.85,5-1.6,12.77-1.79,17.84s.74,9.52,5.63,11.82c5.3,2.5,7.88-.13,10.28-4.63,4.69-8.78,11.03-22.8,9.04-32.7-.55-2.72-4.2-11-7.64-10.12Z"/>
  <path class="cls-1" d="M115.73,72.38c1.04.76,8.03-2.82,9.62-3.13,4.27-.83,4.57,3,6.23,5.53,1.38,2.09,4.58,4.92,3.64,7.64-.99,2.87-16.5,7.91-19.84,9.06-2.14.74-3.46,3.03-6.21.81-3.14-2.53-6.73-13.97-8.65-18.07-2.66-5.66-4.92-10.07-7.47-15.98-1.65-3.83-3.59-7.67-5.6-11.32-.29-1.04-.24-1.76.4-2.63,1.08-1.49,11.08-7.11,12.86-4.07,5.64,10.38,10.12,21.41,15.03,32.16ZM98.77,42.96l-6.87,2.68-.75.86,19.88,41.21,1.52.45,17.82-7.04c.42-.6-3.69-7.48-4.12-7.57-1.41-.31-9.46,4.41-11.83,3.7-2.1-.63-4.24-7.59-5.19-9.56s-2.38-4.13-3.21-6.06c-2.65-6.1-4.58-12.56-7.25-18.66Z"/>
  <path class="cls-1" d="M61.85,62.2c.77-.77,4.86-2.19,6.12-2.33,20.69-2.3,33.88,21.72,26.55,39.65-4.72,11.54-18.54,11.57-26.29,3.18-6.45-6.99-12.84-20.33-10.74-29.87.39-1.75,3.32-9.59,4.36-10.64ZM83.88,69.33c-2.36-2.21-9.97-5.02-13.2-5.11-1.23-.04-6.6,1.04-7.21,1.78-1.36,1.66-1.93,10.33-1.75,12.69.56,7.67,9.4,24.24,17.76,25.32,11.47,1.49,13.03-12.56,11.6-20.88-.72-4.21-4.07-10.87-7.2-13.8Z"/>
  <path class="cls-1" d="M155.09,279.31c4.21-3.9,7.09,2.3,9.88,2.03,1.63-.15,6.67-5.76,8.75-1.1,1.86,4.18-5.17,12.33-8.46,14.42s-4.41.09-6.5-2.17c-2.91-3.13-7.81-9.35-3.66-13.18Z"/>
  <path class="cls-1" d="M183.44,416.59c12.31-.42,2.42,12.04-1.9,15.83-2.56,2.25-6.34,4.02-5.89-.94.81-1.04,9.91-9.59,8.87-10.53-1.89-1.71-10.48,4.72-10.35-.77.06-2.32,1.93-2.05,3.29-3.29s5.77-7.5,4.33-9.03c-.76-.81-6.59,3.83-8.12,1.58-2.04-2.99,8.29-6.98,11.4-5.14,2.8,1.66.13,10.1-1.64,12.28Z"/>
  <path class="cls-1" d="M366.47,402.55c2.56,2.56-1.64,3.53-2.84,4.79-.94,1-4.17,7.52-3.56,8.16.75.78,3.21-2.86,4.19-3.16,4.16-1.26,7.22,3.15,6.58,7.12s-6.21,9.67-10.36,9.01c-8.22-1.31-5.47-13.76-2.98-19.09,1.09-2.33,5.89-9.93,8.97-6.84ZM362.06,419.69c-1.09,1.19-3.38,1.5-2.48,4.2,1.15,3.42,9.94-2.88,7.31-7.3-1.33-2.24-4.13,2.34-4.83,3.1Z"/>
  <path class="cls-1" d="M317,423.15c1.44,1.63-6.85,6.75-8.18,7.36-3.28,1.49-9.96,2.82-7.75-2.85,1.2-3.09,14.48-18.48,12.11-20.87-.8-.81-3.66.99-4.37,1.9s-.77,2.97-2.34,2.9c-.36-.02-1.38-.38-1.48-.8-1.5-5.93,9.56-10.07,11.2-6.73.52,1.07.42,5.41.15,6.7-.93,4.48-7.83,11.79-10.23,15.95,2.93-.3,4.88-3.14,7.75-3.74.67-.14,2.93-.04,3.14.2Z"/>
  <path class="cls-1" d="M223.17,405.22c.88.59.77,12.48.61,14.38-.69,8.01-5.83,21.41-12.89,25.83-2.38,1.49-7.43,2.93-5.36-1.54.57-1.23,5.81-4.2,7.35-6.28,3.87-5.17,6.61-13.77,7.08-20.19.21-2.83-.6-9.31.08-11.38.33-1.01,2.48-1.26,3.13-.82Z"/>
  <path class="cls-1" d="M260.17,426.82c-1.6,1.66-4.36-1.54-5.32-2.86-1.35-1.86-1.99-4.14-2.73-6.27-.8-.16-.55.62-.7,1.19-.47,1.75-1.35,8.53-1.73,9.19-1.4,2.46-3.02-1.56-2.89-3.43s1.71-10.16,2.3-11.88c1.45-4.25,3.7-.76,5.11,1.48,1.23,1.96,1.71,4.59,3.36,6.18.06-3.65,1.16-14.98,3.53-17.47,1.2-1.26,3.36-.51,3.01,1.32-2.29,3.24-2.61,21.17-3.94,22.55Z"/>
  <path class="cls-1" d="M343.17,424.78c.75.79,9.31-7.18,8.74-1.93-.15,1.39-8.32,7.28-9.82,7.68-4.78,1.27-5.89-1.61-3.93-5.57,1.85-3.73,9.63-11.62,9.91-14.68.24-2.64-.81-4.8-3.5-2.91-.84.59-2.25,5.48-3.86,2.13-1.48-3.08,6.24-9.7,9.47-4.56,4.58,7.29-2.5,12.21-6.21,17.64-.34.5-1.36,1.61-.8,2.19Z"/>
  <path class="cls-1" d="M166.41,404.74c.49.49.66,1.5.58,2.18-.33,2.61-1.65,6.07-2.01,8.92-.64,5.07-.6,10.53-1.26,15.65-3.21,3.39-4.48,1.33-4.28-2.65.24-4.71,1.58-9.67,1.65-14.43l-4.46,7.52c-.4.22-2.52.2-2.62.11-.98-.91,3.39-9.3,4.26-10.74,1.24-2.05,5.57-9.15,8.15-6.57Z"/>
  <path class="cls-1" d="M334.86,404.73c1.38,1.35-.81,8.03-1.48,9.98-1.34,3.92-4.44,12.45-9.69,10.2-7.05-3.02-.65-18.39,5.34-20.56,1.33-.48,4.85-.59,5.84.38ZM331.17,407.87c-1.39-1.39-5.42,4.67-5.92,5.79-2.52,5.62-.55,11.98,2.93,4.57.63-1.34,3.52-9.83,2.99-10.36Z"/>
  <path class="cls-1" d="M235.23,421.51c.8.12.73-.94.92-1.52.99-2.91,2.7-10.7,4.28-12.63,1.75-2.14,3.03-1.24,3.02,1.34,0,2.2-4.2,15.48-5.39,17.57-1.38,2.43-5.94,5.4-6.65,1.53-.94-5.12,1.49-12.95.62-18.47.5-1.54,3.19-1.2,3.19.47v11.73Z"/>
  <path class="cls-1" d="M266.94,458.83c.6.75-1.31,2.33-2.02,2.59-2.75.99-6.43-.68-5.3,3.79l5.14-.27c1.66,3.18-3.13,3.89-5.4,4.19l-.99,3.53c2.26,1.16,7.04-2.12,8.49.37,1.84,3.14-7.07,3.93-9.08,3.72-4.71-.5-2.07-5.95-1.91-8.93.11-1.94-.77-6.41.15-7.65,1.21-1.63,10.13-2.29,10.9-1.32Z"/>
  <path class="cls-1" d="M305.09,477.55c-.28-.17-1.66-5.5-2.83-5.81-1.9-.49-1.46,2.31-2.15,3.79-.45.96-2.49,3.84-3.26,1.62-.18-.51,1.68-9.45,2.06-10.53,1.66-4.79,4.82-1.6,4.98,2.18l3.02,3.26c.13-2.12.61-12.38,4.03-11.67.79.16,1.1,1.58.92,2.33-1.03,2.29-1.73,14-3.38,14.64-.54.21-3.04.4-3.4.18Z"/>
  <path class="cls-1" d="M237.19,476.12c-.29.22-1.39.25-1.81.17-2.52-.46-1.51-5.61-2.26-6.44-.21-.23-5.52.18-6.15.41-.78.28-4.98,7.82-6.14,4.26-.52-1.6,4.6-7.67,5.73-9.3s4.26-8.71,6.53-7.17c.68.46,4.41,14.15,4.55,15.72.05.52-.17,2.12-.45,2.34ZM231.69,463.36c-.74-1-2.91,3.63-2.52,3.95l3.26-.17-.74-3.78Z"/>
  <path class="cls-1" d="M316.26,461.27c.49-.79,3.72-.88,4.8-.55,7.73,2.35,8.05,10.99,1,14.87-10.99,6.04-5.28-5.11-5.23-10.45,0-1.12-1-3.15-.56-3.87ZM322.82,465.95c-.42-.47-2.67-1.47-3.16-1.09l-1.22,8.25c3.41.2,7.01-4.24,4.38-7.17Z"/>
  <path class="cls-1" d="M288.97,462.61l.67,13.07c4.46-1.09,1.92-13.21,4.14-14.7,1.48-.99,2.73-.28,2.87,1.5.16,2.03-1.13,10.4-1.93,12.34-1.08,2.62-2.86,3.87-5.78,3.67-3.89-.27-2.37-6.33-2.35-8.93.02-2.83-1.77-8.67,2.38-6.95Z"/>
  <path class="cls-1" d="M277.42,463.93c-1.87-1.55-2.3.77-1.94,2.34.1.45,2.21.49,2.96.82,4.6,2.04,1.9,11.19-3.64,9.81-2.04-.51-3.7-5.37-.03-4.59,1.18.25,1.59,3,2.81.03s-1.36-2.17-3.22-3.03c-3.6-1.68-3.71-9.89,2.69-9.33,3.71.32,5.33,5.6,1.95,5.38-1.22-.08-1.08-1-1.59-1.42Z"/>
  <path class="cls-1" d="M245.1,460.03c1.1,1.36-.91,10.29-.92,12.53l8.67.17c1.97,5.14-3.06,3.57-6.03,3.52-1.55-.03-5.65.91-6.23-.58-1.06-2.71,2-11.16,1.48-14.62.11-1.46,2.35-1.86,3.02-1.02Z"/>
  <path class="cls-1" d="M271.8,407.92c3.45-2.29,2.79,6.04,2.67,7.85-.19,2.99-1.25,9.7-2.31,12.41-.62,1.57-2.09,2.09-3.18.72-1.28-1.61.64-4.84.99-6.73.87-4.73,1.02-9.53,1.83-14.25Z"/>
  <path class="cls-1" d="M203.92,476.73c-.25.19-2.54.29-2.65.21-.11-.09-.06-1.39-.04-1.85.19-3.15,1.76-11.03,2.51-14.37.68-3.06,2.81-.78,2.82,1.99,0,1.7-1.87,13.42-2.64,14.01Z"/>
  <path class="cls-1" d="M200.34,428.06c1.22,1.09-2.07,4.98-3.58,2.76-1.8-2.66,2.82-3.43,3.58-2.76Z"/>
  <path class="cls-1" d="M230.21,454.08c-1.56-2.08,2.24-3.85,3.05-1.36.73,2.26-2.49,2.1-3.05,1.36Z"/>
  <path class="cls-2" d="M191.18,306.42c.35.18.35.36,0,.55v-.55Z"/>
  <path class="cls-1" d="M214.73,18.04c1.31,1.16,5.94,11.88,6.13,13.8.2,2.05-.39,3.44-2.54,3.92-1.13.25-5.35.35-6.34.03-2.03-.66-1.59-8.07-1.47-10.03s.7-10.84,4.23-7.72ZM217.61,32.6c.27-.26-1.13-4.15-1.42-4.85-.56-1.36-1.93-3.84-2.94-4.96l.54,9.82h3.82Z"/>
  <path class="cls-1" d="M367.36,25.6c2.13-.65,3.05.43,3.4,2.4.47,2.68,1.13,8.26,1.14,10.87.01,4.65-4.31,4.18-7.64,2.72-3.74-1.63-1.55-5.93-.42-9.15.46-1.33,2.62-6.57,3.53-6.85ZM368.62,39.14c-1.24-2.35.57-6.06-1.63-7.63l-1.64,7.09,3.27.55Z"/>
  <path class="cls-1" d="M325.08,22.85c2.19-1.52,5.6,1.41,7.03,2.92,6.9,7.25,5.59,14.76.21,22.6-2.96,4.31-12.03,11.11-11.71,1.4.2-6.03,2.58-14.25,3.7-20.32.2-1.07.48-6.41.76-6.61ZM328.27,27.69c-.38-.31-1.43-.1-1.07.81-.19,2.59-2.88,20.2-2.19,21,.88,1.01,4.63-4.37,5-5.08,1.28-2.4,2.91-7.15,2.51-9.78s-1.83-3.59-3.46-5.31c-.56-.59-.72-1.59-.79-1.65Z"/>
  <path class="cls-1" d="M138.41,42.5c1.22-.29,7.97,1.13,9.46,1.8,5.39,2.42,8.55,9.96,6.07,15.39-1.19,2.61-6.81,8.25-9.75,6.88-2.2-1.02-1.41-3.03-1.93-4.66-.94-2.97-2.26-5.95-3.01-8.99-.37-1.52.1-3.22-.62-4.84-.78-1.76-3.13-1.48-1.96-4.03.2-.43,1.28-1.45,1.74-1.56ZM145.66,61.51c.89,1.47,4.07-2.43,4.49-3.41,1.91-4.45-1.74-9.53-6.1-10.53-.52-.12-2-.45-2.21-.24-1.19,1.19,2.86,10.24,3.55,12,.28.72.16,2.02.26,2.18Z"/>
  <path class="cls-1" d="M431.13,51.25c1.28-.23,3.54,2.25,4.1,3.33,2.41,4.6.31,10.96-1.74,15.39-1.36,2.94-2.93,6.53-6.75,6.25-6.48-.48-5.89-10.78-4.43-15.25.9-2.76,5.99-9.22,8.81-9.71ZM431.3,56.06c-2.81-1.96-6.06,8.41-6.03,10.63.02,1.34.97,7.25,2.81,4.85.64-.84,3.29-7.2,3.54-8.37.26-1.26.49-6.56-.31-7.12Z"/>
  <path class="cls-1" d="M69.47,74.18c2.27-2.32,11.05,3.12,12.98,5.03,1.75,1.73,3.19,4.03,3.28,6.56.06,1.59-.58,7.51-1.2,8.66-2.18,4.04-10.19,2.3-12.39-.55-1.28-1.65-3.65-10.3-3.85-12.54-.11-1.25.48-6.46,1.18-7.16ZM80.72,92.52c.83-.56.86-6.94.34-8.1-.72-1.59-8.66-7.48-9.53-6.55s2.38,11.38,3.33,12.75c.88,1.28,4.66,2.71,5.86,1.9Z"/>
</svg>