<?xml version="1.0" encoding="UTF-8"?>
<svg xmlns="http://www.w3.org/2000/svg" viewBox="0 0 845.57 657.3">
  <defs>
    <style>
      .cls-1 {
        fill: #c5110d;
      }
    </style>
  </defs>
  <g id="Layer_1" data-name="Layer 1">
    <g>
      <path class="cls-1" d="M624.23,352.25c2.45-2.4,6.12-11.66,9.6-11.99,2.26-.22,4.04,2.21,4.45,4.21,1.97,9.54-7.7,20.38-11.86,28.26-1.48.95-3.59-1.63-4.38-1.16-.6.36-2.74,4.61-3.58,5.72-8.82,11.6-16.66,18.11-29.55,24.97-51.09,27.21-112.16,41.31-150.31,87.93-4.45,5.44-12.29,15.44-14.85,21.67-.52,1.26-3.45,8.73-1.5,8.85.87.06,5.9-7.03,9.3-7.59,7.9-1.3,10.48,4.53,6.48,10.84-2.82,4.44-11.1,12.25-15.11,16.24-.76.76-2.27.18-2.45,2.17-.27,2.97,2.99,10.98,4.32,13.99,6.21,14.13,17.99,25.98,32.1,32.23,30.88,13.66,68,20.26,101.56,14.93,36.4-5.79,72.66-13.15,108.97-19.68,26.06-4.69,52.17-9.26,78.24-13.89.96-.17,5.26-.35,5.58-.7s-2.38-7.48-2.59-9.13c-1.84-14.37,6.08-19.95,14.13-5.95.81,1.41,2.86,7.21,3.19,7.45,1.01.73,3.64-4.26,4.36-5.17,1.95-2.42,7.79-10.22,10.92-6.03s-2.84,14.44-2.21,15.02c.35.32,8.04-1.12,9.28-1.35,5.09-.95,9.12-2.53,14.43-2.47,1.41.01-.63,2.49-1.96,2.92-7.06,2.29-16.14,2.48-23.35,5.01-3.66,6.09-5.56,13.18-9,19.35-.99,1.78-2.61,5.93-4.92,3.81l-10.39-19.1-29.81,5.6c-46.01,10.63-93.07,15.72-139.61,23.39-20.48,3.37-45.81,8.98-66.58,7.01-4.68-.44-9.61-2.43-14.23-3.21-7.77-1.3-13.9-1.36-21.89-3.73-27.59-8.18-56.7-25.36-63.11-55.19-.38-1.79-1.33-10.45-1.62-10.92-1.23-2.03-8.74-5.92-10.98-8.37-5.08-5.56-3.25-14.04,4.99-14.03,2.64,0,8.1,3.34,8.46,3.06.49-.37,3.4-9.41,4.46-11.36,4.47-8.27,17.97-25.43,24.96-31.74,22.66-20.46,45.56-31.37,72.71-44.5,10.32-4.99,21.11-10.86,31.6-15.28,23.94-10.09,41.95-13.56,59.25-35.06,2.64-3.28,5.83-5.88,7.11-10.34l-12.03-9.3c-10.28-15.29,7.35-18.12,15.26-6.82.11-8.99-5.32-18.46-11.7-24.55-10.48-9.99-29.25-13.17-43.23-15.65-32.53-5.76-53.67-4.79-86.04-.76-52.86,6.58-105.78,14.42-158.49,22.5-38.17,5.85-74.5,16.28-112.92,20.64-3.18.36-7.97,0-10.9.55-1.91.35-2.32,3.89-3.32,5.43-.12.18-2.76,2.95-2.95,3.04-.62.3-1.12.4-1.79.2-.46-.14-5.41-5.95-6.64-7.03-6.38-5.62-10.07-4.52-17.48-7.06-33.48-11.47-30.73-43.96-13.02-68.67,11.68-16.29,38.75-31.82,56.55-41.58,12.76-6.99,24.3-9.82,37.57-14.77,15.08-5.62,34.19-14.39,48.21-22.12,1.72-.95,10.24-6.74,9.94-8.47-.17-1.01-5.28-4.27-6.52-5.51-2.63-2.64-6.33-7.54-5.97-11.42.29-3.06,3.83-4.95,6.66-4.59,3.84.49,7.03,6.63,10.22,8.62,1.51-11.44-10.8-22.28-20.34-26.27-17.89-7.48-37.33-6.01-56.22-5.33-19.18.69-38.66.2-57.8,2.16-22.38,2.3-44.54,6.03-66.68,9.64-18.24,2.97-35.14,4.78-52.98,10.26-1.54.47-10.86,3.29-11.32,3.67-.62.52-3.6,11.09-4.57,13.15-1.37,2.92-2.37,5.01-5.89,2.78-4.33-2.75-15.74-19.27-17.17-24.26-.75-2.61-2.02-9.22.62-10.77,4.61-2.71,7.31,4.1,10.22,6.47l5.21,9.23c.09-5.88,5-18.13,12.75-14.1,5.19,2.7-.19,8.59.62,12.48,14.57-3.12,29.05-7.16,43.75-9.67,37.76-6.45,73.1-12.32,111.58-13.8,19.23-.74,41.41-1.59,60.55-.55,17.6.96,42.8,7.44,49.72,25.51.3.78.57,2.77.68,2.87.55.51,2.68-1.87,3.43-2.29,3.65-2.1,8.99-2.47,8.53,3.04-.32,3.78-8.77,20.97-11.97,22.43-2.24,1.03-3.06-1.39-4.6-1.4-.29,0-3.21,3.36-4.16,4.08-21.93,16.64-55.25,25.77-80.46,37.29-30.87,14.12-72.76,35.73-77.54,73.48-2.64,20.86,11.75,33.9,31.03,37.3-4.06-6.09-7.02-18.06,3.63-18.5,4.69-.19,7.37,5.88,8.37,9.78,2.61-1.97,3.43-6.14,6.68-7.21,4.96-1.64,8.6,1.35,8.62,6.39.02,4.22-2.95,7.17-3.84,10.38-.33,1.19.75.82,1.34.8,21.55-.96,41.82-6.48,62.85-10.21,7.26-1.29,14.74-1.74,22.04-3.03,34.1-6.04,67.73-12.93,102.09-17.3,39.63-5.04,79.92-12.65,119.96-14.15,30.85-1.15,77-1.99,102.2,18.23,2.85,2.29,13.07,15.83,13.07,19.1v9Z"/>
      <path class="cls-1" d="M808.91,609.76c3.98-.29,11.14-.13,14.84,1.19.63.23,5.79,2.98,6.01,3.26,1.22,1.51,2.51,5.69,2.69,7.67,1,11,.44,19.48-8.45,26.97-9.04,7.61-27.82,12.25-37.59,4.36-5.1-4.13-11.75-15.44-11.18-22.06,1.08-12.55,22.97-20.59,33.68-21.38ZM825.72,614.72c-9.3-6.89-30.71-1.63-39.56,5.01-3.29,2.47-11.45,11.31-7.16,15.27,1.11,1.02,4.15,1.89,5.5,1.06.22-.14,2.54-4.21,2.61-4.52.22-.87-.31-1.69-.16-2.37.23-1.06,3.48-4.02,4.45-4.18.83-.13,1.64.94,2.62.95s4.33-1.87,4.88-2.72c.48-.74.56-2.57,1.2-2.72,3.32-.79,2.14,1.39,2.38,1.64.47.47,5.26-1.22,6.39-1.48,1.24-.28,2.58.1,3.57-.13s.54-2.86,2.8-2.77c4.28.16,2.28,3.12,3,3.58.6.39,1.81.32,2.6.7,2.66,1.26,4.5,3.31,6.94-.45,1.89-2.91.31-5.08-2.09-6.86ZM810.11,623.23c.28.28,0,6.76,0,7.91,0,.12-1.04.73-.27.82,3.92-.62,1.93-1.14,1.89-3.57-.02-1.04.45-5.79.01-6.25-.36-.38-8.39,1.33-8.67,1.68-.5.62,1.2,3.45-2.53,3.17-1.27-.09-1.73-1.85-3.74-.44-1.88,1.32.53,4.27-.38,5.35-.3.35-3.58.46-3.76.6-.13.11,1.34,2.83,1.62,3,3.83,2.35,3.12-4.51,5.85-6.18,2.49-1.52,5.91,1.87,6.15,1.53.4-.54-.49-4.98.28-6.55.51-1.04,3.12-1.5,3.55-1.09ZM829.74,634.41c.65-3.41-.48-8.63,0-12.27-7.68,6.65-16.41,11.22-26.28,13.78-7.6,1.97-16.85,3.78-24.41,1.2-.68-.23-.76-.53-.55.56.57,3.01,8.53,13.97,11.25,15.46,3.4,1.87,12.45,2.07,16.28,1.7,10.33-1,21.71-10,23.72-20.44ZM817.32,625.3c.08.14,2.49,1.72,2.77,1.68s2.54-1.68,2.55-1.84c.02-.55-4.35-2.45-5.16-2.46-.48,0-.44,2.13-.16,2.62ZM818.83,628.13c-.16-1.97-5.06-1.47-5.45-1.08-.22.22.42,3.17.55,3.27.78.55,3.69-2.44,4.9-2.19ZM805.1,632.04c-.31-.53-3.42-1.84-4.4-1.22-.67.42-2.38,4.05-2.03,4.4.24.24,6.32-1.39,6.51-1.67.14-.22.11-1.2-.07-1.51ZM792.67,636.31c-1.4-5-4.72.27-4.36.55.53.4,3.39-.79,4.36-.55ZM787.22,636.86c.07-.08.08-1.99,0-2.18-.55-1.21-1.76,4.19,0,2.18Z"/>
      <path class="cls-1" d="M410.97,117.42c1.72-.18,11.24-.82,11.43,1.74.03.34-.95,1.56-1,2.74-.08,1.96,1.02,4.99,1.12,7.09.33,6.74,1.42,19.35-.29,25.32-.74,2.59-3.54,6.03-3.49,7.84.06,2.23,2.79,20.8,3.51,21.63,1.44,1.67,8.55-2.14,9.01,2.47.24,2.32-2.6,4.01-4.37,4.89-2.45,1.21-12.95,4.13-15.54,4.14-4.05,0-4.92-2.77-2.14-5.46,1.93-1.87,5.55-1.76,6.2-5.25-.27-5.6-.66-11.21-1.78-16.7-1.64-8.08-1.35-4.41-5.51-9.21-5.21-6.01-6.64-23.36-7.99-31.27-.17-.97-1.01-1.59-1.1-2.77-.4-5.34,7.92-6.8,11.93-7.21ZM401.81,124.89c.26.25,6.27.56,7.23.42,1.51-.22,7.98-2.24,8.83-3.16,1.41-1.55,1.04-2.48-1.04-2.73-2.6-.3-13.04.92-14.51,2.98-.41.57-.8,2.21-.51,2.49ZM419.8,124.35c-.38-.41-8.94,3.01-10.67,3.22s-6.53-.74-6.77-.49c-.21.22.34,5.78.54,6,.29.3,3.05-.59,4.02-.53,1.7.11,5.62,1.97,7.95,2.45.83.17,5.27.99,5.47.8.4-.41-.16-11.03-.54-11.45ZM419.8,137.99c-1.79-.57-3.79-.31-5.58-.69-1.69-.36-9.72-3.59-10.22-1.21-.37,1.75,8.11,3.43,9.55,3.53,1.95.13,5.08.27,6.26-1.62ZM420.89,140.71c-4.37.89-8.17,1.32-12.57.31-.65-.15-4.28-2.12-4.34-1.12-.12,2.05,4.34,15.4,5.77,17.13,2.04,2.46,6,3.31,8.37.82.54-.57,2.77-6.05,2.77-6.5v-10.63ZM416.47,161.49c-.32-.26-2.2-.58-2.12.75.23,4.17,2.38,9.56,2.73,14.19.24,3.18.66,9.97-1.41,12.2-1.6,1.72-11.04,6.61-.07,3.74,3.01-.79,9.05-2.52,11.69-4.12,5.47-3.32-3.88-1.38-5.46-1.86-2.96-.9-3.28-12.47-3.71-15.37-.2-1.34-1.26-9.23-1.64-9.54Z"/>
      <path class="cls-1" d="M381.22,168.63c-.41.58-1.63,6.51-2.14,7.94-1.27,3.52-5.65,12.6-5.64,15.68s5.28,1.96,6.34,3.5c.72,1.05-.53,3.92-1.37,4.69-2.19,2-10.78.09-13.93-.3-2.31-.28-7.33.91-7.9-2.48-.94-5.55,7.74-3.42,10.62-6.8,1.19-1.39,2.84-5.96,3.57-7.88,1.88-4.98,3.33-10.48,4.64-15.53-.74-.98-2.08-1.75-2.72-2.77-3.79-6.04,2.66-28.31,3.2-35.96.71-2,2.46-2.51,4.41-2.73,2.82-.32,12.39.42,15.01,1.34,4.73,1.67,2.25,7.6,1.22,11.08-1.79,6.05-6.86,22.41-10.49,26.58-1.24,1.42-4.62,3.4-4.8,3.65ZM395.27,129.81c-.35-.37-8.87-1.57-10.09-1.63-1.64-.09-9.38-.15-5.92,2.1,3,1.96,11.53,1.14,15.19.6.74-.11,1.65-.21.82-1.07ZM395.82,133.08c-4.25.17-8.52.92-12.8.53-1.42-.13-6.06-1.86-6.28-1.62-.39.43-.36,9.76-1.63,11.45,1.92-2.12,16.19-6.82,17.47-5.78.61.49.2,1.65.78,1.96,1.63-1.74,1.87-4.33,2.45-6.54ZM391.45,139.62c-.46-.49-8.35,2.06-9.63,2.63-.66.29-6.79,3.36-5.62,4.46,3.31-1.51,12.71-1.75,14.76-4.59.41-.57.81-2.17.5-2.49ZM374.64,148.96c-.93.56-1.48,11.94-.93,13.59.52,1.56,4.61,4.54,6.44,4.23,6.53-1.1,10.31-17.25,11.85-22.81-4.24,2.96-9.64,3.55-14.58,4.78-.85.21-2.32-.08-2.78.2ZM378.92,169.06c-.07-.09-2.07-.67-2.18-.55-.98,5.04-2.43,10.33-4.22,15.14-1.46,3.94-2.79,8.73-6.86,10.59-.97.45-8.94,1.81-6.39,3.46,4.92-.49,12.13,2.17,16.65,1.34,1.62-.3,1.81-2.08,1.05-2.18-1.96-.26-3.75-.58-5.63-1.15-2.23-3.84,8.46-25.5,7.58-26.66Z"/>
      <path class="cls-1" d="M814.31,581.37c4.48-1.32,8.33,1.7,9.98,5.6,1.18,2.79.85,5.95,2.47,8.44,1.27,1.95,4.35,4.07,5.98,6.02,3.11,3.73,5.99,7.87,9,11.71,1.61,2.05,4.1,3.23,3.8,6.55-.26,2.87-5.04,2.13-6.82.84-4.75-3.44-7.07-14.42-11.97-18.57s-11.18-2.45-14.47-7.88c-1.75-2.88-1.87-11.56,2.03-12.71ZM815.27,583.11c-2.99.43-2.84,7.54-1.34,9.86,3.2,4.95,9.5,3.51,14.18,7.62,4.54,3.99,8.3,16.62,12.39,18.69,2.76,1.4,4.3.5,2.33-2.33-3-4.31-8.3-10.84-11.79-14.92-5.76-6.76-4.8-3.11-7.67-12.5-1.13-3.68-3.89-7.02-8.1-6.41Z"/>
      <path class="cls-1" d="M421.99,116.17c-1.44-1.48,4.01-6.83,4.35-6.54,1.87,1.56-3.07,7.86-4.35,6.54Z"/>
      <path class="cls-1" d="M434.44,129.33c1.5,2.44-3.77,1.73-5.33.7-1.69-1.12-1.43-2.47.62-2.3.64.05,4.56,1.36,4.71,1.6Z"/>
      <path class="cls-1" d="M431.79,118.36c1.64,1.5-5.14,4.15-5.99,3.27-.09-.09-.22-1.84.33-2.23.72-.51,5.19-1.47,5.67-1.03Z"/>
      <path class="cls-1" d="M372.8,127.18c2.06,3.55-7.1.05-5.33-1.74.65-.66,4.94,1.07,5.33,1.74Z"/>
      <path class="cls-1" d="M373.2,118.36c1.4-.3,2.46,4.09,1.07,4.36-1.59.3-2.72-4.01-1.07-4.36Z"/>
      <path class="cls-1" d="M406.72,105.26c-.41-.41-.25-2.21,1.35-1.63,1.88.68-.64,2.35-1.35,1.63Z"/>
      <path class="cls-1" d="M407.81,112.36c.86.86-.77,2.49-1.63,1.63s.77-2.49,1.63-1.63Z"/>
      <path class="cls-1" d="M388.18,121.63c.16.16.35,2.07-.81,1.63-1.98-.75-.14-2.58.81-1.63Z"/>
      <path class="cls-1" d="M389.27,111.81c.07.08.21,2.03-.27,2.18-1.58-.84-.65-3.21.27-2.18Z"/>
      <path class="cls-1" d="M692.22,261.41c.16.04.11.68.42.76.75.18,6.12.16,6.23,1.48.03.33-1.93,5.53-2.48,5.69-.17.05-3.34-.4-3.47-.51-.08-.07.58-2.01.66-2.08.46-.39,1.7.39,1.52-.64-3.45-.8-1.69,1.68-2.18,2.18s-4.53-.94-4.9-.55c-.15.16-.71,4.22-.55,4.36.36.32,7.45-.11,8.05,3.12.49,2.66-.46,2.63-.97,4.26-.1.31.98.17,1.1.61.34,1.27-.37,2.68-.3,3.76.05.72.78,1.4.84,2.2.09,1.36-1.06,2.2-1.06,3.23,0,.89.94,1.77,1.06,2.77.17,1.38-.62,2.61-.45,3.66s1.47,1.76,1.51,2.82c.04.94-.87,1.92-.85,2.75.03,1.2,1.63,1.93,1.89,2.85.22.8-.35,1.62-.14,2.35s1.54,1.65,1.76,2.57c.41,1.66-.89,2.54-.85,3.13.03.37,1.97,1.98,2.03,3.88.06,1.76-1.44,2.02-1.58,2.73-.1.52,1.45,2.1,1.61,3.74.25,2.58-.61,2.75-1.12,4.38-.1.31.98.16,1.1.62.3,1.14-.21,2.88.02,4.25.37,2.19,1.83,6,2.14,8.24.18,1.28-.41,2.51-.31,3.26.09.69,1.74,1.63,1.9,2.83s-.89,1.7-.9,2.07,1.56,1.48,1.83,2.43c.45,1.53-.48,2.54-.25,3.46.24.97,1.89,1.18,1.58,3.34-.27,1.87-5.65,5.4-7.45,6.23-8.83,4.1-25.59,3.85-34.37-.38-1.56-.75-3.67-2.16-3.45-4.15.11-1.03,1.18-1.64,1.36-2.41.24-1-.64-2.51-.16-4.05.25-.82,1.45-1.21,1.54-2.29.2-2.31.02-2.71.51-5.48.29-1.62-.58-3.37.83-4.65.45-.41,2.22-.54,1.38-1.58-.09-.11-1.26,0-1.56-.89-1.14-3.32,1.66-3.35,2.11-4.31s-.95-.68-1.09-1.17c-.95-3.45,1.98-5.21,2.03-5.91.04-.52-1.2-1.67-.96-3.25.17-1.18,1.38-1.57,1.58-2.31.26-1.01-.86-2.48-.36-4.14.29-.96,1.95-1.77,1.96-2.29,0-.31-1.21-1.13-.99-2.71.16-1.15,1.38-1.57,1.59-2.33.07-.24.43-3.76.59-4.81.28-1.85-.5-4.37,1.35-5.74.63-.47,2.47-.44,1.94-1.05-.05-.05-.91.14-1.27-.66-1.82-4.01,2.24-5.28,2.24-6.15,0-.3-1.03-.96-.98-2.14.05-1.27,1.39-2.08,1.51-2.85.17-1.07-.76-2.17-.16-4.04.32-.99,1.77-1.99,1.8-2.42.03-.52-1.06-1.3-.87-2.61.61-4.23,7.43-3.89,8.55-4.85,1.04-.9,1.35-10.93,1.73-11.36.14-.16,3.55.59,4.21.76ZM692.91,264.47c.06-.06.06-1.55,0-1.63-.11-.16-2.82,1.13-3.81.55.05.95,3.67,1.23,3.81,1.08ZM697.28,265.02c-.16-.13-1.6.2-2.22-.23-.41-.29-.67-3.64-1.6-1.13-.77,2.09,2.48,1.26,3.55,2.44.46.07.31-1.04.27-1.08ZM692.36,267.74c.26-2.12-1.35-3-3.27-2.72-.14.96,1.05.39,1.65.8.89.61-.15,2.36,1.61,1.92ZM686.37,274.29c-.7.07-4.18.41-4.33.56-.3.31-.07,3.07.8,3.25,1.44.28.88-2.53,2.46-1.36.46.34,0,1.61.8,1.91,2.03.74,1.22-2.17,2.18-2.17.28,0,3.19,4.05,3.81-.49.36-2.59-4.37-1.92-4.63-1.7-.12.1,1.13,2.22-.82,2.19-.81-.01-1.37-.54-1.37-1.37,0-.63,1.33.19,1.09-.82ZM694,275.38l-2.75,3.56c-1.34.58-3.07-1.23-3.79.79,3.31.53,6.74-.48,6.54-4.35ZM685.82,279.73c-1.31-2.51-1.46-.95-2.59-.64-1.78.5-2.57-1.7-2.33-3.17-3.22,2.69,2.12,4.58,4.91,3.81ZM685.56,280.84c-1.63.44-.1,2.71.54,2.71.87,0,2.16-3.44-.54-2.71ZM691.82,280.83c-.17-.16-3.46-.67-2.72,1.35s3.37-.74,2.72-1.35ZM683.1,281.38c-1.6-1.16-2.74,2.18-1.36,2.16.3,0,1.47-2.09,1.36-2.16ZM686.37,284.64c2.97-.05,7.41.96,7.08-3.27-1.6.68-2.54,3.7-4.53,2.18-.58-.44-.09-1.31-.91-1.09l-1.64,2.17ZM683.65,282.47c-.38.42-.31,2.2-1.91,2.2-1.94,0-1.72-2.54-1.91-2.74-.18-.18-1.62,1.24-1.62,1.36,0,.3,1.66,1.53,2.16,1.69.88.28,5.06.4,5.46-.86-1.11.38-1.75-2.11-2.17-1.64ZM690.73,285.74c-.11-.12-2.11.46-2.18.55-.27.35,1.79,3.15,1.64,3.26-.34.24-1.44-.36-1.92-.29-1.03.15-1.95,1.22-3.2.81-.85-.28-.75-1.76-1.15-1.6-.43.18-.85,1.2-1.76,1.52-3.46,1.24-2.31-2-2.89-2.61-1.15-1.22-2.41,2.8,1.34,3.3,3.12.42,9.74.07,12.26-1.96,2.78-2.23-.48-3.65-1.06-2.98-.13.15-.08,4.93-1.64,3.27-.11-.12,1.14-2.62.54-3.26ZM683.1,286.28c-.12-.11-3.15-.11-3.27,0-.42.4.65,2.94,1.37,3.26.99.44,2.23-2.95,1.9-3.26ZM688.01,286.29c-.13-.1-3.15-.12-3.27,0-.42.41.79,3.24,1.36,3.26s2.06-3.14,1.91-3.26ZM677.1,293.37c-1.26.28-1.55,2.35-.56,3.02,1.7,1.17,14.81-.63,16.4-2.19,2.09-2.05-.58-4.19-1.11-3.56-.21.25.39,3.67-1.46,4.28-2.33.77-3.67-1.78-3.99-1.56-.11.07-.23,1.81-1.47,2.13-1.48.38-2.3-1.57-2.63-1.58-.38,0-4.05,5.23-5.19-.55ZM690.73,291.19c-.37-.36-4.44.21-3.23,2.13.09.14,2.35.78,2.66.57.16-.11.74-2.54.57-2.71ZM681.46,291.74c-.2-.19-2.6-.1-3.03.5-.55.77-.24,2.61.59,2.77,1.09.21,3.1-2.63,2.44-3.27ZM685.82,291.74c-.1-.09-2.63-.1-2.72,0-.26.26.01,2.56.83,2.72,1.09.22,2.23-2.42,1.9-2.72ZM694,296.64c-.82-.82-4.03.95-1.88,1.61,1.79.54,2.64-.84,1.88-1.61ZM689.64,297.19c-.17-.19-3.56.65-3.27,1.9.67,2.84,4.74-.3,3.27-1.9ZM684.74,298.28c-.41-.38-4.54-.66-3.81.8,1.13,2.26,4.61-.05,3.81-.8ZM679.28,298.28c-.12-.13-3.56-.07-3.26,1.35,1.28,2.2,4.4-.19,3.26-1.35ZM694.55,299.37c-2.89-1.37-4.82,1.87-5.79,2.07-1.18.24-2.56-1.3-3.21-1.32-.28-.01-5.01.43-5.36.49-.81.13-1.39,1.39-2.72,1.36-1.56-.03-1.25-1.95-2.25-1.5-.71.32-1.16,1.78-.83,2.17.1.11,2.48.5,2.94.5,3.56-.04,12.58-.93,15.59-2.4.63-.31,1.5-.54,1.64-1.36ZM694,302.64c-.37-.35-3.94-.34-2.68,1.58.99,1.51,3.85-.48,2.68-1.58ZM689.64,303.73c-.2-.17-2.24-.04-2.73.27-3.32,2.09,4.64,1.44,2.73-.27ZM694.39,306.84c.61-.49,1.36-2.24,1.24-3.11-2.5,3.9-3.37,1.22-4.64,1.21-.36,0-1.19,1.84-3.82,1.57-1.07-.11-2.01-1.02-2.18-1.01-.56,0-1.36,1.89-2.75,2.08-1.63.22-2.46-1.13-3.14-1.03-1.91.29-1.93,3.23-5.27-.63-.14,1.2-.12,1.45.92,2.08,2.44,1.49,17.17.84,19.64-1.15ZM684.19,304.28c-.32-.24-4.39-.14-4.35.81.02.58,1.44,1.34,2.32,1.28,1.17-.09,2.26-1.91,2.03-2.09ZM678.19,304.82c-.17-.16-3.46-.67-2.72,1.35s3.37-.74,2.72-1.35ZM697.27,308.64c-3.43-.96-2.2,2.81-3.81,3.58-.8.38-1.87-.52-2.88-.24-.78.21-1.17,1.46-2.32,1.59-1.64.18-2.9-1.57-3.26-1.56-.26,0-1.08,1.13-1.76,1.42-4.09,1.79-4.29-1.49-4.78-1.5-.24,0-2.44,3.36-3.81.52-.48-.98-.02-3.89-1.94-1.38-1.37,1.79.05,2.22,1.46,2.95,5.91,3.1,21.49,3.08,23.1-5.38ZM693.45,309.73c-.38-.36-3.42.68-2.72,1.08,1.35.79,3.72-.14,2.72-1.08ZM677.1,310.82c-.2-.19-2.04-.34-1.63.81.6,1.68,2.2-.28,1.63-.81ZM684.19,310.82l-4.9.26c1.09,2.7,3.61,2.05,4.9-.26ZM689.09,310.82c-.12-.11-2.85-.17-3.27.27,1.1,2.18,4.38.79,3.27-.27ZM673.28,316.27c-.4-.49-4.01,1.23-.41,3.96,4.36,3.3,15.89,2.63,20.71.26,1.7-.84,7.1-4.59,4.24-6.13-2.33-1.25-1.34.71-1.75,2.07-.62,2.05-2.64,1.07-3.59,1.6-.37.21-.53,1.74-1.58,2.02-1.14.29-1.98-1.27-3.13-1.09-.5.08-.27,2.57-3.61,1.44-.74-.25-1.45-1.23-1.97-1.32-.67-.1-1.51,1.26-3.14,1.03-1.18-.16-2.01-1.65-2.21-1.65-.18,0-1.83,2.4-2.99,1.63-.5-.33-.43-3.66-.55-3.81ZM693.46,316.81c.39.34,2.17-.27,2.17-.81,0-1.35-3.26-.15-2.17.81ZM676.01,316.82c-.39-.55-2.97-1.38-2.15,1.33.54,1.78,2.65-.62,2.15-1.33ZM691.82,316.82c-.65-.61-3.57.6-2.72,1.63,1,1.21,3.48-.92,2.72-1.63ZM680.92,317.36c-.11-.12-2.87-.16-3.27.27.68,2.71,4.68,1.21,3.27-.27ZM683.78,319.41c1.39,1.25,3.62-.42,3.67-1.23.08-1.49-6.23-1.08-3.67,1.23ZM670.67,323.45c-1.32,2.21,3.72,4.12,5.32,4.56,5.26,1.43,18.28,2.13,21.82-2.75,1.66-2.29,1.31-3.16-1.08-4.63.05,1.43-.47,4.41-2.03,4.84-.78.21-1.57-.33-2.08-.25-.73.11-1.09,1.51-2.71,1.48-2.13-.04-.84-.5-3.84-.09-2.28.31-3.84-1.09-4.26-1.02-.52.09-.94,1.06-1.45,1.31-2.59,1.25-3.56-1.24-4.07-1.24-.34,0-1.1,1.23-2.18.97-1.29-.31-.45-4.4-1.65-4.35-.11,0-1.74,1.09-1.8,1.18ZM694.28,321.72c-.95.21-2.02,2.38-.55,2.72s2.58-3.17.55-2.72ZM676.01,323.36c-.3-.28-2.84-.49-2.17,1.35s2.71-.86,2.17-1.35ZM691.27,323.36c-.35-.35-3.02.02-2.72,1.35.47,2.09,3.97-.11,2.72-1.35ZM677.72,326c.53.49,3.49.13,3.2-1.28-.2-.94-3.44-1.09-3.81-.82-.09.06.53,2.02.61,2.1ZM683.1,325.54c.31.25,3.82.07,3.8-.81-.03-1.79-5.27-.41-3.8.81ZM671.1,328.27c-.6-.76-3.73,1.93-1.05,4.05,3.45,2.73,15.45,3.49,19.8,2.97,1.02-.12,7.07-2.26,7.42-2.67.04-.05.04-1.03,0-1.08-.22-.26-5.13,1.61-5.72,1.61-.98,0-1.81-1.1-2.63-.96s-1.54,1.51-3.38,1.58c-2.35.09-2.5-1.43-3.33-1.6-.74-.15-1.81,1.09-3.15,1.01-1.66-.09-2.67-1.94-3.3-2-.91-.09-2.13,1.38-3.55.67-1.65-.83-.87-3.28-1.1-3.57ZM697.82,330.99c1.24-.33,1.13-1.71,1.08-2.73-1.24.33-1.13,1.71-1.08,2.73ZM672.2,328.81c-.56.57.31,2.59,1.9,2.17,2.01-.53-1.13-2.97-1.9-2.17ZM694.55,330.99c.78.78,3.02-1.02,2.17-2.18-.11-.15-3.44.91-2.17,2.18ZM692.91,329.9c-.26-.24-2.86.22-3.27.81.88,2.18,4.72.57,3.27-.81ZM680.92,330.45c-.15-.12-3.29-.15-3.81.27.86,2.22,5.18.87,3.81-.27ZM688.01,331l-4.9.26c1.41,1.97,3.89,1.95,4.9-.26ZM699.28,337.91c1.17-1.4,1.48-2.97-.1-4.19.37,5.17-2.59,3.12-3.47,3.89-.54.48.53,2.71-3.05,2.09-.73-.13-1.44-.96-1.67-.95-.54,0-1.14,2.11-3.66,1.4-.76-.22-1.79-1.45-2.33-1.4-.59.05-1.5,2.2-4.89,1.51-1.16-.24-1.59-1.33-2.16-1.41-.79-.11-2,.69-3.24.27-.89-.3-.67-1.61-1.16-1.59-.9.03-1.43,1.34-2.61,1.06-1.79-.43-1.32-3.05-1.47-3.22-.28-.31-1.52.37-1.62.85-.18.84,1.44,2.73,2.21,3.2,5.72,3.55,24.72,3.93,29.22-1.49ZM697.82,334.81c-.43-.47-2.07.91-2.18,1.63,1.47.6,3.16-.56,2.18-1.63ZM670.56,337.53c.72.72,3.23-.95,1.35-1.63-1.61-.58-1.76,1.22-1.35,1.63ZM694.54,336.45c-.23-.24-2.89.23-3.27.81.39.95,2.77,1.89,3.27,1.36.07-.08.08-2.1,0-2.18ZM674.38,336.99c1.32,3.11,3.76.58,1.88.02-.53-.16-1.29.03-1.88-.02ZM683.64,338.08c-.17-.13-3.75-.14-4.36.27.49,1.45,5.98.97,4.36-.27ZM689.64,338.08l-3.27.26c1.31,1.78,2.27,1.7,3.27-.26ZM701.09,339.72c-2.07-.15-1.38,2.07-1.93,3.25-1.33,2.85-4.33,1.03-4.54,1.18-.47.33-.34,1.92-2.58,2.11-1.65.14-2.35-.97-2.68-.97-.36,0-1.02,1.31-2.19,1.52-2.46.43-3.76-1.47-4.33-1.47s-1.59,1.31-3.8.91c-1.87-.34-1.63-1.87-1.98-2.13-.12-.09-1.83.66-2.95.56s-1.6-.83-2.27-.98c-1.51-.32-2.96,1.44-3.46-2.35-1.15.28-1.32,2.07-1.12,2.92.12.5,8.58,3.39,9.6,3.59,3.36.66,8.47.43,11.89-.04,4.09-.56,13.51-2.63,12.33-8.11ZM671.65,341.35c-.11-.1-2.64-.45-2.17.81.69,1.88,2.9-.14,2.17-.81ZM698.36,341.35c-.26-.25-3.33,1.19-3.27,1.36.91,2.19,4.06-.58,3.27-1.36ZM672.74,341.9c-.96.96,2.75,3.29,2.71,1.36,0-.37-2.34-1.73-2.71-1.36ZM689.64,343.54c1.01,2.15,3.01,2.18,4.35.27l-4.35-.27ZM678.34,345.01c2.07,1.78,6.77-1.1,1.78-1.5-1.68-.14-3.6-.06-1.78,1.5ZM684.54,343.61c-1.8.5.1,2.41,2.07,2.12,3.11-.46,1.79-3.19-2.07-2.12ZM666.91,349.37c1.41,1.54,6.83,3.02,8.98,3.28,7.31.87,18.21,1.32,24.06-3.44,1.72-1.4,3.95-2.87,1.14-4.04.26,2.11-.74,2.95-2.36,3.94-.4.25-1.1-.11-1.34.04-.22.13-.46,1.07-1.34,1.6-2.79,1.68-3.17-.1-4.51.04-.51.05-1.01,1.34-2.7,1.51-2.73.28-3.32-1.38-4.47-1.58-.75-.13-1.87,1.01-3.17,1.02-1.58.01-3.02-1.52-3.81-1.47s-1.59,1.46-3.72.79c-1.28-.4-1.25-1.84-1.54-2.04-.4-.29-2.18,1.06-3.24.28-.79-.58-.36-2.33-.51-2.5-.38-.43-2.97.92-1.47,2.57ZM700,346.26c-.53-.51-2.71.84-2.71,1.36,0,1.95,3.67-.44,2.71-1.36ZM669.47,348.98c.64.56,2.43-1.04.81-1.63-1.88-.68-1.17,1.32-.81,1.63ZM676.01,348.99c-.09-.1-2.63-.65-2.72-.55-1.48,1.55,4.43,2.39,2.72.55ZM696.18,348.44c-.29-.25-4.99.38-3.81,1.62,1.48,1.57,4.78-.78,3.81-1.62ZM683.1,350.61l-4.36-1.08c.94,1.86,2.7,1.7,4.36,1.08ZM690.19,349.53c-.17-.18-4.39-.19-4.35.82.03.79,3.09,1.57,4.01.86.48-.37.5-1.51.34-1.68ZM703.26,350.08c-2-.31-.28,1.12-1.11,2.37-1.47,2.19-3.25.71-3.68.97-.8.47-.87,2.09-3.79,2.56-1.94.31-6.1.77-8,.61-.85-.07-1.68-.88-2.19-.85-.88.05-1.95,1.13-4.39.9-1.08-.1-2.29-.94-2.7-.91-.54.04-1.06.97-2.66.88-2-.11-2.72-1.56-3.6-1.87-1.04-.36-2.43,1.1-3.54-.9-.48-.87-.22-3.03-1.96-.8-1.57,2.02.95,2.6,2.76,3.29,7.38,2.83,24.73,2.37,31.81-1.42,1.87-1,4.35-2.44,3.06-4.84ZM701.63,352.25c1.21-1.69-2.72-1.65-2.71-.27,0,1.04,2.48.59,2.71.27ZM670.56,352.8c-.08-.07-2.03-.21-2.17.27.84,1.59,3.21.65,2.17-.27ZM697.27,352.8c-.31-.34-3.75.86-4.36,1.36.92,1.91,5.87.26,4.36-1.36ZM676.56,353.89c-.17-.14-4.2-.7-4.35-.55-2.19,2.12,6.96,2.66,4.35.55ZM683.1,354.44c-.19-.16-4.2-.11-4.9.27.73,2.03,6.61,1.15,4.9-.27ZM690.73,354.44l-4.9.27c1.22,1.64,1.96,1.48,3.72.98.96-.27,1.42.17,1.18-1.25ZM701.63,359.34c.72.7,4.3-2.76,1.9-3.81-1.26-.55-.6,3.28-1.9,3.81ZM701.63,356.62c-.35-.32-3.79.74-3.8,1.36-.05,2.06,5.13-.15,3.8-1.36ZM666.74,357.71c-.46-.53-3.97,1.51-.5,3.5,1.52.87,8.73,2.85,10.58,3.05,7.74.8,17.33-.22,24.26-3.83l-3.75-1.03c-.47,2.06-2.66,3.02-4.65,2.68-3.61-.62-1.53-.14-4.39.06-2.11.15-1.88-.52-4.94-.08-2.49.35-3.19-.86-4.43-.97-.67-.06-1.56,1.09-3.16,1.04-1.7-.05-2.76-1.48-3.29-1.51-.97-.04-1.52,1.53-3.94.5s-1.52-3.1-1.78-3.41ZM671.11,358.8c-.12-.11-2.65-.23-3.27-.55-.24,1.32,1.62,1.95,2.52,2.12,1.28.24.82-1.51.75-1.57ZM696.18,358.25c-.17-.19-4.21,1.1-4.9,1.36,1.43,3.15,6.31.2,4.9-1.36ZM677.65,359.89c-.89.22-1.88-.43-2.58-.43-3.15,0,1.37,3.16,2.58.43ZM681.25,359.44c-2.97.83,2.93,2.7,2.93.72,0-.73-2.5-.84-2.93-.72ZM689.64,359.34c-.13-.14-3.21.72-3.81.81.75,1.91,5.44.93,3.81-.81Z"/>
      <path class="cls-1" d="M792.67,636.31c-.97-.24-3.83.95-4.36.55"/>
      <path class="cls-1" d="M392.67,117.56c.19.2.34,2.04-.81,1.63-1.68-.6.28-2.2.81-1.63Z"/>
      <path class="cls-1" d="M821.56,592.16c1.2,1.02-3.35,3.52-5.49.86-2.61-3.25,1.36-1.16,2.52-.89.76.18,2.78-.13,2.97.03Z"/>
      <g>
        <path class="cls-1" d="M35.56,11.99c.19.18,1.21-.13,1.46.11.22.21.17,1.73.52,2.5,1.7,3.68,4.11,8.35,6.02,11.98,1.23,2.32,5.43,7.72,5.99,9.87.74,2.85-.38,9.17.06,12.43.14,1.04,1.12.73,1.16,1.12.09.74-.58,2.06-.6,3.18-.08,5.18.11,10.38.03,15.56,3.27-2.99,6.75-5.77,9.82-8.98,1.38-1.44,10.23-11.38,10.59-12.3.38-.98.71-4.85.83-6.25.43-4.94-.69-14.6,4.09-17.72,10.23-6.67,6.92,16.55,7.33,21.02.23,2.51,8.43,14.83,10.48,17.87,1.39,2.07,3.83,4.11,5.26,6.19,5.99,8.72,10.81,18.65,16.68,27.48,3.26,4.91,6.02,10.14,10.02,14.51l-.98,24.97c-.6,3.03-8.33,1.36-10.61,1.33-10-.12-20.03.01-30.03,0-20.07-.01-43.46,1.47-63.23.04-1.17-.08-5.32-.52-5.7-1.39-.85-1.97,1.97-1.32,2.2-2.27l-.29-29.7,3.31-3.99c-.6-9.78-.3-19.81-.32-29.47-.01-5.16.72-11.79.04-16.94-.14-1.06-1.13-.74-1.16-1.09-.12-1.08,1.28-2.51,1.54-3.91.36-1.93.22-7.3-.53-9.05-.46-1.06-1.86-.46-1.54-2.23,2.75-4.17,5.42-8.39,8.28-12.49,1.42-2.03,6.74-7.83,7.22-9.61.1-.38-.17-7.5-.3-7.87-.3-.88-1.5-.81-1.56-.89-.76-1.07,1.56-1.43,1.67-2,.15-.78-1.51-4.46.77-3.99,2.73.56.6,11.14,1.44,11.95ZM34.4,21.57c.12,3.62,0,7.28,0,10.9,0,.34,1.35,1.14,1.63.82.5-.58-1.45-13.21-1.09-15.26-2.17.82-.57,2.74-.54,3.54ZM38.75,34.39c-.41-4-.08-8.9-.57-12.78-.08-.65-.77-2.86-1.6-3.03.79,4.03-.16,10.24.55,13.89.17.87.76,1.65,1.62,1.92ZM33.3,33.29c.63-.83-.91-10.66-.81-12.53-.91.62-.78,1.49-.85,2.42-.17,2.38.27,6.82.57,9.31.1.81.44,1.66,1.09.8ZM30.58,24.57c-.31.03-1.09-.05-1.09,0v10.36c0,.05,1.09.05,1.09,0v-10.36ZM80.19,42.02c.51-.55,0-12.89,0-14.99,0-.37-1.03-1.92-1.82-1.85-2.96.24-3.75,5.13-4.11,7.37-.64,3.95-.64,8.35-.89,12.2,1.12-.85,2.74-3.29,4.05-3.58.92-.2,2.32,1.34,2.77.85ZM41.48,36.57c.28-.32,0-7.19,0-8.45,0-.16-1.41-2.92-1.63-2.45-.51,1.08.54,2.52.54,3v7.91c0,.05,1.05.04,1.09,0ZM28.4,36.84c.6-2.35-.44-6.9,0-9.54-2.68.18-1.6,9.84-1.08,10.36.15.16,1.03-.61,1.08-.82ZM25.67,38.2l-.26-7.08c-1.31,1.33-.94,3.94-.68,5.59.08.49.23,1.64.95,1.49ZM44.75,37.12c.37-.35.07-5.26-1.63-5.46-.13,1.38-.41,7.42,1.63,5.46ZM23.49,34.39c-1.54-1.73-1.54,5,0,3.27.11-.12.11-3.14,0-3.27ZM37.67,37.65c-.81-2.44-5.52-2.94-6.54-.8-.52,1.1.89.78,1.35.81,1.71.12,3.48-.08,5.19,0ZM40.94,49.65c.29-.63,0-9.22,0-10.9,0-.03-.55-.03-.55,0v10.9s.53.02.55,0ZM42.57,38.75v11.45c2.5-.84,1.15-.58,1.09-2.44-.07-1.98.12-3.96-.06-5.95-.05-.6-.25-3.01-1.02-3.07ZM44.75,38.75v10.9l1.14-5.72-1.14-5.18ZM36.58,50.2v-10.9c-.35-.04-1.09.72-1.09.82v9.27c0,.1.74.86,1.09.82ZM39.3,49.65l-.81-10.35c-1.25,1.89-.49,6.5-.14,8.86.07.47.24,1.64.95,1.49ZM47.48,49.65c.29-.61,0-8.73,0-10.36,0-.03-.55-.03-.55,0v10.36s.53.02.55,0ZM28.94,39.84c-.64-.84-1.01,0-1.1.82-.3,2.67.55,6.76.56,9.54,1.2.06,1.01.21,1.11-.83.25-2.53-1.26-6.63-.57-9.53ZM31.67,48.84c-.12-2.7,0-5.47,0-8.18,0-.09-.73-.86-1.08-.82,0,1.48.04,9.68.54,10.36,1.61,2.2.55-1.26.54-1.36ZM33.31,40.66c.01,3.18,0,6.37,0,9.54,1.72.57,1.17-3.03,1.12-4.12-.1-2.1-.82-4.11-.57-6.24-1.95-.32-.54.26-.54.82ZM21.86,40.39v9.81c1.91.47.43-2.69,1.12-3.53l-1.12-6.28ZM24.04,40.39v10.36c1.8.39.94-1.34,1.12-2.48l-1.12-7.88ZM26.77,50.74c.29-.61,0-8.73,0-10.36,0-.03-.55-.03-.55,0v10.36s.53.02.55,0ZM122.16,133.07v-20.45c0-.55-5.71-7.42-6.55-8.71-10.41-15.8-19.98-32.36-30.2-48.31-.94-1.47-6.44-12.08-7.13-11.95-1.47.29-13.59,14.62-15.81,16.91-14.14,14.56-29.62,27.8-43.06,43.08-.66,10,.11,20.01-.83,29.98l35.98.54c.02-4.62-.28-9.27,0-13.9.39-6.36.99-13.36,6.52-17.47,4.54-3.37,14.24-3.6,18.82-.25,2.62,1.92,5.18,8.09,5.18,11.17v19.9l37.07-.55ZM47.48,51.84c-.43-.43-10.16,1.37-11.99.55.48,1.06,2.05.39,3.25,1.38,3.66,3.03.29,9.35-4.08,9.56-5.93.29-5.68-8.4-1.35-10.94l-10.91.54v44.17s14.49-15.27,14.49-15.27c-1.53-2.8-.8-13.62,1.07-15.79,1.5-1.74,4.1-.65,4.88,1.08,1.11,2.47-.31,6.61-.26,9.26,1.03-1,4.78-3.92,5.19-4.92s-.8-6.23-.86-7.87c-.08-2.47-.09-5.21,0-7.68.03-.88.84-3.78.57-4.06ZM35.49,57.28c.67.72,2.69-1.48.81-2.17-1.26-.46-.91,2.06-.81,2.17ZM34.4,58.92c-.29-.31.43-2.74-.27-3.27-5.15,7.54,5.6,4.1,3.54,2.18-.56-.52-2.76,1.63-3.27,1.08ZM40.94,78.54c.18-.25-.6-1.74-.57-2.46.05-1.16,1.56-8.47-.25-8.42-1.61.05-2.41,10.91-1.91,11.44.16.17,2.64-.44,2.73-.55ZM83.46,133.62c.7-.67,0-16.79,0-19.36,0-1.03-1.49-6.14-2.07-7.2-3.23-5.9-9.99-6.11-15.82-4.69-2.05.5-4.28,2.05-5.55,3.72-3.47,4.54-3.73,11.75-3.84,17.42-.07,3.7.64,7.02.57,10.66.44-.07,1.52.11,1.63,0,.42-.4-.09-9.91,0-11.72.31-5.63.73-12.63,5.18-16.63s12.28-3.48,15.64,1.8c.81,1.28,2.62,5.89,2.62,7.19v18.81c0,.08,1.58.06,1.64,0ZM80.19,133.62c.67-.66,0-16.25,0-18.81,0-2.17-2.48-7.94-4.69-8.94-5.1-2.31-10.98-.69-13.41,4.47-1.33,2.82-1.95,11.34-2.1,14.81-.07,1.6-.31,7.05-.01,8.14.14.52,2.16.73,2.76.88v-15.81c0-.15,2.67-.44,3-.44,2.66-.01,7.87.11,10.39.41.55.06,1.88.25,1.88.85v13.63c0,.57,1.85,1.15,2.18.82ZM63.83,120.26c-.53,1.72,0,10.45,0,13.09,0,1.02,6.3.51,6.54.28.49-.48-.4-13.11-.79-13.67-.61-.88-5.4-.86-5.76.31ZM76.92,119.99c-1.03.19-5.67-.27-5.99,0s.54,1.26.54,1.36v12.27c0,.27,5.45.27,5.45,0v-13.63Z"/>
        <path class="cls-1" d="M50.75,79.91c.61-5.17,3.81-9.25,9.14-9.96.79-.1,2.11.56,2.3.42.23-.16,1.32-4.08,2.09-5.29,2.61-4.1,10.15-7.22,14.27-4.24,2.58,1.86,2.87,10.74,3.29,11.16s6.16-1.15,8.64,3.08c1.29,2.19,1.61,8,1.74,10.8.17,3.53-.18,7.13-.02,10.66-7.9.11-15.83-.15-23.74-.03-4.92.08-10.75,1.19-15.81.6-.55-.06-1.88-.25-1.88-.85,0-4.96-.55-11.65,0-16.36ZM80.81,73.57c-.82-.52-1.04-10.36-3.9-11.64-3.88-1.73-9.37.9-11.45,4.34-1.13,1.87-1.41,5.52-1.62,5.74-.35.36-3.11-.5-3.96-.43-2.62.22-5.47,2.58-6.5,4.96-.93,2.16-1.47,7.4-1.56,9.89-.04,1.28.16,9.13.57,9.56,1.32,1.38,33.67-1.78,38.16-.54-.37-4.51.89-16.85-1.96-20.13-2.6-3-6.46-.91-7.78-1.75Z"/>
        <path class="cls-1" d="M90,125.44c-1.51-1.28-.57-13.83,2.04-15.82,3.78-2.88,5.81.47,7.4.44,1.05-.02,2.44-1.19,3.51-1.4,2.85-.55,5.6,1.1,6.11,4,.35,2.04.7,11.63-.55,12.78-.07.06-1.51,0-1.88,0-2.3,0-15.99.54-16.63,0ZM91.09,115.9c-.28,2.31,0,5.47,0,7.91,0,.77,14.25-.36,15.47.03,1.15-.32,1.41-10.96.04-12.55-2.76-3.21-4.28.68-5.71,1.33-3.47,1.58-2.5-1.2-3.62-1.94-3.47-2.3-5.83,2.35-6.18,5.22Z"/>
        <path class="cls-1" d="M38.77,110.72c.46.34,6.55-6.94,8.99.54.64,1.96,1.42,12.46.57,13.67-.66.95-15.14.65-17.41,1.56-2.14-.63-1.28-11.74-.46-13.99.96-2.64,4.85-5.7,7.52-3.45.69.58.72,1.61.79,1.66ZM31.13,115.9c-.35,2.78.25,6.14,0,9l15.81-1.09v-9.54c0-.45-1.61-4.6-1.99-4.68-3.17-.67-5.54,3.76-5.92,3.86-1.33.33-1.64-2.51-2.43-3.02-2.55-1.62-5.19,3.31-5.46,5.47Z"/>
        <path class="cls-1" d="M27.72,65.01c1.99-.36,3.57.88,4.14,2.73s.06,12.99-1.26,13.83c-1.06.68-4.98,1.34-5.44-.59-.64-2.7-.77-13.11.81-14.94.41-.47,1.14-.91,1.75-1.03ZM29.49,68.19c-1.03-.37-2.18.35-2.18,1.36v10.09c0,.08,1.57.06,1.63,0,.09-.09.55-2.33.55-2.46v-9Z"/>
        <path class="cls-1" d="M62.74,116.17c-.12-.12-.07-2.93.03-3.52.44-2.61,3.99-6.24,6.77-6.35,7.18-.31,10.19,9.87,7.64,9.87-1.98,0-13.94.51-14.45,0ZM69.83,108c-.34-.37-3.48.57-3.27,1.9.26,1.59,4.51-.55,3.27-1.9ZM73.64,110.72l-2.72-2.72c-.48,1.67,1.39,2.51,2.72,2.72ZM74.2,110.72c-.21.83.59,4.33,1.36,4.35,1.71.04.14-4.27-1.36-4.35ZM65.4,114.46c.11-.07,1.15-2.25,1.15-2.38-.01-.34-1.22-1.11-1.61-.81-.35.26-2.18,4.88.47,3.2ZM69.83,111.27c-1.05-1.03-2.76.78-.27,2.18.47-.19.35-2.1.27-2.18ZM72.55,111.27c-1.06-.98-2.23.71-1.63,2.18.72-.11,2.09-1.75,1.63-2.18ZM73.64,115.08c.95-.94-1.25-3.37-2.17-.81-.45,1.26,2.07.91,2.17.81ZM69.29,115.08c-.41-1.26-2.14-2.38-2.72-.8-.49,1.32,1.6.71,2.72.8Z"/>
        <path class="cls-1" d="M75.87,35.43c-.87-.59-1.42-6.99,1.78-6.41,2.96.54,1.33,8.51-1.78,6.41Z"/>
        <path class="cls-1" d="M78.01,93.82h-11.45c.07-7.17-.32-14.91,1.23-21.94.66-2.99,2.27-7.34,6.08-6.95,1.89.19,4.14,3.01,4.14,4.63v24.26ZM73.64,67.65c-.08-.1-2.33.24-2.46.49-.3.58-.44,3.15-.26,3.33.1.1,2.63.1,2.73,0,.14-.13.12-3.67,0-3.82ZM75.82,68.74c-1.28-1.26-1.33,2.48-1.08,2.73.08.08,2.09.05,2.18,0,.12-.08-.99-2.62-1.1-2.72ZM69.83,71.46c.07-.08.08-1.99,0-2.18-.47-1.04-1.66,4.06,0,2.18ZM73.65,72.55c-.1-.1-2.64-.1-2.73,0-.13.14.25,3.03-.54,3.81.67-.11,3.1.18,3.27,0,.14-.14.14-3.69,0-3.82ZM76.91,76.37c.84-.82-.65-5.35-2.17-3.82-.13.14-.14,3.69,0,3.82.08.08,2.1.07,2.17,0ZM69.83,73.1c-1.51-1.71-1.51,4.43,0,2.72.09-.1.09-2.62,0-2.72ZM73.65,76.91c-.18-.18-2.6-.11-3.03.51-.32.46-.37,3.18-.24,3.31.12.12,3.16.12,3.28,0,.14-.13.13-3.69,0-3.82ZM76.83,80.11c1.01-1.65-1.04-4.25-2.1-3.19-.13.14-.13,3.67,0,3.81.18.19,1.99-.45,2.1-.62ZM69.83,77.46c-1.44-1.35-2.63,1.98-.81,3.27,1.32.4.93-3.15.81-3.27ZM69.83,86.18c.16-.18.11-4.2-.27-4.9-2.88.42-.92,6.26.27,4.9ZM73.1,86.18c.15-.16.51-4.12.32-4.38-.45-.62-2.85-.71-3.04-.52-.18.17-.18,4.74,0,4.91.1.09,2.63.09,2.72,0ZM76.92,81.82c-.1-.1-2.63-.1-2.73,0-.16.15-.16,4.21,0,4.37.1.1,2.63.1,2.73,0,.16-.15.16-4.21,0-4.37ZM69.83,89.45c.97-.97-1.32-4.34-2.11-1.84-.73,2.32,1.61,2.34,2.11,1.84ZM73.1,86.73c-.1-.1-2.63-.1-2.73,0s-.1,2.63,0,2.73,2.63.1,2.73,0,.1-2.63,0-2.73ZM76.92,86.73c-.1-.1-2.63-.1-2.73,0-.47.47-.33,4.22,2.22,2.49.59-.4.7-2.3.51-2.48ZM69.83,90.55c-.74-.74-3.37.43-2.18,1.63.74.74,3.37-.43,2.18-1.63ZM73.1,90.55c-.13-.14-3.56-.64-2.72,1.36.36.86,2.45,1.09,2.72.82.08-.08.08-2.1,0-2.18ZM73.7,92.13c.37.58,3.56,1.02,3.22-.75-.23-1.2-4.62-1.48-3.22.75Z"/>
        <path class="cls-1" d="M52.93,94.91c-.85-.85-.46-23.6,7.09-19.91.93.45,2.72,5.14,2.72,6.01v13.09c0,.06-.76.82-.82.82-1.27,0-8.68.32-8.99,0ZM58.38,80.73c.65-.63-.48-5.14-1.63-3.82-.45.51-.15,5.54,1.63,3.82ZM60.56,80.73c.69-.67-.64-4.42-1.63-3.27-.55.64.03,4.84,1.63,3.27ZM56.2,78.01c-1.51-1.71-1.51,4.43,0,2.72.09-.1.09-2.62,0-2.72ZM61.06,81.88c-.05-.08-1.48-.79-1.87-.08-.34.6-.41,3.68-.25,3.83,1.29,1.3,3.1-2.2,2.13-3.76ZM55.65,81.83c-1.25-1.65-1.38,3.42-1.08,3.81,1.25,1.65,1.38-3.42,1.08-3.81ZM58.38,81.82c-1.83-1.74-2.07,3.41-1.63,3.82,1.83,1.74,2.07-3.41,1.63-3.82ZM55.65,89.45c.69-.69-.79-3.67-1.63-2.72-.66.75.23,4.11,1.63,2.72ZM58.38,86.73c-.08-.08-2.1-.08-2.18,0-.12.11-.12,3.16,0,3.28.08.08,2.1.08,2.18,0,.12-.11.12-3.16,0-3.28ZM61.11,86.73c-.08-.08-2.1-.08-2.18,0-.12.11-.11,3.16,0,3.27,1.31,1.34,3.06-2.4,2.17-3.27ZM55.66,93.82c.12-.11.16-2.87-.27-3.27-2.71.68-1.21,4.68.27,3.27ZM58.38,90.54c-.08-.08-2.1-.08-2.18,0-.12.11-.12,3.16,0,3.28.08.08,2.1.08,2.18,0,.12-.11.12-3.16,0-3.28ZM61.11,93.27c.9-.89-1.08-3.85-2.17-2.72-.09.1-.1,2.63,0,2.73.08.08,2.1.07,2.18,0Z"/>
        <path class="cls-1" d="M88.91,93.82h-8.18v-10.09c0-.59.8-4.13,1.06-4.94.82-2.59,2.57-4.05,5.16-2.36.47.3,1.96,2.68,1.96,2.94v14.45ZM85.09,81.27c.12-.15.16-3.3-.27-3.81-1.45.52-.92,5.37.27,3.81ZM83.46,80.73c.07-.08.21-2.03-.27-2.18-1.58.84-.65,3.21.27,2.18ZM87.27,81.27c.16-.17-.37-2.53-.55-2.72-.83-.87-.9,4.26.55,2.72ZM85.09,82.37c-1.47-1.67-1.47,3.84,0,2.18.07-.08.07-2.09,0-2.18ZM87.27,82.37c-1.47-1.67-1.47,3.84,0,2.18.07-.08.07-2.09,0-2.18ZM83.46,82.92c-.67-.72-2.69,1.48-.81,2.17,1.26.46.91-2.06.81-2.17ZM83.46,88.91c.12-.11.16-2.87-.27-3.27-2.71.68-1.21,4.68.27,3.27ZM85.09,85.64c-1.54-1.73-1.54,5,0,3.27.11-.12.11-3.14,0-3.27ZM86.19,88.91c.96,1.03,2.77-2.46.81-3.26-1.28-.52-.95,3.11-.81,3.26ZM83.46,89.46c-.82-.92-2.32,1.95-1.63,2.72.82.92,2.32-1.95,1.63-2.72ZM85.09,89.46c-1.51-1.71-1.51,4.43,0,2.72.09-.1.09-2.62,0-2.72ZM87.82,89.46c-.77-.76-2.15.09-1.61,1.88.65,2.16,2.43-1.06,1.61-1.88Z"/>
        <path class="cls-1" d="M92.76,122.68c-.66-.62-.93-10.95,3.12-9.97s2.85,10.09,1.41,10.51c-.22.07-4.37-.39-4.54-.54ZM96.46,121c1.47-.89.16-7.72-1.55-6.46-.27.2-1.37,6.27-1.1,6.54.1.09,2.34.11,2.65-.08Z"/>
        <path class="cls-1" d="M103.48,112.45c4.74-.7,3.83,8.75,2.88,9.46s-3.95.82-4.92,0c-1.23-1.04-1.13-8.99,2.04-9.46ZM105.18,120.44c.51-.8.21-6.47-1.28-6.44-1.33.02-2.23,6.63-.5,7.05.24.06,1.7-.48,1.78-.6Z"/>
        <path class="cls-1" d="M45.3,122.17c-.16.16-3.88.12-4.39-.24-1.05-.74-1.15-5-.8-6.32.95-3.59,5.19-3.73,5.19-1.89,0,1.21.3,8.15,0,8.45ZM43.66,121.08c1.03-.76.45-7.09-.81-7.08-.96.01-1.57,4.19-1.38,5.16s1.91,2.11,2.19,1.91Z"/>
        <path class="cls-1" d="M36.55,122.68c-.17.17-2.41.11-2.89-.05-1.34-.43-1.71-8.48.58-9.11,4.47-1.24,2.76,8.73,2.31,9.16ZM35.48,115.08c-.67-.89-.99,0-1.09.81-.09.72-.15,4.98,0,5.19.67.89.99,0,1.09-.81.09-.72.15-4.98,0-5.19Z"/>
      </g>
      <g>
        <path class="cls-1" d="M129.98,365.65c5.86.84,15.46,3.39,19.93,7.24,8.22,7.08,12.47,20.02,8.99,30.49-4.51,13.56-19.12,21.88-33.07,19.44-6.44-1.13-17.62-7.89-20.74-13.78-6.88-12.98-2.11-30.63,9.71-39.08,1.53-1.09,6.52-3.96,8.16-4.5.92-.3,5.81.01,7.02.18ZM118.29,368.92c-12.91,7.33-19.43,25.49-12.31,38.92,4.64,8.75,18.26,14.85,28,14.32,4.87-.27,13.95-5.39,17.4-8.82,11.11-11.04,9.31-29.1-1.94-39.18-6.5-5.83-23.16-9.77-31.16-5.23Z"/>
        <path class="cls-1" d="M93.36,372.28c.53.21,1.37-2.89,1.44-3.19.21-.9.3-1.75.6-2.74.33-1.05,2.05-6.34,3.26-3.27.47,1.18-2.32,7.52-2.31,9.45.55.21.95-.84,1.08-1.2.49-1.35.59-2.85,1.12-4.16.23-.58,2.11-4.48,2.34-4.6.49-.25,1.12.35,1.29,1.03.64,2.55-3.14,13.92-5.13,15.31-.53.37-1.79.49-1.97.89-.43.99-.81,4.71-1.28,6.3-1.78,6.06-5.52,14.16-6.18,20.14-.19,1.76.63,8.67-3.02,7.6-.54-.16-1.6-1.19-1.78-1.75-.6-1.82.12-6.15.73-8,2.2-6.68,7.44-16.69,8.11-23.39.28-2.84-.41-1.82-1.44-3.33-.65-.96.07-5.04.34-6.46s2.09-9.25,2.81-9.58c.03-.01.05-.03.07-.05.68-.65,1.84-.02,1.85.92.02,2.83-1.71,7.26-1.94,10.09ZM92.73,366c-.65,2.85-1.04,5.44-1.75,8.28-.64,2.55.92,2.39,1.58,3.66,1.13,2.14-1.39,8.28-2.12,10.67-1.7,5.59-4.85,11.99-6.15,17.31-.28,1.13-1.14,7.49,1.31,6.51,1.28-.51.93-7.5,1.26-9.16,1.19-6.08,5.05-13.77,6.76-20.11.33-1.21.13-3.48.81-4.68.18-.32,1.15-.01,1.79-.39,1.64-.95,4.61-9.66,4.85-11.81.06-.53.32-.98-.38-1.29-1.25,1.86-1.25,4.18-2.02,6.24-.34.9-2.28,4.93-3.3,3.54,0,0-.19-.4-.04-1.33.28-1.7,1.04-4.65,1.51-6.4.05-.17,1.19-3.54.55-3.08-.52.38-2.75,9.22-3.52,10.16-.29.36-.79.19-1.02,0-1.2-.94,1.08-9.37,1.34-11.17-1.4.23-1.37,2.56-1.48,3.04Z"/>
        <path class="cls-1" d="M172.56,374.91c.17.28-1.02,5.21-1.08,6.41-.09,1.83.39,3.56.32,5.4-.47,13.59-4.12,27.62-4.67,41.33-.84,3.1-5.34,2.86-6.03-.67-.76-3.85,1.64-9.65,2.55-13.35.45-1.83,3.43-13.16,3.02-13.86-.45-.77-3.91,1.32-3.4-2.76.65-5.21,3.8-16.54,5.79-21.5.63-1.58,3.03-1.76,3.5-1ZM171.49,375.88c-.09-.14-.9-.38-1.23-.03s-1.03,2.65-1.22,3.29c-1.95,6.41-3.14,13.11-4.88,19.57,2.09.83,3.29-.68,3.41,2.06.32,7.39-6.36,18.32-5.48,25.67.37,3.08,3.31,4.04,4.08.53,1.4-6.45,1.39-15.01,2.17-21.73.66-5.63,2.27-11.12,2.41-16.91.06-2.33-.59-5.36-.41-7.65.08-.99,1.3-4.61,1.17-4.82Z"/>
        <path class="cls-1" d="M133.66,373.93c1.61.26,6.58,2.61,8.12,3.52,4.81,2.85,9.07,12.93,8.29,18.38-1.69,11.84-11.87,20.69-24.02,18.08-24.7-5.3-17.57-43.96,7.61-39.97ZM114.6,405.13c5.75,8.67,21.17,11.05,28.24,2.75,2.73-3.21,5.56-8.1,6.03-12.32.56-4.96-3.53-14.73-7.96-17.26-5.49-3.13-13.13-4.98-18.91-1.82-9,4.94-13.14,20-7.41,28.65Z"/>
      </g>
    </g>
  </g>
  <g id="Layer_2" data-name="Layer 2">
    <g>
      <g>
        <path class="cls-1" d="M351.18,550.49c.43-.06.29.91.26,1.16-.05.45.09.82-.39,1.14-.62-.42-.18-.49-.11-.87.08-.46.32-.91.24-1.42h0Z"/>
        <path class="cls-1" d="M345.44,511.94c.98-.21.41,1.25.13,1.66-.87,1.26-2.38,1.54-3.57.51.5-.72,1.74-.43,2.29-.77.28-.17.75-1.31,1.15-1.4Z"/>
        <path class="cls-1" d="M347.35,499.94c-.14,1.61-1.78.31-2.17.34-.16.01-1.15.94-1.4.04-.2-.73,1.23-1.32,1.66-1.32.49,0,1.23,1.02,1.91.94h0Z"/>
      </g>
      <g>
        <path class="cls-1" d="M265.92,572.71c.39-3.26,3.38-7.45,6.63-8.31,2.14-.57,2.88.56,1.74-2.75-.31-.91-1.08-1.45-.71-2.73,1.69-.11,1.89-.2,2.24,1.47.3,1.41.5,4.12,1.02,5.36.3.73,3.69,4.31,4.41,4.77,1.69,1.09,4.11-.92,5.05-2.33,1.53-2.28,1.16-4.62,1.63-7.05.21-1.1,1.03-3.3,1.51-4.36,1.42-3.17,3.83-4.16,5.83-6.68,1.92-2.42,2.68-9.26.99-11.96-.44-.71-1.27-1.19-1.75-1.83-1.04-1.39-1.34-3.79-1.27-5.49,1.17.09.9,1.76,1.14,2.56.8,2.74,2.05,2.66,3.09,4.57.51.95.71,2.06,1.01,3.07.58-.52,1.54-1.11,2.31-1.26.99-.19,2.81-.33,3.82-.27,1.5.1,4.36,1.16,5.58.47,1.75-.97.96-1.76.91-3.15-.06-1.83.44-3.58.28-5.39-.09-.95-1.11-2.83.17-3.15.54-.13,2.4.76,3.08.92,3.43.81,5.7.04,8.87.33,2.69.24,5.72,1.09,8.42,1.28,1.9.13,3.93-.11,5.85.02.09-.54,1.17-1.51.28-1.55-1.37-.06-2.75-.2-4.09-.26-7.28-.31-14.36.81-20.53-3.72-.62-.45-1.09-1.23-1.72-1.6-1.05-.62-2.42-.47-3.53-1.08-1.82.1-2.12,1.55-3.07,2.58-2.29,2.49-3.68-1.4-5.69-2.23-1.83-.76-4.12.11-5.86.91-1.08.49-3.1,2.17-4.09,2.31-.4.05-.77-.2-1.2-.18-5.35.26-12.55,4.16-15.98,8.26-2.54,3.03-2.78,7.21,1.78,8.19,2.32.5,4.69-1.18,6.84.06.86.49.79,1.44,1.48,2.1.56-.58,1.38-1.15,1.4-2.04-3.62-.05-11.05-3.19-8.03-7.91.68-1.06,1.82-1.23,2.75-1.85.76-.51,1.47-1.22,2.18-1.64,1.29-.76,6.55-1.85,8.08-1.84.74,0,2.89.62,3.43,1.12.42.38.83,1.47.14,1.65-.36.09-2.52-1.29-3.57-1.28-1.36,0-5.64.76-6.9,1.27-.44.18-3.89,2.45-4.33,2.82-.35.29-.74.75-.84,1.21-.87,3.83,5.4,4.46,7.74,5.43,1.98.83.87,1.05,1.18,2.12.34,1.21,2.44,2.27,2.76,4.67.25,1.91-.23,6.88-2.91,4.45-1.43-1.3-.98-3.35-1.53-5.11-.17-.55-1.03-1.56-.26-1.78,1.11-.31,1.61,2.72,1.8,3.56.1.46.2,3.45,1.26,2.31.92-.99.29-3.85-.42-4.93-.16-.25-1.62-2.03-1.74-2.1-.71-.39-1.33,1.07-1.67,1.42-1.41,1.41-2.09-2.46-3.11-2.76-1.92-.56-3.81.9-6.16.29-5.59-1.45-5.46-6.7-2.22-10.55,1.49-1.77,3.64-3.71,5.69-4.78.87-.45,7.17-3.39,7.59-3.39h3.96c.06-.35-.43-.36-.7-.45-1.01-.34-1.83-.49-2.8-1.03-.32-.18-1.81-1.27-1.85-1.48-.16-.76,3.41-2.5,3.8-3.33.12-.55-2.29-2.15-2.49-2.82-.16-.55-.11-2.08.07-2.65.67-2.13,5.37-3.63,7.03-5.48,1.3-1.45.79-1.98,1.04-3.55.66-4.08.95-6.01,4.08-8.94,2.31-2.16,4.09-2.5,7.25-2.19.79.08,1.51.44,2.3.51,1.07.1,2.56-.2,3.52.06.58.16,1.21.98,1.79,1.27,1.86.93,3.46.97,5.52,2.39,1.31.91,2.89,2.26,2.57,4.05-.09.52-.59.83-.71,1.34-.19.83.03,1.84-.08,2.73-.64,5.23-2.05,10.2-6.78,13.14-.52.33-2.03.75-2.11.83-.09.1-.09,2.3.09,2.54.21.29,1.69.6,2.17.9,1.87,1.16,3.21,2.84,5.58,3.62,3.62,1.18,5.36.77,8.84.85.69.02,1.92.66,2.58-.01.28-.28.46-1.09.78-1.52,1.42-1.91,3.72-1.28,5.65-2.01,1.63-.61,2.92-2.04,4.33-2.82,1.09-.6,1.54-.34.74.74-.69.93-4.06,3.28-5.17,3.51s-2.06,0-3.32.51c-.91.38-2.81,1.91-.98,2.11,1.48.16,3.8.2,5.36.26,2.01.07,2.88-.25,4.62-.51.82-.12,4.19-.23,4.46-.39,1.14-.7-.31-1.33-.47-1.84-.42-1.4.32-2.42.71-3.65-.75.38-2.43,6.91-3.45,3.84.21-1.22-1.89-5.29-.88-6.01.86-.62.77,1.28.88,1.68.24.84.52,1.7.78,2.54.08.25.04.58.38.51-.13-.91.99-2.13.74-2.9-.14-.42-2.74-1.57-2.27-2.97,2-.16,1.76,3.37,3.83.89,0-.55-4.57-1.17-5.45-1.7-2.11-1.25-3.14-4.05-3.62-6.34-.26-1.23-.25-3.47-.69-4.42-.32-.69-1.06-.73-1.44-1.37s-.8-2.78-.42-3.42,2.17-.11,1.68-2.13c-.07-.29-1.29-.37-1.51-1.11s.31-1.32.22-1.98c-.05-.39-.81-1.41-1.04-2.05-.54-1.5-.81-2.56.15-3.95,1.49-2.15,2.38-1.15,4.21-1.66,1.57-.44,3.16-2.65,4.97-2.65.7,0,2.81.95,3.43,1.38s1.15,1.47,1.34,1.6c.3.21,1.48-.07,2.07.1.52.15.96,1.08,1.47,1.34.94.49,3,.67,3.07,2.05.03.58-.3,1.22-.17,1.67.03.12,1.1,2.01,1.2,2.14.62.79,3.16.37.99,1.82.35.82,1,1.48.67,2.43-.14.39-.63.68-.64,1.12-.03,1.46,1.2,3.42-.28,4.6-.4.32-.96.33-1.4.64-1.54,1.09-.47,2.94-1.01,3.84-.33.55-1.35.37-1.62.55-.1.07-.24.68-.44.96-1.13,1.53-2.81,3.79-4.19,5.01-.22.2-.46.38-.78.38.33.89.62.16,1.2.05,2.43-.47,5.65-1.06,8.12-1.33,2.12-.22,2.44.46,4.45-.91,4.03-2.77,3.13-5.63,5.27-9.03,1.28-2.03,6.37-7.76,8.3-9.06,1.17-.79,9.53-5.53,10.31-5.53.42,0,.86.27,1.29.29,2.13.08,4.76-.47,7.14-.27,1.06.09,3.07.41,3.7,1.28v1.28c-.67.65-.83,2.11-1.92,2.29-.58.1-1.87.07-2.44-.11-.69-.22-1.09-1.06-1.68-1.38-1.08-.59-3.66.07-4.93.24l.24,2.54c-.7.05-1.48-.09-2.16.01-1.58.24-7.08,5.09-8.3,6.5-3.64,4.19-5.59,7.48-8.04,12.39-1.45,2.92-4.25,3.47-6.95,5.05-.63.37-3.22,1.8-3.36,2.26-.44,1.49.52,3.71.21,5.32,1.29,9.86,4.74,19.28,5.87,29.11.56,4.82,1.74,9.04,2.53,13.82.19,1.16-.31,2.32.92,3.16,2.24-2.47,3.81-6.34,6.13-8.68.49-.49,1.47-1.05,2.04-1.53.7-.59,1.66-2,2.57-2.04.57-.03,1.01.46,1.64.13.63-.32,2.63-3.07,3.19-2.94.84.77.5,1.95.7,2.88.14.64.82,1.56.93,2.16.11.63-.33,1.14-.19,1.68.04.16,2.05,1.93,2.4,2.22.69.58,1.39.64,2.03,1.55.39.56,1.43,4.04,1.41,4.68-.01.34-1,3.83-1.13,3.99-1.08,1.31-2.24-1.75-2.93-2.44s-1.58-.87-2.17-1.66c-.74-1.01-.62-2.41-1.55-3.3-2.2,2.61-4.71,5-7.15,7.39-1.64,1.61-2.94,2.2-4.52,3.59-.81.71-1.37,1.77-2.25,2.4-.39.28-2.53,1.38-2.88,1.36s-1.1-.39-1.46-.57c-3.08-1.52-3.25-4.26-4.39-7.1-.58-1.44-1.32-2.83-1.85-4.28-.69-1.92-.77-4.09-2.43-5.61.16.65-.21,1.52-.12,2.07s.67,1.49.82,2.21c.76,3.63.73,7.48,2.05,10.97l-5.52,8.17c-1.02,2.33-2.12,4.65-3.32,6.9-1.29,2.41-2.77,5.19-4.56,7.2-.92-.34-1.63.07-2.5.06-1.05-.02-2.43-.48-3.44-.79.17,1.11-.97,2.84.89,2.56.66-.1,1.21-1.27,1.92-.92s.44,1.48.63,2.2c.12.43,1.07,2.21,1.42,2.41l6.63,1.16c.09-.08-.15-.27-.25-.39-.46-.49-4.17-3.36-4.76-3.66-.53-.27-1.56-.34-1.82-.61-.87-.86-.41-2.1.94-1.59,1.88.71,5.64,3.8,7.29,5.23.65.56,3.1,2.6,2,3.34-.39.26-2.87-.58-3.6-.72-1.93-.39-3.86-.58-5.79-.85-2.97-.42-2.6-3.29-3.84-4.09-.55-.36-.86.09-1.48-.01-.55-.09-1.72-.66-1.87-1.23-.09-.32.32-1.75.47-2.11s.6-.6.65-.86-.2-.67-.21-1c-.04-1.45.78-1.82,1.39-2.96,2.81-5.28,5.58-9.83,8.98-14.77.55-.8,2.65-2.99,2.65-3.72,0-.43-2.62-4.67-3.09-5.32-1.58-2.2-3.68-4.23-5.27-6.47-.86-1.21-3.96-5.84-4.27-6.97-.34-1.29-.26-5.06-.09-6.49.22-1.84.97-3.77.87-5.65-.05-.97-.96-2.33-.9-3.44-.43.03-.35.65-.65,1.01-.56.66-2.73,1.5-3.59,1.53-1.16.04-3.44-1.05-3.87-2.22-1.24-3.41-.91-7.16-1.61-10.67l.56-5.82.73-.42c-.03,1.14.05,2.3,0,3.45-.11,2.64,0,5.25.25,7.92.16,1.66,1.08,3.61,1.34,5.3,1.28,1.53,3.51,1.65,5.12.45.26-.19,1.81-2.93,2.02-3.41.66-1.49,1.05-4.31,2.07-5.46,1.13-1.29,4.75-2.79,6.28-4.05s-.14-1.47.02-3.17c-1.2,1.04-2.89,1.1-4.26,1.74-.56.26-2.87,1.71-3.25,2.11-1.12,1.17-2.74,5.68-4.98,4.18-1.44-.96-1.01-5.04-.75-6.6.23-1.4.45-3.39,2.26-2.07-1.06.96.66,2.62.32,4.03l.7,2.23c.31-.84.92-1.78,1.53-2.43.84-.9,4.4-3.15,5.55-3.39,1.14-.24,2.76.33,2.58-1.39-.03-.23-.42-1.65-.49-1.7-.97-.67-4.32,1.32-5.47,1.49-5.33.81-11.79-1.11-17.09-1.52-3.68-.29-7.47.64-10.85-1.53.08.69.44,1.17.51,1.91.28,2.84-.43,5.17.32,8.11.7,2.77,3.32,5.95,3.51,8.49.28,3.75-2.3,5.66-2.55,9.19-.34,4.77,1.16,8.55,4.59,11.75,2.73,2.55,6.02,5.32,8.13,8.47.37.56,1.37,2.74,1.74,2.85.71.22,2.49-.15,1.2,1.28-2.7,1.38-4.96,3.32-7.95,4.05-1.77.43-3.99.92-5.55-.18-1.45-1.02-4.17-4.37-5.62-5.87-.3-.31-.44-.74-.76-1.02-.61-.12-.4.5-.35.86.29,2.15,1.31,5.86,1.88,8.08,1.29,4.99,3.57,9.73,5.1,14.56.08.24,1.44,2.92,1.54,3.05.08.09,1.98,1.19,2.1,1.22.88.24,2.06-.07,3,.07.88.13,3.55,1.05,2.67,2.26-3.21.06-6.92-.04-9.99-1.07-1.4-.47-3.27-3.03-4.42-3-.75.02-2.35,4.27-3.32,2.3-.2-.4.95-3.28,1.23-3.88.25-.52,1.1-1.45,1.11-1.85,0-.26-.94-4.14-1.11-4.68-1.75-5.76-3.78-11.56-5.31-17.41-.25-.94-.51-1.81-.39-2.81-.35-.07-.27.27-.38.51-.75,1.76-.93,3.69-1.54,5.36-.83,2.29-2.19,1.91-3.93,2.71-.53.24-.97.75-1.55,1-3.81,1.61-7.94-1.76-10.84-3.96-1.25-.95-2.09-2.42-4.06-2.28-4.56.32-3.36,3.78-4.05,6.95-1,4.59-10.64,3.68-9.59-1.16.41-1.89,1.96-2.68,3.54-3.41l1.97-5.88,2.6-4.42c-.71.04-1.07-1.04-1.66-1.04-.53,0-.94.86-1.42,1.14-.68.4-1.89.53-2.66.4-.38-.07-.68-.53-.9-.4-1.59.97.19,3.36,0,4.61s-2.9.35-3.07-.89c.07-.82-.1-1.75,0-2.55h0ZM351.95,502.49c.08-.49-.37-.76-.46-1.2-.1-.49.07-1.3-.16-1.63-.2-.29-1.28-.32-1.75-.55-2.45-1.18-1.65-4.96-4.38-6.09-1.63-.67-3.58,1.33-4.99,2.19.82,1.14,1.36-.6,2.16-.38.98.27.12,2.41-2.03,2.04-1.09-.19-1.27-1.63-2.77-.52-.58.43-.45,2.32-.13,2.77.41.58,1.86-.24,1.99.44.18.92-1.5,1.01-2.04.64v1.02c2.55-.47,1.71.87,2.04,1.28.75.91.52-2.02,1.4-2.05.28,0,.45,1.46.39,1.79,1.4-.07,6.1-1.08,7.04-.28.23.19.28.74.53.8.72.17,2.23-.57,3.15-.27h0ZM395.08,494.07c-1.89-.59-3.74-1.12-5.75-1.04-.78.03-2.47.21-3.19.38-.39.09-1.02.26-1.01.78,1.66.18,3.52-.45,5.18-.07,1.47.33,4,4.01,4.77-.04ZM306.76,494.58c-1.48.1-3.52-.85-4.92-.72-2.84.27-6.38,4.01-7.15,6.64-.65,2.24-.32,5.22-1.35,7.08-1.57,2.84-6.18,3.86-7.31,5.96-1.43,2.66,2.35,2.79,2.36,5.16,0,1.66-1.95,1.98-2.83,3.06-.23.28-.38.2,0,.51.47.38,4.5,1.48,4.85,1.15-.73-2.02-.95-4.1-.76-6.25.36-4.15,4-6.11,6.49-8.83,1.34-1.47.39-1.52-.16-2.6s-.99-2.03-.51-3.18c.14-.35,1.67-2.57,1.96-2.89.7-.77,5.54-4.14,6.52-4.46l2.81-.63h0ZM383.86,494.06c-.16-.17-1.94.7-2.3.89-6.07,3.09-10.72,6.76-14.66,12.4-1.09,1.56-1.4,4.02-2.4,5.77-.96,1.71-3.63,4.32-5.6,4.61-2.3.34-5.23.36-7.6.57-.22.02-1.06.19-1.12.28-.55.8,2.04,4.3,1.51,4.83-1.62.05-3.09-.78-4.59-1.27-.48,1.09.52,1.58.66,2.54.09.68-.41,1.42.09,2.15.37.53,2.78.16,3.98,1.18,1.58,1.34,3.08,7.51.65,8.32-1.43.48-1.83-1.08-2.64-.88-.36.09-2.55,1.75-2.23,2.01.28-.04.84.1.99-.03.17-.15.05-1.72,1.45-.74.64,2.78,1.3,5.57,1.84,8.38.19,1.01.38,4.25.96,4.92.38.43-.04,2.21-.34,2.71-.6,1.01-.19,2.59-1.71,1.64-2.52-1.59-1.92-6.55-2.16-9.08-.16-1.66-.29-3.44-.54-5.08-.12-.81-.33-1.68-.61-2.45-1.76,1.58-4.15,2.46-5.98,3.98-1.93,1.6-1.7,4.34-2.98,6.36.42.84.84,5.39,1.23,5.7.22.18,1.41.3,1.91.51,2.75,1.18,4.28,3.25,7.84,2.83,1.88-.21,7.41-2.86,8.96-4.06.28-.22,1.68-1.58,1.79-1.79.28-.54-.57-3.51-.77-4.34-1.52-6.24-2.85-12.62-3.72-19.02l.06-4.44c2.26-.97,4.3-2.43,6.43-3.66,1.86-1.08,2.59-.73,3.79-2.85.72-1.27,1.14-2.67,1.89-3.98,2.48-4.31,7.66-10.42,11.62-13.4.62-.46,2.81-2.03,3.36-2.25.5-.2.93-.25,1.46-.2-.07-1.06-.73-1.96-.51-3.06h0ZM307.82,494.18v.04c.06.21.24.38.45.41l1.76.26h0c.03-.2-.11-.39-.31-.42l-1.9-.28h0ZM310.34,498.4c-.07.06.3.96.26,1.38-.05.57-.79,1.79-1.29,2.05-.22.12-2,.69-2.15.65-.95-.26.41-1.68.53-2.29.27-1.32-.62-2.22-1.94-2.05.27,2.35-1.14,3.85-2.68,5.37-.57.56-1.57.94-1.82,1.77-.19.64.28,1.16.15,1.65-.17.62-.93-.03-1.52.26-.91.44-1.01,1.66-.26,2.3.4.33,1.02.27,1.4.65.56.56,1.21,2.38,1.71,3.15.87,1.32,3.65,4.62,5.21,4.77.63.06,1.92-.16,2.65-.13,2.21-1.6,4.41-3.42,5.5-5.99.76-1.8,1.82-6.69,1.34-8.49-.07-.26-.42-.48-.45-.84-.05-.49.4-1.09.26-1.65-.77-.13-1.48,1.56-2.05,1.43-1.72-.41.76-1.88-.76-2.7.2.68-.49,2.36-1.03,2.68-.45.27-2.76.71-2.55-.25.1-.45,1.87-1.23,1.5-2.5-.15-.53-1.57-1.61-2.01-1.2h0ZM299.87,499.17c-1.17.36-3.61,3.41-3.56,4.44.07,1.65,1.46,3.23,2.3,1.07.35-.9.13-1.66.3-2.51.1-.52,1.1-2.84.96-3h0ZM338.16,502.49c-.92-.03-1.89-.13-2.55.64.77.26,1.31-.16,1.03.98-.08.33-1.29.33-.51,1.05.44.41,1.72.52,2,.1.22-.31-.09-2.2.03-2.78ZM347.35,503c-.5.09-2.92-.13-3.06,0-.75.65.68.32.76.36.99.54.26,1.74-.76,1.68.59,2.93,3.87.03,3.06-2.05h0ZM341.23,503.51c-.1.15,0,3.12,0,3.7,0,.22.45.59-.12,1.15s-1.94-.2-1.92,1.01c.44.03.86.02,1.29-.11s2.57-1.95,1.58.05c-.75,1.51-2.56,1.75-3.89.83l.26,2.04.89-1.02.25,1.27c.27-.17.3-.63.55-.78.89-.54,2-.43,2.72-.56.24-.04.44-.41.8-.43.6-.04.93.4,1.15.89-1.27.75-1.93,1.5-3.48,1.64-.32.03-.79-.25-.84-.22-.11.07-.31,1.4-1.17.49-.29-.31-.19-1.01-.64-1.02.55,2.74,2.53,4.27,5.25,4.57,1.55.17,2.23.13,3.3-.99,2.42-2.52,3.71-4.82,5-8.02.16-.4.63-.83.69-1.11.09-.39-.31-.76-.09-1.1.35-.53.85-.04,1.31-.01,1.17.08,1.86-1.14,1.26-2.05-.54-.81-5.39.4-6.52.28.18,2.66-4.37,5.52-5.73,2.52-.43-.95-.28-2.66-.52-3.05-.27-.42-1.37-.05-1.41.01h0ZM340.21,503.51s-.74-.03-.76,0c-.22.26.55,2.02-.93,3.04-.51.35-1.02.03-.87.92.2,1.14.62.26,1.1.07.39-.15,1.17-.18,1.35-.43.14-.19.22-3.45.11-3.59h0ZM296.04,510.15c-.44-.11-.51.17-.77.38-1.58,1.32-4.08,3.96-4.48,5.99-.24,1.24.09,5.18.63,6.28.69,1.4,1.83-.09,1.79-1.27-.09-2.32-.36-4.13.85-6.35.18-.33,2.06-2.63,1.97-1.34-.01.18-1.53,2.33-1.73,3.12-.31,1.25-.21,2.87-.56,4.16,1.1-.89,2.37-2.19,3.12-3.39,1.65-2.61-.4-3.14-.76-5.49-.11-.7-.07-1.4-.07-2.1h0ZM304.8,522.08c-1.3-1.4,2.17-4.46-1.1-5.04-.38,1.37-.66,3.22-1.26,4.48-.24.5-1.09,1.2-1.02,1.49.06.27,1.84,1.91,2.16,1.89.36-.23,1.9-2.22,1.91-2.37,0-.17-.56-.31-.68-.45h0ZM348.85,519.37c-.62-.43-2.36.29-2.27,1.24l3.32,1.28c-.39-.34-.94-2.44-1.05-2.52h0ZM346.46,524.7v.26c.17-.08.17-.17,0-.26ZM330.63,525.98v.26c.17-.08.17-.17,0-.26ZM324.76,527.77v.26c.17-.08.17-.17,0-.26ZM327.57,528.02v.26c.17-.08.17-.17,0-.26ZM332.16,528.02v.26c.17-.08.17-.17,0-.26ZM332.93,528.28v.26c.17-.08.17-.17,0-.26ZM339.19,531.34c.23.22,4.97-1.92,6.08-1.99.99-.06,1.88.46,2.73.46.71,0,1.35-.57,1.98-.47,1.11.17,1.86,2.37,1.71,3.39-.14.91-1.27,1.89.39,2.44,1.04-.24.22-3.13.01-3.83-.22-.75-.64-2.09-1.31-2.52-1.14-.73-5.39-.64-6.88-.55-2.16.14-4.58.44-4.71,3.07h0ZM315.82,529.81s-.12.12-.12.12c0,0,.25.38.38.38.04,0,.12-.12.12-.12,0,0-.25-.38-.38-.38ZM321.44,530.07v.26c.17-.08.17-.17,0-.26ZM324.12,530.32c-.36-.18-.68.16-.51.25.36.18.68-.16.51-.25ZM346.84,530.83c-.15.15.83,3.99,1.16,4.08,1,.28,2.96-1.86,2.55-3.32-.67-2.39-1.5-.59-2.42-.35-.33.08-.77-.6-1.29-.4h0ZM332.29,531.34c-.36-.18-.68.16-.51.25.36.18.68-.16.51-.25ZM334.08,536.19v4.21c0,.08.53.87.64.89,1.37.32,0-2.91-.08-3.25-.15-.63.22-1.58-.56-1.86h0ZM349.52,537.98v.26c.17-.08.17-.17,0-.26ZM306.89,540.28v.26c.17-.08.17-.17,0-.26ZM336.51,540.28v.26c.17-.08.17-.17,0-.26ZM326.9,581.36c.16-.22,0-.72-.11-.99-1.71-4.2-6.15-7.78-9.43-10.74-4.02-3.64-5.24-8.3-4.73-13.66.25-2.58,2.31-4.57,2.42-6.89.15-3.09-2.18-5.42-3.22-8.14l-.35-.41c-1.49,1.37-2.34.78-3.9.57-2.44-.33-4.76-.86-7.22-.2-.41.11-1.49.79-1.65,1.16-.66,2.82-.43,6.36-2.3,8.68-2.17,2.71-4.62,3.84-6.13,7.4-1.34,3.16-.97,6.78-2.23,9.77-1.27,3.02-3.8,4.41-6.99,4.76-1.34.15-3.38-.19-4.58.53-.79.47-2.07,3.01-2.46,3.92-.54,1.28-1.26,4.66-1.88,5.52-.47.65-1.96.97-2.35,1.35-.08.08-1.03,1.99-1.02,2.11.05.88,2.59,1.85,3.42,1.9,1.09.07,3.35-.99,3.62-2.21.54-2.5-.45-5.39,2.42-7.02,4.17-2.37,6.34.71,9.29,2.82,2.41,1.71,5.77,4.23,8.63,2.09,3.82-2.85.22-9.65,5.61-10.22,4.92-.51,8.79,3.72,11.88,7.02,1.85,1.97,2.26,4.16,5.48,3.96,2.94-.18,4.6-1.29,6.94-2.77.23-.14.79-.27.82-.32h0ZM309.32,540.79h-.76v.25h.76v-.25ZM350.67,545.13c0-.71-.19-1.4-.34-2.08-.08-.35-.03-1.24-.42-1.23-.03.9.15,1.79.26,2.67.06.48-.26.76.5.64h0ZM313.53,542.32v.26c.17-.08.17-.17,0-.26ZM314.81,544.88v.26c.17-.08.17-.17,0-.26ZM359.73,545.39v.26c.17-.08.17-.17,0-.26ZM315.95,547.43c.11-.35-.57-1.76-.76-1.53-.09.68.09,1.27.76,1.53ZM329.99,548.02s-.01-.06-.03-.05c-.15.04-.22.2-.22.35v.9s.15.13.25,0M315.95,549.22c.07-.48,0-.89-.51-1.02-.07.48,0,.89.51,1.02ZM338.03,548.2v.26c.17-.08.17-.17,0-.26ZM296.8,549.47c.18-.36-.16-.68-.25-.51-.18.36.16.68.25.51ZM315.95,549.47c-.67-.11-.45.1-.58.55-.15.55-.27,1.17-.32,1.74.73-.57.53-1.54.9-2.29h0ZM350.16,550.49c.18-.18,0-1.02,0-1.02,0,0-.18.16-.2.21-.22.63-.05.8-.05.8,0,0,.21.04.25,0h0ZM331.02,550.75c-.18-.42-.56-.85-1.02-.76.18.42.56.85,1.02.76ZM314.93,552.28c-.33-.39-.66.43-.76.65-.31.74-.78,1.63-.77,2.42l.61-.79c-.08-.51,1.06-2.1.92-2.27h0ZM367.71,576.72c-1.28.58-1.77.75-2.6-.45-.81-1.17-.49-2.31-.68-3.66-.53-3.64-1.91-7.95-2.24-11.29-.15-1.54.17-3.28-.09-4.76-.08-.49-1.35-3.45-1.6-3.51-.76.4-1.34,1.01-2.09,1.48-2.5,1.58-8.25,4.4-11.13,3.82-.61-.12-2.44-.94-3.08-1.26-1.63-.8-2.87-2.37-4.74-1.73.03,1.09-.41,2.11-.53,3.18-.21,1.9-.37,5.21.12,7.03.23.89,2.43,4.14,3.09,5.08,2.79,3.95,5.77,6.77,8.32,11.08.48.81,1.3,1.22,1.25,2.34s-2.76,4.25-3.55,5.41c-2.76,4.07-5.15,7.65-7.35,12.05-.31.61-2.35,3.73-1.88,4.11,1.11.21,4.17,1.04,4.97.26,1.05-1.73,2.25-3.42,3.24-5.19,1.41-2.52,2.46-5.46,3.83-7.92.73-1.3,1.84-2.34,2.62-3.5.36-.54,2.23-3.48,2.34-3.81.23-.75-.46-2.4-.6-3.26-.41-2.51-.64-5.35-1.14-7.79-.18-.86-.83-1.62-.95-2.37-.51-3.22,1.68-5.59,3.77-2.24.8,1.28,1.04,3.76,1.56,5.33.55,1.66,3.09,8.63,3.96,9.58,3.03,3.32,5.29-.9,7.41-2.57,2.13-1.67,2.83-2.05,4.85-4.09,1.78-1.8,3.59-3.56,5.37-5.36.33-.63.02-1.25-.19-1.85-.39-1.13-1.46-3.55-2.01-4.62-.17-.33-.3-.69-.61-.93-4.29,2.82-6.83,7.27-9.64,11.42h0ZM293.23,553.3c-.36-.18-.68.16-.51.25.36.18.68-.16.51-.25ZM313.4,556.37c.18-.36-.16-.68-.25-.51-.18.36.16.68.25.51ZM313.15,557.9c.56-.22.61-.42.13-.77l-.13.77ZM313.78,561.98v.26c.17-.08.17-.17,0-.26ZM313.78,562.75v.26c.17-.08.17-.17,0-.26ZM387.43,577.3c.58-1.24-.32-4.7-1.28-5.48-.31-.25-.79-.34-1.14-.65-.45-.39-3.01-2.81-3.09-3.06-.25-.76.27-1.52.15-2.42-.09-.65-.68-1.74-.89-2.44-.35.67-2.16,1.52-2.13,2.12.09,1.48,2.12,3.97,2.3,5.63.24.72.84.22,1.26.3M314.17,564.28c-.08.38.11.53.38.76l.12-.12c-.39-.25-.08-.73-.51-.64ZM279.96,571.18c.12-.49-.18-.49-.43-.72-1.24-1.13-2.24-2.36-3.4-3.5-2.29-2.25-3.99,1.16-5.63,2.54-.8,1.66.44,1.5,1.53.77.51-.34,1.38-1.66,1.88-1.62,1.08.15,2.5,2.28,3.16,2.47.8.23,2.02-.06,2.89.05ZM270.26,567.86c-.07-.08-1.67,1.03-1.4,1.53.43-.53,1.45-.69,1.4-1.53ZM302.68,574.75c-3.64.19-2.61,3.31-3.13,5.93-.16.82-.5,1.46-.7,2.24,2.54-1.8,1.75-5.79,3.83-8.17h0ZM316.46,604.37c-1.27-1.06-1.16-2.57-1.66-3.83-1.59-4.07-3.66-7.89-4.85-12.26-.93-3.4-1.34-8.3-2.89-11.41-.6-1.21-2.61-2.64-3.62-1.36.23.03.69-.15.78.16.17.64.19,1.37.43,2.08,1.92,5.87,3.64,11.75,5.7,17.53.68,1.93.71,4.38,1.72,6.19.33.59,2.69,2.56,3.36,2.76.34.1.67.16,1.03.12h0ZM316.97,605.91c-.58.12-1.27,0-1.27,0v.25s.98.19,1.22,0c.05-.04.12-.26.06-.25Z"/>
        <path class="cls-1" d="M314.11,510.46c.54.52.38,1.42-.2,1.85-1.99,1.47-4.14-.99-1.01-.89,0-.45-.67-.31-.9-.76-.35-.69-.76-4.81.26-4.85.66-.03.12,3.47.89,4.22.24.23.75.23.97.43h0Z"/>
        <path class="cls-1" d="M307.91,512.45c.53-.11.87,1.15,1.4,1.4.61.29,2.39-.21,2.04,1.02-.21.74-2.46.26-2.95-.11-.42-.32-1.34-2.13-.49-2.31h0Z"/>
        <path class="cls-1" d="M308.7,507.1c1.73-.51,1.05,2.1.48,2.27-1.18.36-1.16-2.07-.48-2.27Z"/>
        <path class="cls-1" d="M315.76,507.4c.68-.83,1.46-.12,1.05,1.17-.65,2.01-1.7-.38-1.05-1.17Z"/>
        <path class="cls-1" d="M315.46,505.28c-.72-1.06,1.61-1.09,1.77-.36.19.87-1.59.64-1.77.36Z"/>
        <path class="cls-1" d="M309.32,504.79c.26.87-2.08,1.23-2.04.64.03-.43,1.6-.79,2.04-.64Z"/>
      </g>
    </g>
    <g>
      <path class="cls-1" d="M3.8,210.2v-10.21l1.4.54-3.82,2.27-1.1-2.03,4.7-2.41h1.4v11.84h-2.59Z"/>
      <path class="cls-1" d="M16.18,198.36l.07,11.84h-2.3l.02-9.94.86-.11-4.09,6.43-.58-1.04h7.34v2.02h-7.81l-.85-1.62,5.13-7.76,2.2.18Z"/>
      <path class="cls-1" d="M20.47,205.56c-.48,0-.86-.13-1.14-.4-.28-.27-.42-.63-.42-1.09s.14-.84.42-1.12c.28-.28.66-.41,1.14-.41s.83.14,1.11.41c.28.28.42.65.42,1.12s-.14.82-.41,1.09c-.28.27-.65.4-1.12.4ZM20.47,210.35c-.48,0-.86-.14-1.14-.41-.28-.27-.42-.63-.42-1.09s.14-.84.42-1.12c.28-.28.66-.41,1.14-.41s.83.14,1.11.41c.28.28.42.65.42,1.12s-.14.82-.41,1.09c-.28.27-.65.41-1.12.41Z"/>
      <path class="cls-1" d="M29.14,206.93c0-.64-.24-1.14-.71-1.5-.47-.37-1.23-.55-2.26-.55v-1.49c.58,0,1.06-.08,1.45-.23.39-.16.68-.37.88-.66.2-.28.3-.6.3-.96,0-.44-.14-.79-.41-1.05-.27-.26-.63-.39-1.07-.39-.37,0-.72.11-1.04.34s-.56.56-.73,1.01l-1.87-.56c.2-.56.5-1.04.9-1.44s.87-.7,1.41-.92c.55-.22,1.14-.32,1.77-.32.68,0,1.3.12,1.84.36.54.24.96.58,1.27,1.03.31.44.46.97.46,1.58s-.18,1.18-.53,1.66c-.35.48-.85.85-1.5,1.12-.65.26-1.42.4-2.32.4v-.88c1,0,1.85.14,2.55.41.7.28,1.24.66,1.61,1.15.37.49.56,1.07.56,1.73,0,.53-.12,1.01-.36,1.46-.24.44-.57.83-.99,1.14-.42.32-.89.56-1.41.73s-1.06.25-1.61.25-1.11-.09-1.63-.28c-.52-.19-1-.48-1.42-.87s-.76-.91-1-1.55l2.11-.94c.2.56.51.98.92,1.26.41.28.86.41,1.37.41s.85-.12,1.1-.37c.25-.25.38-.6.38-1.07Z"/>
      <path class="cls-1" d="M36.76,210.37c-.82,0-1.52-.23-2.11-.69-.59-.46-1.04-1.13-1.36-2.01-.32-.88-.48-1.93-.48-3.17,0-1.31.18-2.43.53-3.38.35-.94.84-1.67,1.47-2.17s1.35-.76,2.18-.76,1.54.23,2.12.7c.59.47,1.04,1.13,1.36,2,.32.86.48,1.91.48,3.15,0,1.32-.18,2.45-.54,3.39-.36.94-.85,1.67-1.48,2.17-.63.5-1.35.76-2.17.76ZM36.95,208.35c.31,0,.57-.15.77-.44s.36-.73.47-1.31c.11-.58.16-1.28.16-2.12,0-.94-.07-1.72-.2-2.35-.13-.63-.31-1.11-.55-1.43-.23-.32-.51-.49-.82-.49-.29,0-.54.15-.75.45-.21.3-.37.74-.49,1.31-.11.58-.17,1.29-.17,2.14,0,.92.07,1.7.2,2.32.13.62.32,1.1.56,1.42.24.32.51.49.81.49Z"/>
      <path class="cls-1" d="M4.45,231.8l-4.45-11.84h2.18l4.09,11.41h-1.17l3.94-11.41h1.91l-4.63,11.84h-1.87Z"/>
      <path class="cls-1" d="M13.99,222.41c-.34,0-.61-.1-.82-.3-.21-.2-.31-.46-.31-.8s.1-.61.31-.81c.21-.2.48-.31.82-.31s.61.1.83.31c.22.2.32.47.32.81s-.11.6-.32.8c-.22.2-.49.3-.83.3ZM13.1,231.8v-7.38l1.78-.32v7.7h-1.78Z"/>
      <path class="cls-1" d="M20.81,232c-.71,0-1.34-.15-1.9-.44-.56-.29-.99-.72-1.31-1.27-.31-.55-.47-1.22-.47-2,0-.84.18-1.58.53-2.21.35-.64.83-1.13,1.43-1.48.6-.35,1.28-.53,2.03-.53.94,0,1.64.28,2.12.84.47.56.71,1.32.71,2.28v.4c0,.15-.01.29-.04.42h-1.51v-.86c0-.59-.11-1.04-.32-1.36-.22-.32-.59-.48-1.12-.48-.43,0-.81.11-1.14.33-.33.22-.58.54-.76.95s-.26.89-.26,1.43c0,.82.22,1.46.66,1.92s1.01.69,1.72.69c.38,0,.76-.07,1.12-.21.36-.14.71-.35,1.04-.64l.58.92c-.34.34-.68.6-1.03.79-.35.19-.71.32-1.05.4-.35.07-.69.11-1.03.11ZM18.04,228.01l.2-1.08h5.47v1.08h-5.67Z"/>
      <path class="cls-1" d="M26.14,231.8v-12.64l1.75-.31v12.94h-1.75Z"/>
      <path class="cls-1" d="M32.62,232.02c-.36,0-.71-.03-1.05-.09-.34-.06-.66-.14-.94-.24-.29-.1-.53-.21-.72-.33l.47-1.42c.31.28.69.5,1.12.66.44.16.85.24,1.23.24.42,0,.73-.1.93-.31.2-.2.3-.43.3-.67,0-.28-.09-.49-.27-.65-.18-.16-.41-.29-.7-.41-.29-.11-.59-.22-.9-.32s-.61-.24-.9-.41c-.29-.17-.52-.38-.69-.65-.17-.26-.26-.61-.26-1.04,0-.52.13-.94.38-1.29.25-.34.59-.6,1.03-.78.43-.18.91-.27,1.42-.27.38,0,.77.05,1.17.14s.74.23,1.04.4l-.49,1.33c-.24-.25-.55-.43-.92-.55-.37-.11-.67-.17-.9-.17-.41,0-.7.08-.88.24-.18.16-.27.35-.27.57,0,.25.09.45.28.6s.42.28.7.39c.28.11.58.22.91.33.32.11.63.26.92.42s.52.39.71.67.28.63.28,1.06c0,.34-.06.66-.19.96-.13.31-.31.58-.57.81-.25.23-.56.42-.94.56-.37.14-.8.21-1.3.21Z"/>
      <path class="cls-1" d="M40.66,232c-.71,0-1.34-.15-1.9-.44-.56-.29-.99-.72-1.31-1.27-.31-.55-.47-1.22-.47-2,0-.84.18-1.58.53-2.21.35-.64.83-1.13,1.43-1.48.6-.35,1.28-.53,2.03-.53.94,0,1.64.28,2.12.84.47.56.71,1.32.71,2.28v.4c0,.15-.01.29-.04.42h-1.51v-.86c0-.59-.11-1.04-.32-1.36-.22-.32-.59-.48-1.12-.48-.43,0-.81.11-1.14.33-.33.22-.58.54-.76.95s-.26.89-.26,1.43c0,.82.22,1.46.66,1.92s1.01.69,1.72.69c.38,0,.76-.07,1.12-.21.36-.14.71-.35,1.04-.64l.58.92c-.34.34-.68.6-1.03.79-.35.19-.71.32-1.05.4-.35.07-.69.11-1.03.11ZM37.89,228.01l.2-1.08h5.47v1.08h-5.67Z"/>
      <path class="cls-1" d="M51.39,222.41c-.34,0-.61-.1-.82-.3-.21-.2-.31-.46-.31-.8s.1-.61.31-.81c.21-.2.48-.31.82-.31s.61.1.83.31c.22.2.32.47.32.81s-.11.6-.32.8c-.22.2-.49.3-.83.3ZM50.51,231.8v-7.38l1.78-.32v7.7h-1.78Z"/>
      <path class="cls-1" d="M67.79,231.8l-3.91-10.82h.76l-3.87,10.82h-1.94l4.81-11.84h1.66l4.59,11.84h-2.09ZM60.95,228.19l.56-1.51h5.18l.81,1.51h-6.55ZM64.39,219.38c-.62,0-1.14-.17-1.54-.51-.4-.34-.6-.77-.6-1.29s.21-.92.62-1.25c.41-.33.94-.49,1.57-.49s1.13.17,1.53.51c.4.34.59.77.59,1.27s-.2.92-.61,1.26c-.41.34-.93.5-1.57.5ZM64.42,218.52c.24,0,.43-.08.58-.25.14-.17.22-.38.22-.65s-.07-.5-.22-.67c-.14-.17-.34-.25-.59-.25s-.44.08-.58.24-.22.38-.22.64.08.5.23.68c.16.17.35.26.59.26Z"/>
      <path class="cls-1" d="M71.89,231.8v-12.64l1.75-.31v12.94h-1.75Z"/>
      <path class="cls-1" d="M79.45,232c-.71,0-1.34-.15-1.9-.44-.56-.29-.99-.72-1.31-1.27-.31-.55-.47-1.22-.47-2,0-.84.18-1.58.53-2.21.35-.64.83-1.13,1.43-1.48.6-.35,1.28-.53,2.03-.53.94,0,1.64.28,2.12.84.47.56.71,1.32.71,2.28v.4c0,.15-.01.29-.04.42h-1.51v-.86c0-.59-.11-1.04-.32-1.36-.22-.32-.59-.48-1.12-.48-.43,0-.81.11-1.14.33-.33.22-.58.54-.76.95s-.26.89-.26,1.43c0,.82.22,1.46.66,1.92s1.01.69,1.72.69c.38,0,.76-.07,1.12-.21.36-.14.71-.35,1.04-.64l.58.92c-.34.34-.68.6-1.03.79-.35.19-.71.32-1.05.4-.35.07-.69.11-1.03.11ZM76.68,228.01l.2-1.08h5.47v1.08h-5.67Z"/>
      <path class="cls-1" d="M86.65,232.02c-.36,0-.71-.03-1.05-.09-.34-.06-.66-.14-.94-.24-.29-.1-.53-.21-.72-.33l.47-1.42c.31.28.69.5,1.12.66.44.16.85.24,1.23.24.42,0,.73-.1.93-.31.2-.2.3-.43.3-.67,0-.28-.09-.49-.27-.65-.18-.16-.41-.29-.7-.41-.29-.11-.59-.22-.9-.32s-.61-.24-.9-.41c-.29-.17-.52-.38-.69-.65-.17-.26-.26-.61-.26-1.04,0-.52.13-.94.38-1.29.25-.34.59-.6,1.03-.78.43-.18.91-.27,1.42-.27.38,0,.77.05,1.17.14s.74.23,1.04.4l-.49,1.33c-.24-.25-.55-.43-.92-.55-.37-.11-.67-.17-.9-.17-.41,0-.7.08-.88.24-.18.16-.27.35-.27.57,0,.25.09.45.28.6s.42.28.7.39c.28.11.58.22.91.33.32.11.63.26.92.42s.52.39.71.67.28.63.28,1.06c0,.34-.06.66-.19.96-.13.31-.31.58-.57.81-.25.23-.56.42-.94.56-.37.14-.8.21-1.3.21Z"/>
      <path class="cls-1" d="M94.19,231.91c-.77,0-1.4-.25-1.91-.74s-.76-1.17-.76-2.03v-4.72l1.78-.32v4.41c0,.66.14,1.18.41,1.55.28.37.68.56,1.21.56.28,0,.56-.05.85-.16s.57-.27.83-.48c.26-.21.47-.48.64-.8l.58.43c-.3.5-.65.93-1.04,1.27-.39.34-.81.6-1.25.77s-.89.26-1.35.26ZM97.11,231.97l-.31-1.66v-5.89l1.76-.32v7.54l-1.46.32Z"/>
      <path class="cls-1" d="M101.03,231.8v-7.38l1.46-.32.32,1.64v6.07h-1.78ZM106.4,231.8v-4.25c0-.65-.14-1.16-.42-1.53-.28-.37-.69-.56-1.23-.56-.28,0-.57.05-.88.16-.31.11-.6.27-.85.48-.26.21-.48.48-.66.8l-.58-.45c.31-.52.67-.94,1.07-1.29.4-.34.83-.6,1.29-.77s.92-.25,1.39-.25c.5,0,.96.11,1.36.32.4.22.72.53.95.95.23.42.35.92.35,1.49v4.88h-1.78Z"/>
      <path class="cls-1" d="M113.54,231.95c-.7,0-1.3-.16-1.82-.48s-.92-.76-1.2-1.31c-.28-.56-.42-1.2-.42-1.92,0-.79.17-1.5.51-2.12.34-.62.8-1.11,1.39-1.47s1.21-.54,1.9-.54c.43,0,.83.07,1.19.21.36.14.67.35.94.62s.48.61.62,1.01l-.45.59c-.22-.38-.5-.68-.84-.87-.34-.2-.72-.3-1.12-.3-.44,0-.84.11-1.18.33-.34.22-.61.53-.79.94-.19.4-.28.87-.28,1.41,0,.5.08.96.23,1.37.16.41.39.73.69.96s.67.35,1.09.35c.36,0,.74-.1,1.14-.31.4-.2.74-.56,1.02-1.06l.65.36c-.26.49-.56.9-.88,1.23-.32.33-.68.58-1.08.74s-.83.24-1.31.24ZM116.35,231.97l-.31-1.6v-11.2l1.75-.31v12.78l-1.44.32Z"/>
      <path class="cls-1" d="M124.83,231.8v-12.64l1.75-.31v12.94h-1.75ZM129.63,231.8l-2.93-3.64h-.29v-.41l3.02-3.49h2.29v.04l-4.23,3.92.22-1.17,4.32,4.72v.04h-2.39Z"/>
      <path class="cls-1" d="M134.44,222.41c-.34,0-.61-.1-.82-.3-.21-.2-.31-.46-.31-.8s.1-.61.31-.81c.21-.2.48-.31.82-.31s.61.1.83.31c.22.2.32.47.32.81s-.11.6-.32.8c-.22.2-.49.3-.83.3ZM133.56,231.8v-7.38l1.78-.32v7.7h-1.78Z"/>
      <path class="cls-1" d="M138.09,231.8v-7.38l1.46-.32.32,1.67v6.03h-1.78ZM139.57,227.07l-.41-.45c.38-.74.84-1.34,1.36-1.79.52-.45,1.09-.67,1.7-.67.28,0,.53.04.76.11.23.07.44.18.62.32l-.7,1.51c-.16-.12-.34-.21-.55-.28s-.43-.1-.66-.1c-.4,0-.78.11-1.15.33s-.7.56-.97,1.02Z"/>
      <path class="cls-1" d="M145.08,231.8v-12.64l1.75-.31v12.94h-1.75ZM149.88,231.8l-2.93-3.64h-.29v-.41l3.02-3.49h2.29v.04l-4.23,3.92.22-1.17,4.32,4.72v.04h-2.39Z"/>
      <path class="cls-1" d="M156.44,232c-.71,0-1.34-.15-1.9-.44-.56-.29-.99-.72-1.31-1.27-.31-.55-.47-1.22-.47-2,0-.84.18-1.58.53-2.21.35-.64.83-1.13,1.43-1.48.6-.35,1.28-.53,2.03-.53.94,0,1.64.28,2.12.84.47.56.71,1.32.71,2.28v.4c0,.15-.01.29-.04.42h-1.51v-.86c0-.59-.11-1.04-.32-1.36-.22-.32-.59-.48-1.12-.48-.43,0-.81.11-1.14.33-.33.22-.58.54-.76.95s-.26.89-.26,1.43c0,.82.22,1.46.66,1.92s1.01.69,1.72.69c.38,0,.76-.07,1.12-.21.36-.14.71-.35,1.04-.64l.58.92c-.34.34-.68.6-1.03.79-.35.19-.71.32-1.05.4-.35.07-.69.11-1.03.11ZM153.66,228.01l.2-1.08h5.47v1.08h-5.67Z"/>
    </g>
    <g>
      <path class="cls-1" d="M361.38,225.5l-4.45-11.84h2.18l4.09,11.41h-1.17l3.94-11.41h1.91l-4.63,11.84h-1.87Z"/>
      <path class="cls-1" d="M371.68,225.7c-.71,0-1.34-.15-1.9-.44-.56-.29-.99-.72-1.31-1.27-.31-.55-.47-1.22-.47-2,0-.84.18-1.58.53-2.21.35-.64.83-1.13,1.43-1.48.6-.35,1.28-.53,2.03-.53.94,0,1.64.28,2.12.84.47.56.71,1.32.71,2.28v.4c0,.15-.01.29-.04.42h-1.51v-.86c0-.59-.11-1.04-.32-1.36-.22-.32-.59-.48-1.12-.48-.43,0-.81.11-1.14.33-.33.22-.58.54-.76.95s-.26.89-.26,1.43c0,.82.22,1.46.66,1.92s1.01.69,1.72.69c.38,0,.76-.07,1.12-.21.36-.14.71-.35,1.04-.64l.58.92c-.34.34-.68.6-1.03.79-.35.19-.71.32-1.05.4-.35.07-.69.11-1.03.11ZM368.91,221.71l.2-1.08h5.47v1.08h-5.67Z"/>
      <path class="cls-1" d="M377.01,225.5v-12.64l1.75-.31v12.94h-1.75Z"/>
      <path class="cls-1" d="M381.56,225.5v-12.64l1.75-.31v12.94h-1.75ZM386.37,225.5l-2.93-3.64h-.29v-.41l3.02-3.49h2.29v.04l-4.23,3.92.22-1.17,4.32,4.72v.04h-2.39Z"/>
      <path class="cls-1" d="M393.14,225.7c-.76,0-1.43-.17-2.02-.5-.59-.33-1.06-.79-1.4-1.37s-.5-1.24-.5-1.99c0-.79.19-1.5.56-2.12.37-.62.88-1.1,1.51-1.45s1.36-.52,2.16-.52c.76,0,1.43.17,2.02.5.59.33,1.05.78,1.39,1.36.34.58.5,1.24.5,1.98,0,.79-.18,1.5-.54,2.11-.36.62-.86,1.1-1.49,1.46-.64.35-1.36.53-2.18.53ZM393.39,224.48c.47,0,.85-.13,1.16-.38s.53-.58.68-.99c.15-.41.23-.85.23-1.31,0-.59-.1-1.09-.3-1.51-.2-.42-.47-.74-.81-.96-.34-.22-.73-.33-1.16-.33s-.83.12-1.14.37c-.32.25-.56.57-.71.96-.16.4-.23.84-.23,1.33,0,.59.1,1.1.31,1.52.2.43.48.75.83.97.35.22.73.33,1.15.33Z"/>
      <path class="cls-1" d="M399.27,225.5v-7.38l1.46-.32.32,1.64v6.07h-1.78ZM404.28,225.5v-4.39c0-.61-.13-1.09-.38-1.43-.25-.34-.61-.51-1.08-.51-.25,0-.52.05-.81.16-.29.11-.56.27-.8.48-.25.21-.45.48-.62.8l-.58-.45c.3-.52.64-.94,1.03-1.29.38-.34.79-.6,1.23-.77.44-.17.88-.25,1.34-.25.68,0,1.26.25,1.74.74.47.49.71,1.17.71,2.03v4.88h-1.78ZM409.19,225.5v-4.39c0-.61-.12-1.09-.37-1.43-.25-.34-.61-.51-1.09-.51-.37,0-.77.12-1.18.36-.41.24-.74.6-.98,1.08l-.58-.45c.3-.52.64-.94,1.02-1.29.38-.34.78-.6,1.21-.77s.86-.25,1.31-.25c.7,0,1.27.25,1.74.74.46.49.69,1.17.69,2.03v4.88h-1.76Z"/>
      <path class="cls-1" d="M415.51,225.72c-.36,0-.71-.03-1.05-.09s-.66-.14-.95-.24c-.29-.1-.53-.21-.72-.33l.47-1.42c.31.28.69.5,1.12.66.44.16.85.24,1.23.24.42,0,.73-.1.93-.31s.3-.43.3-.67c0-.28-.09-.49-.27-.65-.18-.16-.41-.29-.7-.41-.29-.11-.59-.22-.9-.32-.31-.1-.61-.24-.9-.41-.29-.17-.52-.38-.69-.65-.17-.26-.26-.61-.26-1.04,0-.52.13-.94.38-1.29.25-.34.59-.6,1.03-.78.43-.18.91-.27,1.42-.27.38,0,.77.05,1.17.14.4.1.74.23,1.04.4l-.49,1.33c-.24-.25-.55-.43-.92-.55-.37-.11-.67-.17-.9-.17-.41,0-.7.08-.88.24-.18.16-.27.35-.27.57,0,.25.09.45.28.6.19.15.42.28.7.39s.58.22.91.33c.32.11.63.26.92.42s.53.39.71.67c.19.28.28.63.28,1.06,0,.34-.06.66-.19.96-.13.31-.31.58-.57.81-.25.23-.56.42-.94.56-.37.14-.8.21-1.3.21Z"/>
      <path class="cls-1" d="M425.27,219.2l-5.78-.02.11-1.04,5.78-.13-.11,1.19ZM423.34,225.63c-.44,0-.85-.09-1.22-.27-.37-.18-.67-.45-.89-.81s-.33-.8-.33-1.31v-4.9l.63-1.96,1.15-.23v6.77c0,.48.11.83.32,1.06s.5.34.85.34c.22,0,.45-.04.69-.12.25-.08.49-.2.73-.37l.5.77c-.36.36-.75.62-1.18.78-.43.16-.84.24-1.25.24Z"/>
      <path class="cls-1" d="M430.2,225.65c-.7,0-1.3-.16-1.82-.48-.52-.32-.92-.76-1.2-1.31s-.42-1.2-.42-1.92c0-.79.17-1.5.51-2.12.34-.62.8-1.11,1.39-1.47s1.21-.54,1.9-.54c.43,0,.83.07,1.19.21.36.14.67.35.94.62.27.28.48.61.62,1.01l-.45.59c-.22-.38-.5-.68-.84-.87-.34-.2-.72-.3-1.12-.3-.44,0-.84.11-1.18.33s-.61.53-.79.94c-.19.4-.28.87-.28,1.41,0,.5.08.96.23,1.37.16.41.39.73.69.96.31.23.67.35,1.09.35.36,0,.74-.1,1.14-.31.4-.2.74-.56,1.02-1.06l.65.36c-.26.49-.56.9-.88,1.23s-.68.58-1.08.74c-.4.16-.83.24-1.31.24ZM433.01,225.67l-.31-1.6v-11.2l1.75-.31v12.78l-1.44.32Z"/>
      <path class="cls-1" d="M436.89,225.5v-7.38l1.46-.32.32,1.67v6.03h-1.78ZM438.37,220.77l-.41-.45c.38-.74.84-1.34,1.36-1.79.52-.45,1.09-.67,1.7-.67.28,0,.53.04.76.11.23.07.44.18.62.32l-.7,1.51c-.16-.12-.34-.21-.55-.28s-.43-.1-.66-.1c-.4,0-.78.11-1.15.33s-.7.56-.97,1.02Z"/>
      <path class="cls-1" d="M444.9,216.11c-.34,0-.61-.1-.82-.3-.21-.2-.31-.46-.31-.8s.1-.61.31-.81c.21-.2.48-.31.82-.31s.61.1.83.31c.22.2.32.47.32.81s-.11.6-.32.8c-.22.2-.49.3-.83.3ZM444.02,225.5v-7.38l1.78-.32v7.7h-1.78Z"/>
      <path class="cls-1" d="M448.56,225.5v-7.38l1.46-.32.32,1.64v6.07h-1.78ZM453.92,225.5v-4.25c0-.65-.14-1.16-.42-1.53-.28-.37-.69-.56-1.23-.56-.28,0-.57.05-.88.16-.31.11-.6.27-.86.48-.26.21-.48.48-.66.8l-.58-.45c.31-.52.67-.94,1.07-1.29.4-.34.83-.6,1.29-.77s.92-.25,1.39-.25c.5,0,.96.11,1.36.32.4.22.72.53.95.95.23.42.35.92.35,1.49v4.88h-1.78Z"/>
      <path class="cls-1" d="M458.31,225.5v-12.64l1.75-.31v12.94h-1.75ZM463.12,225.5l-2.93-3.64h-.29v-.41l3.02-3.49h2.29v.04l-4.23,3.92.22-1.17,4.32,4.72v.04h-2.39Z"/>
      <path class="cls-1" d="M474.55,225.7c-.76,0-1.43-.17-2.02-.5-.59-.33-1.06-.79-1.4-1.37s-.5-1.24-.5-1.99c0-.79.19-1.5.56-2.12.37-.62.88-1.1,1.51-1.45.64-.35,1.36-.52,2.16-.52.76,0,1.43.17,2.02.5.59.33,1.05.78,1.39,1.36.34.58.5,1.24.5,1.98,0,.79-.18,1.5-.54,2.11-.36.62-.86,1.1-1.49,1.46-.64.35-1.36.53-2.18.53ZM474.8,224.48c.47,0,.86-.13,1.16-.38.31-.25.53-.58.68-.99.15-.41.22-.85.22-1.31,0-.59-.1-1.09-.3-1.51-.2-.42-.47-.74-.81-.96-.34-.22-.73-.33-1.16-.33s-.83.12-1.14.37c-.32.25-.55.57-.71.96s-.23.84-.23,1.33c0,.59.1,1.1.31,1.52.2.43.48.75.83.97.35.22.73.33,1.15.33Z"/>
      <path class="cls-1" d="M483.28,230.71c-.62,0-1.18-.09-1.67-.26-.49-.17-.88-.43-1.16-.77-.28-.34-.42-.73-.42-1.19,0-.56.27-1.12.8-1.68.53-.56,1.33-1.04,2.4-1.45l.43.47c-.62.32-1.09.69-1.39,1.09-.3.4-.45.81-.45,1.21,0,.44.18.79.53,1.04.35.25.81.37,1.38.37.46,0,.87-.08,1.25-.23.38-.15.68-.37.9-.66s.33-.62.33-.99c0-.35-.09-.61-.27-.77-.18-.17-.47-.29-.86-.36-.4-.07-.91-.14-1.53-.22-.5-.05-.99-.13-1.45-.24-.46-.11-.83-.29-1.12-.51-.28-.23-.42-.55-.42-.95,0-.32.08-.61.25-.86.17-.25.4-.48.7-.69.3-.21.65-.41,1.06-.6l.49.5c-.23.1-.45.23-.68.41-.22.17-.33.39-.33.66,0,.2.08.36.24.48.16.11.43.2.79.27.37.07.84.14,1.43.21.62.06,1.19.15,1.7.27.51.12.92.32,1.22.6.31.28.46.7.46,1.27,0,.7-.21,1.32-.64,1.86-.43.55-.99.97-1.69,1.28-.7.31-1.47.46-2.29.46ZM483.51,223.36c-.61,0-1.15-.12-1.6-.35-.46-.23-.81-.55-1.06-.94-.25-.4-.38-.85-.38-1.37,0-.58.15-1.08.46-1.52.31-.44.71-.78,1.22-1.03.5-.25,1.07-.37,1.71-.37.89,0,1.61.24,2.16.73.55.49.83,1.12.83,1.9,0,.56-.14,1.07-.42,1.51-.28.44-.67.79-1.17,1.05-.5.26-1.08.39-1.74.39ZM483.78,222.17c.3,0,.56-.06.78-.18.22-.12.39-.29.51-.52.12-.23.18-.49.18-.77,0-.52-.16-.94-.47-1.26-.31-.32-.72-.49-1.22-.49-.44,0-.8.13-1.07.4-.27.27-.41.65-.41,1.12,0,.34.07.63.22.88.14.25.34.45.6.59s.55.22.87.22ZM485.1,219.15l-.2-.83,3.13-.32v1.15h-2.93Z"/>
      <path class="cls-1" d="M493.95,225.5v-7.38l1.46-.32.32,1.64v6.07h-1.78ZM498.96,225.5v-4.39c0-.61-.13-1.09-.38-1.43-.25-.34-.61-.51-1.08-.51-.25,0-.52.05-.81.16-.29.11-.55.27-.8.48s-.45.48-.62.8l-.58-.45c.3-.52.64-.94,1.03-1.29.38-.34.79-.6,1.23-.77.44-.17.88-.25,1.34-.25.68,0,1.26.25,1.74.74.47.49.71,1.17.71,2.03v4.88h-1.78ZM503.87,225.5v-4.39c0-.61-.12-1.09-.37-1.43-.25-.34-.61-.51-1.09-.51-.37,0-.77.12-1.18.36-.41.24-.74.6-.98,1.08l-.58-.45c.3-.52.64-.94,1.02-1.29.38-.34.78-.6,1.21-.77s.86-.25,1.31-.25c.7,0,1.27.25,1.74.74.46.49.69,1.17.69,2.03v4.88h-1.76Z"/>
      <path class="cls-1" d="M509.29,216.11c-.34,0-.61-.1-.82-.3-.21-.2-.32-.46-.32-.8s.11-.61.32-.81c.21-.2.48-.31.82-.31s.61.1.83.31c.22.2.32.47.32.81s-.11.6-.32.8c-.22.2-.49.3-.83.3ZM508.41,225.5v-7.38l1.78-.32v7.7h-1.78Z"/>
      <path class="cls-1" d="M512.94,225.5v-7.38l1.46-.32.32,1.64v6.07h-1.78ZM518.31,225.5v-4.25c0-.65-.14-1.16-.42-1.53-.28-.37-.69-.56-1.23-.56-.28,0-.57.05-.88.16-.31.11-.6.27-.86.48-.26.21-.48.48-.66.8l-.58-.45c.31-.52.67-.94,1.07-1.29.4-.34.83-.6,1.29-.77s.92-.25,1.39-.25c.5,0,.96.11,1.36.32.4.22.72.53.95.95.23.42.35.92.35,1.49v4.88h-1.78Z"/>
      <path class="cls-1" d="M525.13,230.71c-.62,0-1.18-.09-1.67-.26s-.88-.43-1.16-.77-.42-.73-.42-1.19c0-.56.27-1.12.8-1.68.53-.56,1.33-1.04,2.4-1.45l.43.47c-.62.32-1.09.69-1.39,1.09-.3.4-.45.81-.45,1.21,0,.44.18.79.53,1.04.35.25.81.37,1.38.37.46,0,.87-.08,1.25-.23.38-.15.68-.37.9-.66.22-.29.33-.62.33-.99,0-.35-.09-.61-.27-.77-.18-.17-.47-.29-.86-.36-.4-.07-.91-.14-1.53-.22-.5-.05-.99-.13-1.45-.24-.46-.11-.83-.29-1.12-.51-.28-.23-.42-.55-.42-.95,0-.32.08-.61.25-.86s.4-.48.7-.69.65-.41,1.06-.6l.49.5c-.23.1-.45.23-.67.41-.22.17-.33.39-.33.66,0,.2.08.36.24.48.16.11.43.2.79.27.37.07.84.14,1.43.21.62.06,1.19.15,1.7.27.51.12.92.32,1.22.6.31.28.46.7.46,1.27,0,.7-.21,1.32-.64,1.86s-.99.97-1.69,1.28c-.7.31-1.47.46-2.29.46ZM525.36,223.36c-.61,0-1.15-.12-1.6-.35-.46-.23-.81-.55-1.06-.94s-.38-.85-.38-1.37c0-.58.15-1.08.46-1.52.31-.44.71-.78,1.21-1.03.5-.25,1.07-.37,1.71-.37.89,0,1.61.24,2.16.73.55.49.83,1.12.83,1.9,0,.56-.14,1.07-.42,1.51-.28.44-.67.79-1.17,1.05-.5.26-1.08.39-1.74.39ZM525.63,222.17c.3,0,.56-.06.78-.18.22-.12.39-.29.51-.52.12-.23.18-.49.18-.77,0-.52-.16-.94-.47-1.26-.31-.32-.72-.49-1.22-.49-.44,0-.8.13-1.07.4-.27.27-.41.65-.41,1.12,0,.34.07.63.22.88s.34.45.6.59c.26.14.55.22.87.22ZM526.95,219.15l-.2-.83,3.13-.32v1.15h-2.93Z"/>
      <path class="cls-1" d="M531.59,225.5v-12.64l1.75-.31v12.94h-1.75Z"/>
      <path class="cls-1" d="M537.17,216.11c-.34,0-.61-.1-.82-.3-.21-.2-.31-.46-.31-.8s.1-.61.31-.81c.21-.2.48-.31.82-.31s.61.1.83.31c.22.2.32.47.32.81s-.11.6-.32.8c-.22.2-.49.3-.83.3ZM536.29,225.5v-7.38l1.78-.32v7.7h-1.78Z"/>
      <path class="cls-1" d="M540.82,225.5v-7.38l1.46-.32.32,1.64v6.07h-1.78ZM546.19,225.5v-4.25c0-.65-.14-1.16-.42-1.53-.28-.37-.69-.56-1.23-.56-.28,0-.57.05-.88.16-.31.11-.6.27-.86.48-.26.21-.48.48-.66.8l-.58-.45c.31-.52.67-.94,1.07-1.29.4-.34.83-.6,1.29-.77s.92-.25,1.39-.25c.5,0,.96.11,1.36.32.4.22.72.53.95.95.23.42.35.92.35,1.49v4.88h-1.78Z"/>
      <path class="cls-1" d="M553.01,230.71c-.62,0-1.18-.09-1.67-.26s-.88-.43-1.16-.77-.42-.73-.42-1.19c0-.56.27-1.12.8-1.68.53-.56,1.33-1.04,2.4-1.45l.43.47c-.62.32-1.09.69-1.39,1.09-.3.4-.45.81-.45,1.21,0,.44.18.79.53,1.04.35.25.81.37,1.38.37.46,0,.87-.08,1.25-.23.38-.15.68-.37.9-.66.22-.29.33-.62.33-.99,0-.35-.09-.61-.27-.77-.18-.17-.47-.29-.86-.36-.4-.07-.91-.14-1.53-.22-.5-.05-.99-.13-1.45-.24-.46-.11-.83-.29-1.12-.51-.28-.23-.42-.55-.42-.95,0-.32.08-.61.25-.86s.4-.48.7-.69.65-.41,1.06-.6l.49.5c-.23.1-.45.23-.67.41-.22.17-.33.39-.33.66,0,.2.08.36.24.48.16.11.43.2.79.27.37.07.84.14,1.43.21.62.06,1.19.15,1.7.27.51.12.92.32,1.22.6.31.28.46.7.46,1.27,0,.7-.21,1.32-.64,1.86s-.99.97-1.69,1.28c-.7.31-1.47.46-2.29.46ZM553.24,223.36c-.61,0-1.15-.12-1.6-.35-.46-.23-.81-.55-1.06-.94s-.38-.85-.38-1.37c0-.58.15-1.08.46-1.52.31-.44.71-.78,1.21-1.03.5-.25,1.07-.37,1.71-.37.89,0,1.61.24,2.16.73.55.49.83,1.12.83,1.9,0,.56-.14,1.07-.42,1.51-.28.44-.67.79-1.17,1.05-.5.26-1.08.39-1.74.39ZM553.51,222.17c.3,0,.56-.06.78-.18.22-.12.39-.29.51-.52.12-.23.18-.49.18-.77,0-.52-.16-.94-.47-1.26-.31-.32-.72-.49-1.22-.49-.44,0-.8.13-1.07.4-.27.27-.41.65-.41,1.12,0,.34.07.63.22.88s.34.45.6.59c.26.14.55.22.87.22ZM554.83,219.15l-.2-.83,3.13-.32v1.15h-2.93Z"/>
      <path class="cls-1" d="M357.53,252.31v-12.58l1.44-.32.32,1.6v11l-1.76.31ZM361.35,247.21c-.65,0-1.2-.16-1.67-.47s-.8-.76-1.02-1.33l.43-.56c.23.37.51.65.85.85s.71.29,1.11.29c.47,0,.87-.11,1.21-.33.34-.22.6-.53.78-.94.19-.4.28-.87.28-1.4,0-.49-.08-.94-.23-1.33-.16-.4-.39-.71-.69-.95-.31-.23-.67-.35-1.09-.35-.36,0-.74.1-1.14.3-.4.2-.75.55-1.03,1.05l-.65-.4c.41-.74.88-1.3,1.41-1.66.53-.36,1.15-.54,1.86-.54s1.32.16,1.84.48c.52.32.92.75,1.21,1.3.29.55.43,1.18.43,1.87,0,.79-.18,1.5-.53,2.12s-.82,1.1-1.4,1.46c-.58.35-1.23.53-1.95.53Z"/>
      <path class="cls-1" d="M368.6,247.23c-.58,0-1.04-.16-1.4-.5-.36-.33-.54-.75-.54-1.27,0-.3.07-.58.2-.85.13-.27.37-.52.7-.74.34-.22.81-.41,1.42-.55l2.95-.7.09.83-2.63.77c-.41.12-.68.27-.8.44s-.19.35-.19.53c0,.23.08.41.24.54.16.13.37.2.62.2.32,0,.7-.11,1.14-.33.44-.22.93-.5,1.47-.82l.11.61c-.53.5-1.07.94-1.62,1.3-.55.36-1.14.54-1.76.54ZM372.58,247.23c-.5,0-.91-.18-1.21-.54-.3-.36-.44-.88-.43-1.57l.07-3.19c.01-.34-.02-.61-.09-.81-.07-.2-.18-.35-.31-.45-.14-.1-.3-.14-.5-.14-.22,0-.44.04-.67.13s-.44.25-.6.47-.27.51-.31.87l-1.71-.2c.07-.35.22-.67.43-.96s.49-.55.81-.77c.32-.22.69-.39,1.09-.5.4-.11.82-.17,1.25-.17.8,0,1.38.21,1.74.62.35.41.52.97.51,1.67l-.04,3.76c0,.18.04.32.12.41.08.1.18.14.3.14.11,0,.22-.02.32-.06.11-.04.2-.1.27-.19l.52.83c-.17.19-.39.35-.66.47-.27.12-.57.18-.91.18ZM369.9,238.37c-.38,0-.73-.08-1.03-.23-.3-.16-.54-.37-.71-.65-.17-.28-.26-.59-.26-.94s.09-.65.27-.92c.18-.26.43-.47.74-.63.31-.16.66-.23,1.04-.23s.71.08,1.01.23c.3.16.54.37.71.65.17.28.26.59.26.94s-.09.64-.27.92c-.18.28-.42.49-.73.64-.31.15-.65.23-1.04.23ZM369.93,237.56c.23,0,.42-.09.57-.27.15-.18.23-.41.23-.7s-.08-.54-.23-.72c-.15-.18-.35-.27-.58-.27s-.44.09-.58.26c-.15.17-.23.41-.23.69s.08.53.23.72c.16.19.35.29.59.29Z"/>
      <path class="cls-1" d="M380.37,247.1v-11.84h7.15v1.53h-5.22v10.31h-1.93ZM380.99,242.3v-1.53h5.85v1.53h-5.85Z"/>
      <path class="cls-1" d="M389.54,247.1v-7.38l1.46-.32.32,1.67v6.03h-1.78ZM391.01,242.37l-.41-.45c.38-.74.84-1.34,1.36-1.79.52-.45,1.09-.67,1.7-.67.28,0,.53.04.76.11.23.07.44.18.62.32l-.7,1.51c-.16-.12-.34-.21-.55-.28s-.43-.1-.66-.1c-.4,0-.78.11-1.15.33s-.7.56-.97,1.02Z"/>
      <path class="cls-1" d="M397.55,237.71c-.34,0-.61-.1-.82-.3-.21-.2-.31-.46-.31-.8s.1-.61.31-.81c.21-.2.48-.31.82-.31s.61.1.83.31c.22.2.32.47.32.81s-.11.6-.32.8c-.22.2-.49.3-.83.3ZM396.66,247.1v-7.38l1.78-.32v7.7h-1.78Z"/>
      <path class="cls-1" d="M401.2,247.1v-7.38l1.46-.32.32,1.64v6.07h-1.78ZM406.2,247.1v-4.39c0-.61-.13-1.09-.38-1.43-.25-.34-.61-.51-1.08-.51-.25,0-.52.05-.81.16-.29.11-.56.27-.8.48-.25.21-.45.48-.62.8l-.58-.45c.3-.52.64-.94,1.03-1.29.38-.34.79-.6,1.23-.77.44-.17.88-.25,1.34-.25.68,0,1.26.25,1.74.74.47.49.71,1.17.71,2.03v4.88h-1.78ZM411.12,247.1v-4.39c0-.61-.12-1.09-.37-1.43-.25-.34-.61-.51-1.09-.51-.37,0-.76.12-1.18.36-.41.24-.74.6-.98,1.08l-.58-.45c.3-.52.64-.94,1.02-1.29.38-.34.78-.6,1.21-.77s.86-.25,1.3-.25c.7,0,1.28.25,1.74.74.46.49.69,1.17.69,2.03v4.88h-1.76Z"/>
      <path class="cls-1" d="M418.01,247.21c-.77,0-1.4-.25-1.91-.74s-.76-1.17-.76-2.03v-4.72l1.78-.32v4.41c0,.66.14,1.18.41,1.55.28.37.68.56,1.21.56.28,0,.56-.05.86-.16s.57-.27.83-.48c.26-.21.47-.48.64-.8l.58.43c-.3.5-.65.93-1.04,1.27-.39.34-.81.6-1.25.77-.44.17-.89.26-1.35.26ZM420.93,247.27l-.31-1.66v-5.89l1.76-.32v7.54l-1.46.32Z"/>
      <path class="cls-1" d="M424.85,247.1v-7.38l1.46-.32.32,1.67v6.03h-1.78ZM426.33,242.37l-.41-.45c.38-.74.84-1.34,1.36-1.79.52-.45,1.09-.67,1.7-.67.28,0,.53.04.76.11s.44.18.62.32l-.7,1.51c-.16-.12-.34-.21-.55-.28s-.43-.1-.66-.1c-.4,0-.78.11-1.15.33s-.7.56-.97,1.02Z"/>
      <path class="cls-1" d="M434.64,247.3c-.71,0-1.34-.15-1.9-.44-.56-.29-.99-.72-1.31-1.27-.31-.55-.47-1.22-.47-2,0-.84.18-1.58.53-2.21.35-.64.83-1.13,1.43-1.48s1.28-.53,2.03-.53c.94,0,1.64.28,2.12.84.47.56.71,1.32.71,2.28v.4c0,.15-.01.29-.04.42h-1.51v-.86c0-.59-.11-1.04-.32-1.36s-.59-.48-1.12-.48c-.43,0-.81.11-1.14.33-.33.22-.58.54-.76.95s-.26.89-.26,1.43c0,.82.22,1.46.66,1.92.44.46,1.01.69,1.72.69.38,0,.76-.07,1.12-.21.36-.14.71-.35,1.04-.64l.58.92c-.34.34-.68.6-1.04.79-.35.19-.71.32-1.05.4-.35.07-.69.11-1.03.11ZM431.87,243.31l.2-1.08h5.47v1.08h-5.67Z"/>
      <path class="cls-1" d="M439.76,247.1v-7.38l1.46-.32.32,1.67v6.03h-1.78ZM441.23,242.37l-.41-.45c.38-.74.84-1.34,1.36-1.79.52-.45,1.09-.67,1.7-.67.28,0,.53.04.76.11s.44.18.62.32l-.7,1.51c-.16-.12-.34-.21-.55-.28s-.43-.1-.66-.1c-.4,0-.78.11-1.15.33s-.7.56-.97,1.02Z"/>
      <path class="cls-1" d="M446.79,247.1v-12.64l1.75-.31v12.94h-1.75Z"/>
      <path class="cls-1" d="M454.57,247.3c-.76,0-1.43-.17-2.03-.5-.59-.33-1.06-.79-1.39-1.37s-.5-1.24-.5-1.99c0-.79.19-1.5.56-2.12.37-.62.88-1.1,1.51-1.45.64-.35,1.36-.52,2.16-.52.76,0,1.43.17,2.02.5.59.33,1.05.78,1.39,1.36.34.58.5,1.24.5,1.98,0,.79-.18,1.5-.54,2.11-.36.62-.86,1.1-1.49,1.46s-1.36.53-2.18.53ZM454.82,246.08c.47,0,.85-.13,1.16-.38.31-.25.53-.58.68-.99.15-.41.23-.85.23-1.31,0-.59-.1-1.09-.3-1.51-.2-.42-.47-.74-.81-.96-.34-.22-.73-.33-1.16-.33s-.83.12-1.14.37c-.32.25-.56.57-.71.96-.16.4-.23.84-.23,1.33,0,.59.1,1.1.31,1.52.2.43.48.75.83.97s.73.33,1.15.33Z"/>
      <path class="cls-1" d="M463.3,252.31c-.62,0-1.18-.09-1.67-.26s-.88-.43-1.16-.77-.42-.73-.42-1.19c0-.56.27-1.12.8-1.68.53-.56,1.33-1.04,2.4-1.45l.43.47c-.62.32-1.09.69-1.39,1.09-.3.4-.45.81-.45,1.21,0,.44.18.79.53,1.04.35.25.81.37,1.38.37.46,0,.87-.08,1.25-.23.38-.15.68-.37.9-.66.22-.29.33-.62.33-.99,0-.35-.09-.61-.27-.77-.18-.17-.47-.29-.86-.36-.4-.07-.91-.14-1.53-.22-.5-.05-.99-.13-1.45-.24-.46-.11-.83-.29-1.12-.51-.28-.23-.42-.55-.42-.95,0-.32.08-.61.25-.86s.4-.48.7-.69.65-.41,1.06-.6l.49.5c-.23.1-.45.23-.67.41-.22.17-.33.39-.33.66,0,.2.08.36.24.48.16.11.43.2.79.27.37.07.84.14,1.43.21.62.06,1.19.15,1.7.27.51.12.92.32,1.22.6.31.28.46.7.46,1.27,0,.7-.21,1.32-.64,1.86s-.99.97-1.69,1.28c-.7.31-1.47.46-2.29.46ZM463.53,244.96c-.61,0-1.15-.12-1.6-.35-.46-.23-.81-.55-1.06-.94s-.38-.85-.38-1.37c0-.58.15-1.08.46-1.52.31-.44.71-.78,1.21-1.03.5-.25,1.07-.37,1.71-.37.89,0,1.61.24,2.16.73.55.49.83,1.12.83,1.9,0,.56-.14,1.07-.42,1.51-.28.44-.67.79-1.17,1.05-.5.26-1.08.39-1.74.39ZM463.8,243.77c.3,0,.56-.06.78-.18.22-.12.39-.29.51-.52.12-.23.18-.49.18-.77,0-.52-.16-.94-.47-1.26-.31-.32-.72-.49-1.22-.49-.44,0-.8.13-1.07.4-.27.27-.41.65-.41,1.12,0,.34.07.63.22.88s.34.45.6.59c.26.14.55.22.87.22ZM465.12,240.75l-.2-.83,3.13-.32v1.15h-2.93Z"/>
      <path class="cls-1" d="M472.57,247.3c-.71,0-1.34-.15-1.9-.44s-.99-.72-1.3-1.27c-.31-.55-.47-1.22-.47-2,0-.84.18-1.58.53-2.21.35-.64.83-1.13,1.43-1.48.6-.35,1.28-.53,2.03-.53.94,0,1.64.28,2.12.84.47.56.71,1.32.71,2.28v.4c0,.15-.01.29-.04.42h-1.51v-.86c0-.59-.11-1.04-.32-1.36-.22-.32-.59-.48-1.12-.48-.43,0-.81.11-1.14.33-.33.22-.58.54-.76.95s-.26.89-.26,1.43c0,.82.22,1.46.66,1.92.44.46,1.01.69,1.72.69.38,0,.76-.07,1.12-.21.36-.14.71-.35,1.04-.64l.58.92c-.34.34-.68.6-1.03.79-.35.19-.71.32-1.05.4-.35.07-.69.11-1.03.11ZM469.8,243.31l.2-1.08h5.47v1.08h-5.67Z"/>
      <path class="cls-1" d="M477.68,247.1v-7.38l1.46-.32.32,1.64v6.07h-1.78ZM483.04,247.1v-4.25c0-.65-.14-1.16-.42-1.53s-.69-.56-1.23-.56c-.28,0-.57.05-.88.16-.31.11-.6.27-.85.48s-.48.48-.66.8l-.58-.45c.31-.52.67-.94,1.07-1.29.4-.34.83-.6,1.29-.77s.92-.25,1.39-.25c.5,0,.96.11,1.36.32.4.22.72.53.95.95.23.42.35.92.35,1.49v4.88h-1.78Z"/>
    </g>
    <g>
      <path class="cls-1" d="M194.95,388.71l.81-11.84h1.39l-.43,11.84h-1.76ZM206.42,388.71l-.38-10.93.9-.41-4.77,10.39h-1.13l-4.46-9.58.02-1.31h1.35l4.19,8.89h-.54l4.05-8.89h2.02l.7,11.84h-1.94Z"/>
      <path class="cls-1" d="M212.32,379.32c-.34,0-.61-.1-.82-.3-.21-.2-.31-.46-.31-.8s.1-.61.31-.81c.21-.2.48-.31.82-.31s.61.1.83.31c.22.2.32.47.32.81s-.11.6-.32.8c-.22.2-.49.3-.83.3ZM211.44,388.71v-7.38l1.78-.32v7.7h-1.78Z"/>
      <path class="cls-1" d="M218.89,388.86c-.7,0-1.3-.16-1.82-.48s-.92-.76-1.2-1.31c-.28-.56-.42-1.2-.42-1.92,0-.79.17-1.5.51-2.12.34-.62.8-1.11,1.39-1.47s1.21-.54,1.9-.54c.43,0,.83.07,1.19.21.36.14.67.35.94.62s.48.61.62,1.01l-.45.59c-.22-.38-.5-.68-.84-.87-.34-.2-.72-.3-1.12-.3-.44,0-.84.11-1.18.33-.34.22-.61.53-.79.94-.19.4-.28.87-.28,1.41,0,.5.08.96.23,1.37.16.41.39.73.69.96s.67.35,1.09.35c.36,0,.74-.1,1.14-.31.4-.2.74-.56,1.02-1.06l.65.36c-.26.49-.56.9-.88,1.23-.32.33-.68.58-1.08.74s-.83.24-1.31.24ZM221.7,388.88l-.31-1.6v-11.2l1.75-.31v12.78l-1.44.32Z"/>
      <path class="cls-1" d="M228.51,388.86c-.7,0-1.3-.16-1.82-.48s-.92-.76-1.2-1.31c-.28-.56-.42-1.2-.42-1.92,0-.79.17-1.5.51-2.12.34-.62.8-1.11,1.39-1.47s1.21-.54,1.9-.54c.43,0,.83.07,1.19.21.36.14.67.35.94.62s.48.61.62,1.01l-.45.59c-.22-.38-.5-.68-.84-.87-.34-.2-.72-.3-1.12-.3-.44,0-.84.11-1.18.33-.34.22-.61.53-.79.94-.19.4-.28.87-.28,1.41,0,.5.08.96.23,1.37.16.41.39.73.69.96s.67.35,1.09.35c.36,0,.74-.1,1.14-.31.4-.2.74-.56,1.02-1.06l.65.36c-.26.49-.56.9-.88,1.23-.32.33-.68.58-1.08.74s-.83.24-1.31.24ZM231.31,388.88l-.31-1.6v-11.2l1.75-.31v12.78l-1.44.32Z"/>
      <path class="cls-1" d="M236.66,388.84c-.58,0-1.04-.16-1.4-.5-.36-.33-.54-.75-.54-1.27,0-.3.07-.58.2-.85.13-.27.37-.52.7-.74.34-.22.81-.41,1.42-.55l2.95-.7.09.83-2.63.77c-.41.12-.68.27-.8.44s-.19.35-.19.53c0,.23.08.41.24.54.16.13.37.2.62.2.32,0,.7-.11,1.14-.33.44-.22.93-.5,1.47-.82l.11.61c-.53.5-1.07.94-1.62,1.3-.55.36-1.14.54-1.76.54ZM240.64,388.84c-.5,0-.91-.18-1.21-.54-.3-.36-.44-.88-.43-1.57l.07-3.19c.01-.34-.02-.61-.09-.81-.07-.2-.18-.35-.31-.45-.14-.1-.3-.14-.5-.14-.22,0-.44.04-.67.13s-.44.25-.6.47-.27.51-.31.87l-1.71-.2c.07-.35.22-.67.43-.96s.49-.55.81-.77c.32-.22.69-.39,1.09-.5.4-.11.82-.17,1.25-.17.8,0,1.38.21,1.74.62.35.41.52.97.51,1.67l-.04,3.76c0,.18.04.32.12.41.08.1.18.14.3.14.11,0,.22-.02.32-.06.11-.04.2-.1.27-.19l.52.83c-.17.19-.39.35-.66.47-.27.12-.57.18-.91.18Z"/>
      <path class="cls-1" d="M246.06,393.92c-.62,0-1.18-.09-1.67-.26-.49-.17-.88-.43-1.16-.77-.28-.34-.42-.73-.42-1.19,0-.56.27-1.12.8-1.68.53-.56,1.33-1.04,2.4-1.45l.43.47c-.62.32-1.09.69-1.39,1.09-.3.4-.45.81-.45,1.21,0,.44.18.79.53,1.04.35.25.81.37,1.38.37.46,0,.87-.08,1.25-.23.38-.15.68-.37.9-.66.22-.29.33-.62.33-.99,0-.35-.09-.61-.27-.77-.18-.17-.47-.29-.86-.36-.4-.07-.91-.14-1.53-.22-.5-.05-.99-.13-1.45-.24-.46-.11-.83-.29-1.12-.51-.28-.23-.42-.55-.42-.95,0-.32.08-.61.25-.86.17-.25.4-.48.7-.69.3-.21.65-.41,1.06-.6l.49.5c-.23.1-.45.23-.68.41s-.33.39-.33.66c0,.2.08.36.24.48.16.11.43.2.79.27.37.07.84.14,1.43.21.62.06,1.19.15,1.7.27.51.12.92.32,1.22.6.31.28.46.7.46,1.27,0,.7-.21,1.32-.64,1.86-.43.55-.99.97-1.69,1.28-.7.31-1.47.46-2.29.46ZM246.29,386.57c-.61,0-1.15-.12-1.6-.35-.46-.23-.81-.55-1.06-.94-.25-.4-.38-.85-.38-1.37,0-.58.15-1.08.46-1.52.31-.44.71-.78,1.22-1.03.5-.25,1.07-.37,1.71-.37.89,0,1.61.24,2.16.73.55.49.83,1.12.83,1.9,0,.56-.14,1.07-.42,1.51-.28.44-.67.79-1.17,1.05-.5.26-1.08.39-1.74.39ZM246.56,385.38c.3,0,.56-.06.78-.18.22-.12.39-.29.51-.52.12-.23.18-.49.18-.77,0-.52-.16-.94-.47-1.26-.31-.32-.72-.49-1.22-.49-.44,0-.8.13-1.07.4s-.41.65-.41,1.12c0,.34.07.63.22.88.14.25.34.45.6.59.26.14.55.22.87.22ZM247.87,382.36l-.2-.83,3.13-.32v1.15h-2.93Z"/>
    </g>
    <g>
      <path class="cls-1" d="M661.46,384.99c0-.36-.1-.67-.3-.94-.2-.26-.46-.5-.78-.7-.32-.2-.68-.4-1.07-.58-.39-.18-.78-.37-1.16-.58-.38-.2-.74-.44-1.07-.69s-.59-.57-.79-.93-.3-.79-.3-1.28c0-.73.17-1.35.52-1.86.35-.51.82-.91,1.4-1.19.59-.28,1.24-.42,1.96-.42.47,0,.97.06,1.52.18.55.12,1.03.29,1.45.52l-.68,1.73c-.36-.31-.79-.56-1.28-.73s-.95-.26-1.37-.26-.76.08-1.02.23c-.26.16-.44.35-.56.59-.11.24-.17.48-.17.72,0,.32.1.6.3.84.2.23.46.45.79.64.33.19.69.38,1.08.57.39.19.78.38,1.17.59.39.21.75.46,1.08.74.33.28.59.61.79.98.2.37.3.82.3,1.33,0,.77-.19,1.42-.57,1.96s-.88.95-1.49,1.22c-.62.28-1.3.41-2.06.41s-1.46-.11-2.12-.34-1.19-.5-1.61-.83l.94-1.6c.43.38.93.7,1.5.94.57.24,1.14.36,1.7.36s1.02-.15,1.37-.44c.35-.29.52-.69.52-1.2Z"/>
      <path class="cls-1" d="M668.03,387.99c-.77,0-1.4-.25-1.91-.74s-.76-1.17-.76-2.03v-4.72l1.78-.32v4.41c0,.66.14,1.18.41,1.55.28.37.68.56,1.21.56.28,0,.56-.05.86-.16s.57-.27.83-.48c.26-.21.47-.48.64-.8l.58.43c-.3.5-.65.93-1.04,1.27-.39.34-.81.6-1.25.77-.44.17-.89.26-1.35.26ZM670.95,388.05l-.31-1.66v-5.89l1.76-.32v7.54l-1.46.32Z"/>
      <path class="cls-1" d="M674.87,387.89v-7.38l1.46-.32.32,1.64v6.07h-1.78ZM680.23,387.89v-4.25c0-.65-.14-1.16-.42-1.53s-.69-.56-1.23-.56c-.28,0-.57.05-.88.16-.31.11-.6.27-.85.48s-.48.48-.66.8l-.58-.45c.31-.52.67-.94,1.07-1.29.4-.34.83-.6,1.29-.77s.92-.25,1.39-.25c.5,0,.96.11,1.36.32.4.22.72.53.95.95.23.42.35.92.35,1.49v4.88h-1.78Z"/>
      <path class="cls-1" d="M684.46,387.89v-7.38l1.46-.32.32,1.64v6.07h-1.78ZM689.83,387.89v-4.25c0-.65-.14-1.16-.42-1.53s-.69-.56-1.23-.56c-.28,0-.57.05-.88.16-.31.11-.6.27-.85.48s-.48.48-.66.8l-.58-.45c.31-.52.67-.94,1.07-1.29.4-.34.83-.6,1.29-.77s.92-.25,1.39-.25c.5,0,.96.11,1.36.32.4.22.72.53.95.95.23.42.35.92.35,1.49v4.88h-1.78Z"/>
      <path class="cls-1" d="M694.06,387.89v-7.38l1.46-.32.32,1.64v6.07h-1.78ZM699.06,387.89v-4.39c0-.61-.13-1.09-.38-1.43-.25-.34-.61-.51-1.08-.51-.25,0-.52.05-.81.16-.29.11-.55.27-.8.48s-.45.48-.62.8l-.58-.45c.3-.52.64-.94,1.03-1.29.38-.34.79-.6,1.23-.77.44-.17.88-.25,1.34-.25.68,0,1.26.25,1.74.74.47.49.71,1.17.71,2.03v4.88h-1.78ZM703.98,387.89v-4.39c0-.61-.12-1.09-.37-1.43-.25-.34-.61-.51-1.09-.51-.37,0-.77.12-1.18.36-.41.24-.74.6-.98,1.08l-.58-.45c.3-.52.64-.94,1.02-1.29.38-.34.78-.6,1.21-.77s.86-.25,1.31-.25c.7,0,1.27.25,1.74.74.46.49.69,1.17.69,2.03v4.88h-1.76Z"/>
      <path class="cls-1" d="M708.55,388.72l-.97-.81,7.42-8.3.99.81-7.43,8.3ZM711.59,388.09c-.76,0-1.43-.17-2.02-.5-.59-.33-1.06-.79-1.4-1.37s-.5-1.24-.5-1.99.19-1.48.56-2.1c.37-.62.88-1.1,1.51-1.46.64-.35,1.36-.53,2.16-.53.76,0,1.43.17,2.02.5s1.05.79,1.39,1.37c.34.58.5,1.23.5,1.96,0,.79-.18,1.5-.54,2.11-.36.62-.86,1.1-1.49,1.46-.64.35-1.36.53-2.18.53ZM711.84,386.88c.5,0,.92-.13,1.25-.38.33-.25.58-.58.74-1,.16-.41.24-.86.24-1.32,0-.59-.11-1.09-.32-1.51-.22-.42-.5-.74-.86-.96-.36-.22-.77-.33-1.24-.33-.49,0-.9.12-1.23.37-.33.25-.58.57-.75.96s-.25.84-.25,1.33c0,.59.11,1.1.32,1.52.22.43.51.75.88.98.37.23.78.34,1.22.34Z"/>
      <path class="cls-1" d="M717.73,387.89v-7.38l1.46-.32.32,1.67v6.03h-1.78ZM719.2,383.15l-.41-.45c.38-.74.84-1.34,1.36-1.79.52-.45,1.09-.67,1.7-.67.28,0,.53.04.76.11s.44.18.62.32l-.7,1.51c-.16-.12-.34-.21-.55-.28s-.43-.1-.66-.1c-.4,0-.78.11-1.15.33s-.7.56-.97,1.02Z"/>
      <path class="cls-1" d="M726.44,388.1c-.36,0-.71-.03-1.05-.09-.34-.06-.66-.14-.94-.24-.29-.1-.53-.21-.72-.33l.47-1.42c.31.28.69.5,1.12.66.44.16.85.24,1.23.24.42,0,.73-.1.93-.31.2-.2.3-.43.3-.67,0-.28-.09-.49-.27-.65-.18-.16-.41-.29-.7-.41-.29-.11-.59-.22-.9-.32-.31-.1-.61-.24-.9-.41-.29-.17-.52-.38-.69-.65-.17-.26-.26-.61-.26-1.04,0-.52.13-.94.38-1.29.25-.34.59-.6,1.03-.78.43-.18.91-.27,1.42-.27.38,0,.77.05,1.17.14.4.1.74.23,1.04.4l-.49,1.33c-.24-.25-.55-.43-.92-.55-.37-.11-.67-.17-.9-.17-.41,0-.7.08-.88.24-.18.16-.27.35-.27.57,0,.25.09.45.28.6.19.15.42.28.7.39.28.11.58.22.91.33.32.11.63.26.92.42s.52.39.71.67c.19.28.28.63.28,1.06,0,.34-.06.66-.19.96-.13.31-.32.58-.57.81-.25.23-.56.42-.94.56-.37.14-.8.21-1.3.21Z"/>
      <path class="cls-1" d="M731.48,387.89v-12.64l1.75-.31v12.94h-1.75ZM736.29,387.89l-2.93-3.64h-.29v-.41l3.02-3.49h2.29v.04l-4.23,3.92.22-1.17,4.32,4.72v.04h-2.39Z"/>
      <path class="cls-1" d="M744.49,387.89v-12.64l1.75-.31v12.94h-1.75ZM749.3,387.89l-2.93-3.64h-.29v-.41l3.02-3.49h2.29v.04l-4.23,3.92.22-1.17,4.32,4.72v.04h-2.39Z"/>
      <path class="cls-1" d="M754.38,388.01c-.58,0-1.04-.16-1.4-.5-.36-.33-.54-.75-.54-1.27,0-.3.07-.58.2-.85.13-.27.37-.52.7-.74.33-.22.81-.41,1.42-.55l2.95-.7.09.83-2.63.77c-.41.12-.68.27-.8.44s-.19.35-.19.53c0,.23.08.41.24.54.16.13.37.2.62.2.32,0,.7-.11,1.14-.33.44-.22.93-.5,1.47-.82l.11.61c-.53.5-1.07.94-1.62,1.3s-1.14.54-1.76.54ZM758.35,388.01c-.5,0-.91-.18-1.21-.54s-.44-.88-.43-1.57l.07-3.19c.01-.34-.02-.61-.09-.81-.07-.2-.18-.35-.31-.45-.14-.1-.3-.14-.5-.14-.22,0-.44.04-.67.13-.23.09-.44.25-.6.47s-.27.51-.31.87l-1.71-.2c.07-.35.22-.67.43-.96s.49-.55.81-.77c.32-.22.69-.39,1.09-.5.4-.11.82-.17,1.25-.17.8,0,1.38.21,1.74.62.35.41.52.97.51,1.67l-.04,3.76c0,.18.04.32.12.41.08.1.18.14.3.14.11,0,.22-.02.32-.06.11-.04.2-.1.27-.19l.52.83c-.17.19-.39.35-.66.47-.27.12-.57.18-.91.18Z"/>
      <path class="cls-1" d="M761.34,387.89v-12.64l1.75-.31v12.94h-1.75ZM766.15,387.89l-2.93-3.64h-.29v-.41l3.02-3.49h2.29v.04l-4.23,3.92.22-1.17,4.32,4.72v.04h-2.39Z"/>
      <path class="cls-1" d="M772.7,388.09c-.71,0-1.34-.15-1.9-.44s-.99-.72-1.3-1.27c-.31-.55-.47-1.22-.47-2,0-.84.18-1.58.53-2.21.35-.64.83-1.13,1.43-1.48.6-.35,1.28-.53,2.03-.53.94,0,1.64.28,2.12.84.47.56.71,1.32.71,2.28v.4c0,.15-.01.29-.04.42h-1.51v-.86c0-.59-.11-1.04-.32-1.36-.22-.32-.59-.48-1.12-.48-.43,0-.81.11-1.14.33-.33.22-.58.54-.76.95s-.26.89-.26,1.43c0,.82.22,1.46.66,1.92.44.46,1.01.69,1.72.69.38,0,.76-.07,1.12-.21.36-.14.71-.35,1.04-.64l.58.92c-.34.34-.68.6-1.03.79-.35.19-.71.32-1.05.4-.35.07-.69.11-1.03.11ZM769.93,384.09l.2-1.08h5.47v1.08h-5.67Z"/>
      <path class="cls-1" d="M777.97,387.08v-11.83l1.75-.31v11.21l-1.75.92ZM781.1,388.03c-.65,0-1.27-.08-1.86-.25-.59-.17-1.02-.4-1.27-.7l1.75-.92c.24.25.53.44.87.56s.69.18,1.05.18c.48,0,.87-.12,1.18-.35.31-.23.53-.54.68-.92.15-.38.22-.79.22-1.23,0-.61-.09-1.13-.28-1.56-.19-.43-.44-.75-.77-.96-.32-.22-.69-.32-1.1-.32-.44,0-.87.12-1.29.37s-.76.6-1.04,1.07l-.58-.56c.28-.41.59-.78.95-1.12.36-.34.76-.61,1.21-.81s.93-.31,1.46-.31c.44,0,.86.08,1.25.24s.74.39,1.06.69c.32.3.57.67.75,1.12.18.45.27.96.27,1.54,0,.72-.17,1.4-.5,2.05s-.83,1.17-1.49,1.58c-.67.4-1.51.6-2.55.6Z"/>
      <path class="cls-1" d="M790.93,388.09c-.76,0-1.43-.17-2.03-.5-.59-.33-1.06-.79-1.39-1.37s-.5-1.24-.5-1.99c0-.79.19-1.5.56-2.12.37-.62.88-1.1,1.51-1.45.64-.35,1.36-.52,2.16-.52.76,0,1.43.17,2.02.5.59.33,1.05.78,1.39,1.36.34.58.5,1.24.5,1.98,0,.79-.18,1.5-.54,2.11-.36.62-.86,1.1-1.49,1.46s-1.36.53-2.18.53ZM791.19,386.86c.47,0,.85-.13,1.16-.38.31-.25.53-.58.68-.99.15-.41.23-.85.23-1.31,0-.59-.1-1.09-.3-1.51-.2-.42-.47-.74-.81-.96-.34-.22-.73-.33-1.16-.33s-.83.12-1.14.37c-.32.25-.56.57-.71.96-.16.4-.23.84-.23,1.33,0,.59.1,1.1.31,1.52.2.43.48.75.83.97s.73.33,1.15.33Z"/>
      <path class="cls-1" d="M797.07,387.89v-7.38l1.46-.32.32,1.67v6.03h-1.78ZM798.55,383.15l-.41-.45c.38-.74.84-1.34,1.36-1.79.52-.45,1.09-.67,1.7-.67.28,0,.53.04.76.11.23.07.44.18.62.32l-.7,1.51c-.16-.12-.34-.21-.55-.28s-.43-.1-.66-.1c-.4,0-.78.11-1.15.33s-.7.56-.97,1.02Z"/>
      <path class="cls-1" d="M806.61,388.03c-.7,0-1.3-.16-1.82-.48-.52-.32-.92-.76-1.2-1.31-.28-.56-.42-1.2-.42-1.92,0-.79.17-1.5.51-2.12.34-.62.8-1.11,1.39-1.47s1.21-.54,1.9-.54c.43,0,.83.07,1.19.21.36.14.67.35.95.62.27.28.48.61.62,1.01l-.45.59c-.22-.38-.5-.68-.84-.87-.34-.2-.72-.3-1.12-.3-.44,0-.84.11-1.18.33-.34.22-.61.53-.79.94-.19.4-.28.87-.28,1.41,0,.5.08.96.23,1.37.16.41.39.73.69.96.31.23.67.35,1.09.35.36,0,.74-.1,1.14-.31.4-.2.74-.56,1.02-1.06l.65.36c-.26.49-.56.9-.88,1.23-.32.33-.68.58-1.08.74-.4.16-.83.24-1.31.24ZM809.42,388.05l-.31-1.6v-11.2l1.75-.31v12.78l-1.44.32Z"/>
    </g>
    <g>
      <path class="cls-1" d="M456.32,529.81v-11.84h3.83c.96,0,1.85.13,2.66.38.82.25,1.52.62,2.12,1.11.59.49,1.05,1.08,1.38,1.78.32.7.49,1.5.49,2.39,0,.73-.13,1.47-.38,2.21-.25.74-.65,1.41-1.19,2.01s-1.25,1.08-2.12,1.44-1.93.54-3.18.54h-3.62ZM458.24,528.43h1.87c.89,0,1.63-.12,2.23-.37.6-.25,1.08-.58,1.43-1.01.35-.43.61-.9.76-1.43s.23-1.09.23-1.67c0-.82-.17-1.57-.5-2.26s-.86-1.24-1.58-1.67c-.72-.42-1.67-.63-2.84-.63h-1.6v9.04Z"/>
      <path class="cls-1" d="M470.38,529.94c-.58,0-1.04-.16-1.4-.5-.36-.33-.54-.75-.54-1.27,0-.3.07-.58.2-.85s.37-.52.7-.74.81-.41,1.42-.55l2.95-.7.09.83-2.63.77c-.41.12-.67.27-.8.44s-.19.35-.19.53c0,.23.08.41.24.54.16.13.37.2.62.2.32,0,.71-.11,1.14-.33.44-.22.93-.5,1.47-.82l.11.61c-.53.5-1.07.94-1.62,1.3-.55.36-1.14.54-1.76.54ZM474.35,529.94c-.5,0-.91-.18-1.21-.54-.3-.36-.44-.88-.43-1.57l.07-3.19c.01-.34-.02-.61-.09-.81-.07-.2-.18-.35-.32-.45s-.3-.14-.5-.14c-.22,0-.44.04-.67.13-.23.09-.43.25-.6.47s-.27.51-.31.87l-1.71-.2c.07-.35.22-.67.43-.96s.49-.55.81-.77.69-.39,1.09-.5c.4-.11.82-.17,1.25-.17.8,0,1.38.21,1.74.62.35.41.52.97.51,1.67l-.04,3.76c0,.18.04.32.12.41.08.1.18.14.3.14.11,0,.22-.02.32-.06.11-.04.2-.1.27-.19l.52.83c-.17.19-.39.35-.66.47-.27.12-.57.18-.91.18Z"/>
      <path class="cls-1" d="M477.18,529.81v-7.38l1.46-.32.32,1.64v6.07h-1.78ZM482.54,529.81v-4.25c0-.65-.14-1.16-.42-1.53s-.69-.56-1.23-.56c-.28,0-.57.05-.88.16-.31.11-.6.27-.85.48s-.48.48-.66.8l-.58-.45c.31-.52.67-.94,1.07-1.29.4-.34.83-.6,1.29-.77s.92-.25,1.39-.25c.5,0,.96.11,1.36.32.4.22.72.53.95.95.23.42.35.92.35,1.49v4.88h-1.78Z"/>
      <path class="cls-1" d="M488.86,530.03c-.36,0-.71-.03-1.05-.09-.34-.06-.66-.14-.94-.24-.29-.1-.53-.21-.72-.33l.47-1.42c.31.28.69.5,1.12.66.44.16.85.24,1.23.24.42,0,.73-.1.93-.31.2-.2.3-.43.3-.67,0-.28-.09-.49-.27-.65-.18-.16-.41-.29-.7-.41-.29-.11-.59-.22-.9-.32-.31-.1-.61-.24-.9-.41-.29-.17-.52-.38-.69-.65-.17-.26-.26-.61-.26-1.04,0-.52.13-.94.38-1.29.25-.34.59-.6,1.03-.78.43-.18.91-.27,1.42-.27.38,0,.77.05,1.17.14.4.1.74.23,1.04.4l-.49,1.33c-.24-.25-.55-.43-.92-.55-.37-.11-.67-.17-.9-.17-.41,0-.7.08-.88.24-.18.16-.27.35-.27.57,0,.25.09.45.28.6.19.15.42.28.7.39.28.11.58.22.91.33.32.11.63.26.92.42s.52.39.71.67c.19.28.28.63.28,1.06,0,.34-.06.66-.19.96-.13.31-.32.58-.57.81-.25.23-.56.42-.94.56-.37.14-.8.21-1.3.21Z"/>
      <path class="cls-1" d="M495.16,529.92c-.37,0-.67-.11-.9-.32-.23-.22-.34-.5-.34-.86s.11-.67.34-.88c.23-.22.53-.32.9-.32s.65.11.87.32c.22.22.33.51.33.88s-.11.65-.33.86c-.22.22-.51.32-.87.32ZM494.48,525.67l-.4-7.7h2.12l-.36,7.7h-1.37Z"/>
    </g>
    <g>
      <path class="cls-1" d="M694.45,610.82l.32-1.08c.85,0,1.6.13,2.24.41.64.27,1.14.65,1.5,1.13.36.49.54,1.07.54,1.74s-.18,1.27-.55,1.79c-.37.52-.89.93-1.57,1.21-.68.29-1.49.43-2.44.43h-3.42v-11.84h3.55c.73,0,1.37.12,1.92.35.55.23.97.56,1.28.99.31.43.46.93.46,1.5,0,.46-.1.89-.29,1.3-.19.41-.47.77-.82,1.07s-.76.55-1.22.73c-.46.18-.96.27-1.5.27ZM692.29,609.62h2.38c.55,0,1-.16,1.34-.49.34-.32.51-.76.51-1.31,0-.5-.16-.94-.49-1.3-.32-.36-.89-.54-1.71-.54h-1.46v9.11h1.94c.77,0,1.35-.19,1.75-.56.4-.37.6-.88.6-1.51s-.22-1.14-.67-1.51c-.45-.37-1.17-.56-2.15-.56h-2.05v-1.33Z"/>
      <path class="cls-1" d="M701.13,616.46v-7.38l1.46-.32.32,1.67v6.03h-1.78ZM702.61,611.72l-.41-.45c.38-.74.84-1.34,1.36-1.79.52-.45,1.09-.67,1.7-.67.28,0,.53.04.76.11.23.07.44.18.62.32l-.7,1.51c-.16-.12-.34-.21-.55-.28-.21-.07-.43-.1-.66-.1-.4,0-.78.11-1.15.33-.37.22-.7.56-.97,1.02Z"/>
      <path class="cls-1" d="M710.92,616.66c-.71,0-1.34-.15-1.9-.44-.56-.29-.99-.72-1.31-1.27-.31-.55-.47-1.22-.47-2,0-.84.18-1.58.53-2.21.35-.64.83-1.13,1.43-1.49.6-.35,1.28-.53,2.03-.53.94,0,1.64.28,2.12.84.47.56.71,1.32.71,2.28v.41c0,.15-.01.29-.04.42h-1.51v-.86c0-.59-.11-1.04-.32-1.36-.22-.32-.59-.48-1.12-.48-.43,0-.81.11-1.14.33-.33.22-.58.54-.76.95s-.26.89-.26,1.43c0,.82.22,1.46.66,1.92.44.46,1.01.69,1.72.69.38,0,.76-.07,1.12-.21.36-.14.71-.35,1.04-.64l.58.92c-.34.34-.68.6-1.04.79-.35.19-.71.32-1.05.4-.35.07-.69.11-1.03.11ZM708.15,612.66l.2-1.08h5.47v1.08h-5.67Z"/>
      <path class="cls-1" d="M716.04,616.46v-7.38l1.46-.32.32,1.64v6.07h-1.78ZM721.4,616.46v-4.25c0-.65-.14-1.16-.42-1.53s-.69-.56-1.23-.56c-.28,0-.57.05-.88.16-.31.11-.6.27-.85.48s-.48.48-.66.8l-.58-.45c.31-.52.67-.95,1.07-1.29s.83-.6,1.29-.76.92-.25,1.39-.25c.5,0,.96.11,1.36.32.4.22.72.53.95.95.23.42.35.92.35,1.49v4.88h-1.78Z"/>
      <path class="cls-1" d="M725.63,616.46v-7.38l1.46-.32.32,1.64v6.07h-1.78ZM730.99,616.46v-4.25c0-.65-.14-1.16-.42-1.53s-.69-.56-1.23-.56c-.28,0-.57.05-.88.16-.31.11-.6.27-.85.48s-.48.48-.66.8l-.58-.45c.31-.52.67-.95,1.07-1.29s.83-.6,1.29-.76.92-.25,1.39-.25c.5,0,.96.11,1.36.32.4.22.72.53.95.95.23.42.35.92.35,1.49v4.88h-1.78Z"/>
      <path class="cls-1" d="M737.31,616.67c-.36,0-.71-.03-1.05-.09-.34-.06-.66-.14-.94-.24-.29-.1-.53-.21-.72-.33l.47-1.42c.31.28.69.5,1.12.66.44.16.85.24,1.23.24.42,0,.73-.1.93-.31.2-.2.3-.43.3-.67,0-.28-.09-.49-.27-.65-.18-.16-.41-.29-.7-.41-.29-.11-.59-.22-.9-.32-.31-.1-.61-.24-.9-.41s-.52-.38-.69-.65c-.17-.26-.26-.61-.26-1.04,0-.52.13-.94.38-1.29.25-.34.59-.6,1.03-.78.43-.18.91-.27,1.42-.27.38,0,.77.05,1.17.14.4.1.74.23,1.04.4l-.49,1.33c-.24-.25-.55-.43-.92-.55-.37-.11-.67-.17-.9-.17-.41,0-.7.08-.88.24-.18.16-.27.35-.27.57,0,.25.09.45.28.6.19.15.42.28.7.39.28.11.58.22.91.33.32.11.63.25.92.42s.52.39.71.67c.19.28.28.63.28,1.06,0,.34-.06.66-.19.96-.13.31-.32.58-.57.81s-.56.42-.94.56c-.37.14-.8.21-1.3.21Z"/>
      <path class="cls-1" d="M742.19,616.46v-7.38l1.46-.32.32,1.64v6.07h-1.78ZM747.55,616.46v-4.25c0-.65-.14-1.16-.42-1.53s-.69-.56-1.23-.56c-.28,0-.57.05-.88.16-.31.11-.6.27-.85.48s-.48.48-.66.8l-.58-.45c.31-.52.67-.95,1.07-1.29s.83-.6,1.29-.76.92-.25,1.39-.25c.5,0,.96.11,1.36.32.4.22.72.53.95.95.23.42.35.92.35,1.49v4.88h-1.78Z"/>
      <path class="cls-1" d="M754.45,616.57c-.77,0-1.4-.25-1.91-.74s-.76-1.17-.76-2.03v-4.72l1.78-.32v4.41c0,.66.14,1.18.41,1.55.28.37.68.56,1.21.56.28,0,.56-.05.85-.16.29-.11.57-.27.83-.48.26-.21.47-.48.64-.8l.58.43c-.3.5-.64.93-1.04,1.27-.39.34-.81.6-1.25.77-.44.17-.89.26-1.35.26ZM757.36,616.62l-.31-1.66v-5.89l1.76-.32v7.54l-1.46.32Z"/>
      <path class="cls-1" d="M766.16,610.16l-5.78-.02.11-1.04,5.78-.13-.11,1.19ZM764.24,616.58c-.44,0-.85-.09-1.22-.27-.37-.18-.67-.45-.89-.81-.22-.36-.33-.8-.33-1.31v-4.9l.63-1.96,1.15-.23v6.77c0,.48.11.83.32,1.06.22.23.5.34.85.34.22,0,.45-.04.69-.12.25-.08.49-.2.73-.37l.5.77c-.36.36-.75.62-1.18.78-.43.16-.84.24-1.25.24Z"/>
    </g>
  </g>
</svg>